SplineFontDB: 3.2
FontName: LiberationSans-BoldItalic
FullName: Liberation Sans Bold Italic
FamilyName: Liberation Sans
Weight: Bold
Copyright: Digitized data copyright (c) 2010 Google Corporation.\nCopyright (c) 2012 Red Hat, Inc.
Version: 2.1.5
ItalicAngle: -12
UnderlinePosition: -110
UnderlineWidth: 215
Ascent: 1638
Descent: 410
InvalidEm: 0
LayerCount: 3
Layer: 0 1 "Back" 1
Layer: 1 1 "Fore" 0
Layer: 2 0 "Back 2" 1
XUID: [1021 445 290132255 1219724]
FSType: 0
OS2Version: 3
OS2_WeightWidthSlopeOnly: 0
OS2_UseTypoMetrics: 0
CreationTime: 1277744832
ModificationTime: 1632991794
PfmFamily: 17
TTFWeight: 700
TTFWidth: 5
LineGap: 67
VLineGap: 0
Panose: 2 11 7 4 2 2 2 9 2 4
OS2TypoAscent: 1491
OS2TypoAOffset: 0
OS2TypoDescent: -431
OS2TypoDOffset: 0
OS2TypoLinegap: 307
OS2WinAscent: 1854
OS2WinAOffset: 0
OS2WinDescent: 434
OS2WinDOffset: 0
HheadAscent: 1854
HheadAOffset: 0
HheadDescent: -434
HheadDOffset: 0
OS2SubXSize: 1434
OS2SubYSize: 1331
OS2SubXOff: 30
OS2SubYOff: 283
OS2SupXSize: 1434
OS2SupYSize: 1331
OS2SupXOff: 90
OS2SupYOff: 977
OS2StrikeYSize: 102
OS2StrikeYPos: 530
OS2FamilyClass: 2053
OS2Vendor: '1ASC'
OS2CodePages: 600001bf.dff70000
OS2UnicodeRanges: e0000aff.500078ff.00000021.00000000
Lookup: 1 0 0 "'locl' Localized Forms lookup 5" { "'locl' Localized Forms lookup 5-1"  } ['locl' ('cyrl' <'SRB ' > 'cyrl' <'MKD ' > ) ]
Lookup: 4 1 0 "'dlig' Discretionary Ligatures in Hebrew lookup 0" { "'dlig' Discretionary Ligatures in Hebrew lookup 0 subtable"  } ['dlig' ('hebr' <'dflt' > ) ]
Lookup: 4 1 0 "'ccmp' Glyph Composition/Decomposition in Hebrew lookup 1" { "'ccmp' Glyph Composition/Decomposition in Hebrew lookup 1 subtable"  } ['ccmp' ('hebr' <'dflt' > ) ]
Lookup: 6 1 0 "'ccmp' Glyph Composition/Decomposition in Hebrew lookup 2" { "'ccmp' Glyph Composition/Decomposition in Hebrew lookup 2 subtable"  } ['ccmp' ('hebr' <'dflt' > ) ]

StartChar: exclam
Encoding: 33 33 4
Width: 682
GlyphClass: 2
Flags: W
LayerCount: 3
Fore
SplineSet
423 426 m 1,0,-1
 193 426 l 1,1,-1
 353 1409 l 1,2,-1
 647 1409 l 1,3,-1
 423 426 l 1,0,-1
79 0 m 1,4,-1
 131 270 l 1,5,-1
 419 270 l 1,6,-1
 367 0 l 1,7,-1
 79 0 l 1,4,-1
EndSplineSet
Validated: 1
EndChar

StartChar: quotedbl
Encoding: 34 34 5
Width: 971
GlyphClass: 2
Flags: W
LayerCount: 3
Fore
SplineSet
864 898 m 1,0,-1
 645 898 l 1,1,-1
 717 1409 l 1,2,-1
 992 1409 l 1,3,-1
 864 898 l 1,0,-1
438 898 m 1,4,-1
 219 898 l 1,5,-1
 291 1409 l 1,6,-1
 564 1409 l 1,7,-1
 438 898 l 1,4,-1
EndSplineSet
Validated: 1
EndChar

StartChar: numbersign
Encoding: 35 35 6
Width: 1139
GlyphClass: 2
Flags: W
LayerCount: 3
Fore
SplineSet
939 862 m 1,0,-1
 870 530 l 1,1,-1
 1085 530 l 1,2,-1
 1085 381 l 1,3,-1
 839 381 l 1,4,-1
 757 0 l 1,5,-1
 601 0 l 1,6,-1
 681 381 l 1,7,-1
 374 381 l 1,8,-1
 294 0 l 1,9,-1
 141 0 l 1,10,-1
 220 381 l 1,11,-1
 65 381 l 1,12,-1
 65 530 l 1,13,-1
 253 530 l 1,14,-1
 323 862 l 1,15,-1
 116 862 l 1,16,-1
 116 1010 l 1,17,-1
 354 1010 l 1,18,-1
 438 1395 l 1,19,-1
 591 1395 l 1,20,-1
 509 1010 l 1,21,-1
 816 1010 l 1,22,-1
 900 1395 l 1,23,-1
 1056 1395 l 1,24,-1
 972 1010 l 1,25,-1
 1136 1010 l 1,26,-1
 1136 862 l 1,27,-1
 939 862 l 1,0,-1
479 862 m 1,28,-1
 407 530 l 1,29,-1
 716 530 l 1,30,-1
 786 862 l 1,31,-1
 479 862 l 1,28,-1
EndSplineSet
Validated: 1
EndChar

StartChar: dollar
Encoding: 36 36 7
Width: 1139
GlyphClass: 2
Flags: W
LayerCount: 3
Fore
SplineSet
1080 474 m 0,0,1
 1080 261 1080 261 939 146.5 c 128,-1,2
 798 32 798 32 516 21 c 1,3,-1
 483 -152 l 1,4,-1
 371 -152 l 1,5,-1
 403 23 l 1,6,7
 227 23 227 23 114 116.5 c 128,-1,8
 1 210 1 210 -11 366 c 1,9,-1
 251 408 l 1,10,11
 265 231 265 231 445 231 c 1,12,-1
 518 619 l 1,13,14
 338 664 338 664 241 759 c 128,-1,15
 144 854 144 854 144 988 c 0,16,17
 144 1111 144 1111 206.5 1201.5 c 128,-1,18
 269 1292 269 1292 393 1343 c 128,-1,19
 517 1394 517 1394 672 1394 c 1,20,-1
 696 1520 l 1,21,-1
 806 1516 l 1,22,-1
 779 1386 l 1,23,24
 941 1386 941 1386 1042.5 1307 c 128,-1,25
 1144 1228 1144 1228 1157 1089 c 1,26,-1
 896 1032 l 1,27,28
 882 1109 882 1109 841.5 1149.5 c 128,-1,29
 801 1190 801 1190 741 1190 c 1,30,-1
 674 837 l 1,31,32
 883 787 883 787 981.5 698.5 c 128,-1,33
 1080 610 1080 610 1080 474 c 0,0,1
810 413 m 0,34,35
 810 490 810 490 766 530.5 c 128,-1,36
 722 571 722 571 627 593 c 1,37,-1
 554 231 l 1,38,39
 669 231 669 231 739.5 280 c 128,-1,40
 810 329 810 329 810 413 c 0,34,35
412 1006 m 0,41,42
 412 957 412 957 444.5 924.5 c 128,-1,43
 477 892 477 892 566 863 c 1,44,-1
 633 1194 l 1,45,46
 534 1194 534 1194 473 1141 c 128,-1,47
 412 1088 412 1088 412 1006 c 0,41,42
EndSplineSet
Validated: 1
EndChar

StartChar: percent
Encoding: 37 37 8
Width: 1821
GlyphClass: 2
Flags: W
LayerCount: 3
Fore
SplineSet
546 1421 m 0,0,1
 696 1421 696 1421 775.5 1341.5 c 128,-1,2
 855 1262 855 1262 855 1113 c 0,3,4
 855 1031 855 1031 829 935 c 1,5,6
 800 798 800 798 739 708 c 128,-1,7
 678 618 678 618 594.5 571 c 128,-1,8
 511 524 511 524 407 524 c 0,9,10
 265 524 265 524 188.5 608 c 128,-1,11
 112 692 112 692 112 841 c 0,12,13
 112 930 112 930 136 1015 c 1,14,15
 220 1421 220 1421 546 1421 c 0,0,1
545 1270 m 0,16,17
 467 1270 467 1270 422 1210 c 128,-1,18
 377 1150 377 1150 351 1025.5 c 128,-1,19
 325 901 325 901 325 827 c 0,20,21
 325 685 325 685 411 685 c 0,22,23
 490 685 490 685 538.5 749.5 c 128,-1,24
 587 814 587 814 613 945 c 1,25,26
 641 1054 641 1054 641 1131 c 0,27,28
 641 1270 641 1270 545 1270 c 0,16,17
1455 882 m 0,29,30
 1605 882 1605 882 1684.5 802.5 c 128,-1,31
 1764 723 1764 723 1764 574 c 0,32,33
 1764 492 1764 492 1738 396 c 1,34,35
 1709 259 1709 259 1648 169 c 128,-1,36
 1587 79 1587 79 1503.5 32 c 128,-1,37
 1420 -15 1420 -15 1316 -15 c 0,38,39
 1174 -15 1174 -15 1097.5 69 c 128,-1,40
 1021 153 1021 153 1021 302 c 0,41,42
 1021 391 1021 391 1045 476 c 1,43,44
 1129 882 1129 882 1455 882 c 0,29,30
1454 731 m 0,45,46
 1376 731 1376 731 1331 671 c 128,-1,47
 1286 611 1286 611 1260 486.5 c 128,-1,48
 1234 362 1234 362 1234 288 c 0,49,50
 1234 146 1234 146 1320 146 c 0,51,52
 1399 146 1399 146 1447.5 210.5 c 128,-1,53
 1496 275 1496 275 1522 406 c 1,54,55
 1550 515 1550 515 1550 592 c 0,56,57
 1550 731 1550 731 1454 731 c 0,45,46
486 0 m 1,58,-1
 289 0 l 1,59,-1
 1375 1409 l 1,60,-1
 1574 1409 l 1,61,-1
 486 0 l 1,58,-1
EndSplineSet
Validated: 1
EndChar

StartChar: ampersand
Encoding: 38 38 9
Width: 1479
GlyphClass: 2
Flags: W
LayerCount: 3
Fore
SplineSet
49 354 m 0,0,1
 49 663 49 663 475 811 c 1,2,3
 460 859 460 859 450 922 c 128,-1,4
 440 985 440 985 440 1037 c 0,5,6
 440 1209 440 1209 554.5 1313 c 128,-1,7
 669 1417 669 1417 868 1417 c 0,8,9
 1027 1417 1027 1417 1115.5 1349.5 c 128,-1,10
 1204 1282 1204 1282 1204 1160 c 0,11,12
 1204 1069 1204 1069 1158.5 998.5 c 128,-1,13
 1113 928 1113 928 1027.5 869.5 c 128,-1,14
 942 811 942 811 736 727 c 1,15,16
 779 608 779 608 817 537 c 128,-1,17
 855 466 855 466 908 395 c 1,18,19
 1041 537 1041 537 1142 760 c 1,20,-1
 1329 677 l 1,21,22
 1284 573 1284 573 1209 459.5 c 128,-1,23
 1134 346 1134 346 1051 261 c 1,24,25
 1126 197 1126 197 1235 197 c 0,26,27
 1298 197 1298 197 1346 213 c 1,28,-1
 1307 10 l 1,29,30
 1241 -12 1241 -12 1168 -12 c 0,31,32
 994 -12 994 -12 863 105 c 1,33,34
 792 50 792 50 740 27.5 c 128,-1,35
 688 5 688 5 619 -7.5 c 128,-1,36
 550 -20 550 -20 464 -20 c 0,37,38
 263 -20 263 -20 156 76.5 c 128,-1,39
 49 173 49 173 49 354 c 0,0,1
493 170 m 0,40,41
 556 170 556 170 618 192.5 c 128,-1,42
 680 215 680 215 725 249 c 1,43,44
 601 413 601 413 525 631 c 1,45,46
 401 575 401 575 352.5 509 c 128,-1,47
 304 443 304 443 304 360 c 0,48,49
 304 275 304 275 356 222.5 c 128,-1,50
 408 170 408 170 493 170 c 0,40,41
667 1041 m 0,51,52
 667 960 667 960 687 896 c 1,53,54
 829 950 829 950 879 981.5 c 128,-1,55
 929 1013 929 1013 954.5 1052 c 128,-1,56
 980 1091 980 1091 980 1142 c 256,57,58
 980 1193 980 1193 946.5 1220 c 128,-1,59
 913 1247 913 1247 855 1247 c 0,60,61
 770 1247 770 1247 718.5 1192 c 128,-1,62
 667 1137 667 1137 667 1041 c 0,51,52
EndSplineSet
Validated: 1
EndChar

StartChar: quotesingle
Encoding: 39 39 10
Width: 487
GlyphClass: 2
Flags: W
LayerCount: 3
Fore
SplineSet
417 898 m 1,0,-1
 198 898 l 1,1,-1
 271 1409 l 1,2,-1
 543 1409 l 1,3,-1
 417 898 l 1,0,-1
EndSplineSet
Validated: 1
EndChar

StartChar: parenleft
Encoding: 40 40 11
Width: 682
GlyphClass: 2
Flags: W
LayerCount: 3
Fore
SplineSet
874 1484 m 1,0,1
 350 984 350 984 350 280 c 0,2,3
 350 -119 350 -119 497 -425 c 1,4,-1
 222 -425 l 1,5,6
 74 -109 74 -109 74 296 c 0,7,8
 74 659 74 659 206 962 c 128,-1,9
 338 1265 338 1265 593 1484 c 1,10,-1
 874 1484 l 1,0,1
EndSplineSet
Validated: 1
EndChar

StartChar: parenright
Encoding: 41 41 12
Width: 682
GlyphClass: 2
Flags: W
LayerCount: 3
Fore
SplineSet
-180 -425 m 1,0,1
 345 88 345 88 345 809 c 0,2,3
 345 979 345 979 305 1160 c 128,-1,4
 265 1341 265 1341 196 1484 c 1,5,-1
 461 1484 l 1,6,7
 622 1164 622 1164 622 793 c 0,8,9
 622 418 622 418 488 107 c 128,-1,10
 354 -204 354 -204 101 -425 c 1,11,-1
 -180 -425 l 1,0,1
EndSplineSet
Validated: 1
EndChar

StartChar: asterisk
Encoding: 42 42 13
Width: 797
GlyphClass: 2
Flags: W
LayerCount: 3
Fore
SplineSet
574 1135 m 1,0,-1
 809 1239 l 1,1,-1
 877 1042 l 1,2,-1
 627 981 l 1,3,-1
 813 768 l 1,4,-1
 629 647 l 1,5,-1
 483 899 l 1,6,-1
 334 647 l 1,7,-1
 148 770 l 1,8,-1
 338 981 l 1,9,-1
 88 1042 l 1,10,-1
 156 1239 l 1,11,-1
 395 1135 l 1,12,-1
 377 1409 l 1,13,-1
 592 1409 l 1,14,-1
 574 1135 l 1,0,-1
EndSplineSet
Validated: 1
EndChar

StartChar: plus
Encoding: 43 43 14
Width: 1196
GlyphClass: 2
Flags: W
LayerCount: 3
Fore
SplineSet
750 569 m 1,0,-1
 750 161 l 1,1,-1
 524 161 l 1,2,-1
 524 569 l 1,3,-1
 125 569 l 1,4,-1
 125 793 l 1,5,-1
 524 793 l 1,6,-1
 524 1201 l 1,7,-1
 750 1201 l 1,8,-1
 750 793 l 1,9,-1
 1152 793 l 1,10,-1
 1152 569 l 1,11,-1
 750 569 l 1,0,-1
EndSplineSet
Validated: 1
EndChar

StartChar: comma
Encoding: 44 44 15
Width: 569
GlyphClass: 2
Flags: W
LayerCount: 3
Fore
SplineSet
165 -317 m 1,0,-1
 -20 -317 l 1,1,2
 58 -239 58 -239 109.5 -156 c 128,-1,3
 161 -73 161 -73 175 0 c 1,4,-1
 46 0 l 1,5,-1
 105 305 l 1,6,-1
 394 305 l 1,7,-1
 347 66 l 2,8,9
 324 -54 324 -54 281 -145.5 c 128,-1,10
 238 -237 238 -237 165 -317 c 1,0,-1
EndSplineSet
Validated: 1
EndChar

StartChar: hyphen
Encoding: 45 45 16
Width: 682
GlyphClass: 2
Flags: W
LayerCount: 3
Fore
SplineSet
56 409 m 1,0,-1
 103 653 l 1,1,-1
 623 653 l 1,2,-1
 576 409 l 1,3,-1
 56 409 l 1,0,-1
EndSplineSet
Validated: 1
EndChar

StartChar: period
Encoding: 46 46 17
Width: 569
GlyphClass: 2
Flags: W
LayerCount: 3
Fore
SplineSet
46 0 m 1,0,-1
 105 305 l 1,1,-1
 394 305 l 1,2,-1
 335 0 l 1,3,-1
 46 0 l 1,0,-1
EndSplineSet
Validated: 1
EndChar

StartChar: slash
Encoding: 47 47 18
Width: 569
GlyphClass: 2
Flags: W
LayerCount: 3
Fore
SplineSet
-76 -41 m 1,0,-1
 511 1484 l 1,1,-1
 749 1484 l 1,2,-1
 166 -41 l 1,3,-1
 -76 -41 l 1,0,-1
EndSplineSet
Validated: 1
EndChar

StartChar: zero
Encoding: 48 48 19
Width: 1139
GlyphClass: 2
Flags: W
LayerCount: 3
Fore
SplineSet
724 1430 m 0,0,1
 1119 1430 1119 1430 1119 964 c 0,2,3
 1119 849 1119 849 1081 665 c 0,4,5
 937 -20 937 -20 478 -20 c 0,6,7
 278 -20 278 -20 181.5 97.5 c 128,-1,8
 85 215 85 215 85 454 c 0,9,10
 85 593 85 593 129.5 798 c 128,-1,11
 174 1003 174 1003 253 1144 c 128,-1,12
 332 1285 332 1285 448 1357.5 c 128,-1,13
 564 1430 564 1430 724 1430 c 0,0,1
497 201 m 0,14,15
 614 201 614 201 684.5 308.5 c 128,-1,16
 755 416 755 416 800.5 655 c 128,-1,17
 846 894 846 894 846 977 c 0,18,19
 846 1210 846 1210 694 1210 c 0,20,21
 608 1210 608 1210 554.5 1163 c 128,-1,22
 501 1116 501 1116 463.5 1011.5 c 128,-1,23
 426 907 426 907 392 702.5 c 128,-1,24
 358 498 358 498 358 415 c 0,25,26
 358 201 358 201 497 201 c 0,14,15
EndSplineSet
Validated: 1
Substitution2: "'subs' Subscript lookup 7 subtable" zero.subs
EndChar

StartChar: one
Encoding: 49 49 20
Width: 1139
GlyphClass: 2
Flags: W
LayerCount: 3
Fore
SplineSet
33 0 m 1,0,-1
 76 231 l 1,1,-1
 425 231 l 1,2,-1
 604 1152 l 1,3,-1
 223 938 l 1,4,-1
 270 1180 l 1,5,-1
 666 1409 l 1,6,-1
 936 1409 l 1,7,-1
 706 231 l 1,8,-1
 1029 231 l 1,9,-1
 985 0 l 1,10,-1
 33 0 l 1,0,-1
EndSplineSet
Validated: 1
Substitution2: "'subs' Subscript lookup 7 subtable" one.subs
EndChar

StartChar: two
Encoding: 50 50 21
Width: 1139
GlyphClass: 2
Flags: W
LayerCount: 3
Fore
SplineSet
-32 0 m 1,0,-1
 5 195 l 1,1,2
 54 280 54 280 118 351 c 128,-1,3
 182 422 182 422 257.5 486.5 c 128,-1,4
 333 551 333 551 514 677 c 0,5,6
 662 781 662 781 716 835 c 128,-1,7
 770 889 770 889 799.5 945 c 128,-1,8
 829 1001 829 1001 829 1063 c 0,9,10
 829 1206 829 1206 667 1206 c 0,11,12
 579 1206 579 1206 525 1162 c 128,-1,13
 471 1118 471 1118 444 1022 c 1,14,-1
 178 1081 l 1,15,16
 231 1260 231 1260 359 1345 c 128,-1,17
 487 1430 487 1430 687 1430 c 0,18,19
 897 1430 897 1430 1007.5 1342.5 c 128,-1,20
 1118 1255 1118 1255 1118 1083 c 0,21,22
 1118 987 1118 987 1076 900 c 128,-1,23
 1034 813 1034 813 949.5 731.5 c 128,-1,24
 865 650 865 650 676 523 c 1,25,26
 544 433 544 433 465.5 365 c 128,-1,27
 387 297 387 297 343 231 c 1,28,-1
 997 231 l 1,29,-1
 953 0 l 1,30,-1
 -32 0 l 1,0,-1
EndSplineSet
Validated: 1
Substitution2: "'subs' Subscript lookup 7 subtable" two.subs
EndChar

StartChar: three
Encoding: 51 51 22
Width: 1139
GlyphClass: 2
Flags: W
LayerCount: 3
Fore
SplineSet
535 829 m 2,0,1
 684 829 684 829 757.5 887 c 128,-1,2
 831 945 831 945 831 1051 c 0,3,4
 831 1123 831 1123 792.5 1164.5 c 128,-1,5
 754 1206 754 1206 674 1206 c 0,6,7
 488 1206 488 1206 437 1022 c 1,8,-1
 170 1074 l 1,9,10
 272 1430 272 1430 685 1430 c 0,11,12
 888 1430 888 1430 1002 1339 c 128,-1,13
 1116 1248 1116 1248 1116 1086 c 0,14,15
 1116 930 1116 930 1019 835 c 128,-1,16
 922 740 922 740 755 725 c 1,17,-1
 754 721 l 1,18,19
 889 700 889 700 959.5 621.5 c 128,-1,20
 1030 543 1030 543 1030 418 c 0,21,22
 1030 294 1030 294 965 192.5 c 128,-1,23
 900 91 900 91 782 35.5 c 128,-1,24
 664 -20 664 -20 511 -20 c 0,25,26
 285 -20 285 -20 158.5 73 c 128,-1,27
 32 166 32 166 16 343 c 1,28,-1
 298 381 l 1,29,30
 309 291 309 291 361 248.5 c 128,-1,31
 413 206 413 206 524 206 c 0,32,33
 628 206 628 206 686.5 262 c 128,-1,34
 745 318 745 318 745 416 c 0,35,36
 745 602 745 602 525 602 c 2,37,-1
 418 602 l 1,38,-1
 462 829 l 1,39,-1
 535 829 l 2,0,1
EndSplineSet
Validated: 1
Substitution2: "'subs' Subscript lookup 7 subtable" three.subs
EndChar

StartChar: four
Encoding: 52 52 23
Width: 1139
GlyphClass: 2
Flags: W
LayerCount: 3
Fore
SplineSet
874 286 m 1,0,-1
 820 0 l 1,1,-1
 552 0 l 1,2,-1
 606 286 l 1,3,-1
 -34 286 l 1,4,-1
 7 493 l 1,5,-1
 724 1409 l 1,6,-1
 1094 1409 l 1,7,-1
 916 496 l 1,8,-1
 1104 496 l 1,9,-1
 1062 286 l 1,10,-1
 874 286 l 1,0,-1
800 1206 m 1,11,12
 754 1128 754 1128 683 1036 c 2,13,-1
 259 496 l 1,14,-1
 648 496 l 1,15,-1
 750 1020 l 2,16,17
 768 1110 768 1110 800 1206 c 1,11,12
EndSplineSet
Validated: 1
Substitution2: "'subs' Subscript lookup 7 subtable" four.subs
Substitution2: "'sups' Superscript lookup 6 subtable" four.sups
EndChar

StartChar: five
Encoding: 53 53 24
Width: 1139
GlyphClass: 2
Flags: W
LayerCount: 3
Fore
SplineSet
316 1409 m 1,0,-1
 1163 1409 l 1,1,-1
 1120 1178 l 1,2,-1
 526 1178 l 1,3,-1
 439 844 l 1,4,5
 457 860 457 860 481.5 876 c 128,-1,6
 506 892 506 892 537 905 c 128,-1,7
 568 918 568 918 607 926 c 128,-1,8
 646 934 646 934 694 934 c 0,9,10
 861 934 861 934 962.5 821 c 128,-1,11
 1064 708 1064 708 1064 518 c 0,12,13
 1064 357 1064 357 993.5 234.5 c 128,-1,14
 923 112 923 112 791 46 c 128,-1,15
 659 -20 659 -20 486 -20 c 0,16,17
 287 -20 287 -20 167.5 68.5 c 128,-1,18
 48 157 48 157 20 329 c 1,19,-1
 303 374 l 1,20,21
 321 281 321 281 368.5 243.5 c 128,-1,22
 416 206 416 206 510 206 c 0,23,24
 635 206 635 206 706.5 282.5 c 128,-1,25
 778 359 778 359 778 486 c 0,26,27
 778 591 778 591 728.5 649 c 128,-1,28
 679 707 679 707 589 707 c 0,29,30
 466 707 466 707 387 616 c 1,31,-1
 113 616 l 1,32,-1
 316 1409 l 1,0,-1
EndSplineSet
Validated: 1
Substitution2: "'subs' Subscript lookup 7 subtable" five.subs
Substitution2: "'sups' Superscript lookup 6 subtable" five.sups
EndChar

StartChar: six
Encoding: 54 54 25
Width: 1139
GlyphClass: 2
Flags: W
LayerCount: 3
Fore
SplineSet
533 -20 m 0,0,1
 323 -20 323 -20 209 113 c 128,-1,2
 95 246 95 246 95 487 c 0,3,4
 95 756 95 756 178.5 973.5 c 128,-1,5
 262 1191 262 1191 411.5 1310.5 c 128,-1,6
 561 1430 561 1430 745 1430 c 0,7,8
 925 1430 925 1430 1028.5 1346.5 c 128,-1,9
 1132 1263 1132 1263 1150 1106 c 1,10,-1
 884 1065 l 1,11,12
 870 1138 870 1138 833 1173 c 128,-1,13
 796 1208 796 1208 730 1208 c 0,14,15
 615 1208 615 1208 530 1093 c 128,-1,16
 445 978 445 978 406 746 c 1,17,18
 459 818 459 818 540.5 862.5 c 128,-1,19
 622 907 622 907 725 907 c 0,20,21
 889 907 889 907 983.5 807 c 128,-1,22
 1078 707 1078 707 1078 533 c 0,23,24
 1078 382 1078 382 1008 254 c 128,-1,25
 938 126 938 126 813.5 53 c 128,-1,26
 689 -20 689 -20 533 -20 c 0,0,1
369 429 m 0,27,28
 369 324 369 324 418 262 c 128,-1,29
 467 200 467 200 558 200 c 0,30,31
 665 200 665 200 728.5 281.5 c 128,-1,32
 792 363 792 363 792 499 c 0,33,34
 792 596 792 596 744.5 648 c 128,-1,35
 697 700 697 700 614 700 c 0,36,37
 547 700 547 700 490 666 c 128,-1,38
 433 632 433 632 401 570 c 128,-1,39
 369 508 369 508 369 429 c 0,27,28
EndSplineSet
Validated: 1
Substitution2: "'subs' Subscript lookup 7 subtable" six.subs
Substitution2: "'sups' Superscript lookup 6 subtable" six.sups
EndChar

StartChar: seven
Encoding: 55 55 26
Width: 1139
GlyphClass: 2
Flags: W
LayerCount: 3
Fore
SplineSet
188 1409 m 1,0,-1
 1219 1409 l 1,1,-1
 1175 1186 l 1,2,-1
 1013 992 l 1,3,4
 754 686 754 686 639 469 c 128,-1,5
 524 252 524 252 472 0 c 1,6,-1
 174 0 l 1,7,8
 209 182 209 182 277.5 335.5 c 128,-1,9
 346 489 346 489 439.5 629 c 128,-1,10
 533 769 533 769 648.5 902.5 c 128,-1,11
 764 1036 764 1036 893 1178 c 1,12,-1
 143 1178 l 1,13,-1
 188 1409 l 1,0,-1
EndSplineSet
Validated: 1
Substitution2: "'subs' Subscript lookup 7 subtable" seven.subs
Substitution2: "'sups' Superscript lookup 6 subtable" seven.sups
EndChar

StartChar: eight
Encoding: 56 56 27
Width: 1139
GlyphClass: 2
Flags: W
LayerCount: 3
Fore
SplineSet
707 1429 m 0,0,1
 906 1429 906 1429 1021 1337.5 c 128,-1,2
 1136 1246 1136 1246 1136 1091 c 0,3,4
 1136 951 1136 951 1050.5 857 c 128,-1,5
 965 763 965 763 820 743 c 1,6,-1
 819 739 l 1,7,8
 930 706 930 706 989.5 625 c 128,-1,9
 1049 544 1049 544 1049 432 c 0,10,11
 1049 224 1049 224 900.5 102 c 128,-1,12
 752 -20 752 -20 493 -20 c 0,13,14
 271 -20 271 -20 149 80.5 c 128,-1,15
 27 181 27 181 27 360 c 0,16,17
 27 507 27 507 121.5 605 c 128,-1,18
 216 703 216 703 386 737 c 1,19,-1
 386 741 l 1,20,21
 294 782 294 782 246.5 862.5 c 128,-1,22
 199 943 199 943 199 1052 c 0,23,24
 199 1229 199 1229 336 1329 c 128,-1,25
 473 1429 473 1429 707 1429 c 0,0,1
648 840 m 0,26,27
 742 840 742 840 796.5 899.5 c 128,-1,28
 851 959 851 959 851 1064 c 0,29,30
 851 1232 851 1232 679 1232 c 0,31,32
 584 1232 584 1232 530 1176.5 c 128,-1,33
 476 1121 476 1121 476 1020 c 0,34,35
 476 933 476 933 521 886.5 c 128,-1,36
 566 840 566 840 648 840 c 0,26,27
561 640 m 0,37,38
 445 640 445 640 381 569 c 128,-1,39
 317 498 317 498 317 377 c 0,40,41
 317 282 317 282 370.5 230 c 128,-1,42
 424 178 424 178 520 178 c 0,43,44
 628 178 628 178 694 250 c 128,-1,45
 760 322 760 322 760 444 c 0,46,47
 760 539 760 539 707 589.5 c 128,-1,48
 654 640 654 640 561 640 c 0,37,38
EndSplineSet
Validated: 1
Substitution2: "'subs' Subscript lookup 7 subtable" eight.subs
Substitution2: "'sups' Superscript lookup 6 subtable" eight.sups
EndChar

StartChar: nine
Encoding: 57 57 28
Width: 1139
GlyphClass: 2
Flags: W
LayerCount: 3
Fore
SplineSet
817 653 m 1,0,1
 752 576 752 576 678 539.5 c 128,-1,2
 604 503 604 503 500 503 c 0,3,4
 339 503 339 503 243 610 c 128,-1,5
 147 717 147 717 147 893 c 0,6,7
 147 1042 147 1042 218 1166.5 c 128,-1,8
 289 1291 289 1291 414.5 1360.5 c 128,-1,9
 540 1430 540 1430 692 1430 c 0,10,11
 892 1430 892 1430 1011 1301.5 c 128,-1,12
 1130 1173 1130 1173 1130 957 c 0,13,14
 1130 785 1130 785 1081.5 592.5 c 128,-1,15
 1033 400 1033 400 946 260.5 c 128,-1,16
 859 121 859 121 741 50.5 c 128,-1,17
 623 -20 623 -20 479 -20 c 0,18,19
 297 -20 297 -20 186 66 c 128,-1,20
 75 152 75 152 48 311 c 1,21,-1
 322 359 l 1,22,23
 351 202 351 202 498 202 c 0,24,25
 731 202 731 202 817 653 c 1,0,1
855 1009 m 0,26,27
 855 1096 855 1096 805 1153 c 128,-1,28
 755 1210 755 1210 678 1210 c 0,29,30
 564 1210 564 1210 498 1126 c 128,-1,31
 432 1042 432 1042 432 900 c 0,32,33
 432 815 432 815 480 762.5 c 128,-1,34
 528 710 528 710 611 710 c 0,35,36
 725 710 725 710 790 790 c 128,-1,37
 855 870 855 870 855 1009 c 0,26,27
EndSplineSet
Validated: 1
Substitution2: "'subs' Subscript lookup 7 subtable" nine.subs
Substitution2: "'sups' Superscript lookup 6 subtable" nine.sups
EndChar

StartChar: colon
Encoding: 58 58 29
Width: 682
GlyphClass: 2
Flags: W
LayerCount: 3
Fore
SplineSet
235 752 m 1,0,-1
 290 1034 l 1,1,-1
 578 1034 l 1,2,-1
 523 752 l 1,3,-1
 235 752 l 1,0,-1
89 0 m 1,4,-1
 144 281 l 1,5,-1
 432 281 l 1,6,-1
 377 0 l 1,7,-1
 89 0 l 1,4,-1
EndSplineSet
Validated: 1
EndChar

StartChar: semicolon
Encoding: 59 59 30
Width: 682
GlyphClass: 2
Flags: W
LayerCount: 3
Fore
SplineSet
235 752 m 1,0,-1
 290 1034 l 1,1,-1
 578 1034 l 1,2,-1
 523 752 l 1,3,-1
 235 752 l 1,0,-1
207 -317 m 1,4,-1
 23 -317 l 1,5,6
 101 -239 101 -239 152.5 -156 c 128,-1,7
 204 -73 204 -73 218 0 c 1,8,-1
 89 0 l 1,9,-1
 144 281 l 1,10,-1
 432 281 l 1,11,-1
 390 66 l 2,12,13
 367 -54 367 -54 324.5 -145 c 128,-1,14
 282 -236 282 -236 207 -317 c 1,4,-1
EndSplineSet
Validated: 1
EndChar

StartChar: less
Encoding: 60 60 31
Width: 1196
GlyphClass: 2
Flags: W
LayerCount: 3
Fore
SplineSet
124 516 m 1,0,-1
 124 838 l 1,1,-1
 1151 1229 l 1,2,-1
 1151 1001 l 1,3,-1
 318 676 l 1,4,-1
 1151 352 l 1,5,-1
 1151 125 l 1,6,-1
 124 516 l 1,0,-1
EndSplineSet
Validated: 1
EndChar

StartChar: equal
Encoding: 61 61 32
Width: 1196
GlyphClass: 2
Flags: W
LayerCount: 3
Fore
SplineSet
123 842 m 1,0,-1
 123 1065 l 1,1,-1
 1150 1065 l 1,2,-1
 1150 842 l 1,3,-1
 123 842 l 1,0,-1
123 291 m 1,4,-1
 123 512 l 1,5,-1
 1150 512 l 1,6,-1
 1150 291 l 1,7,-1
 123 291 l 1,4,-1
EndSplineSet
Validated: 1
EndChar

StartChar: greater
Encoding: 62 62 33
Width: 1196
GlyphClass: 2
Flags: W
LayerCount: 3
Fore
SplineSet
124 125 m 1,0,-1
 124 352 l 1,1,-1
 956 676 l 1,2,-1
 124 1001 l 1,3,-1
 124 1229 l 1,4,-1
 1151 838 l 1,5,-1
 1151 516 l 1,6,-1
 124 125 l 1,0,-1
EndSplineSet
Validated: 1
EndChar

StartChar: question
Encoding: 63 63 34
Width: 1251
GlyphClass: 2
Flags: W
LayerCount: 3
Fore
SplineSet
745 1430 m 0,0,1
 959 1430 959 1430 1084 1336 c 128,-1,2
 1209 1242 1209 1242 1209 1075 c 0,3,4
 1209 985 1209 985 1171.5 914 c 128,-1,5
 1134 843 1134 843 1066 782.5 c 128,-1,6
 998 722 998 722 841 635 c 1,7,8
 763 584 763 584 734.5 557 c 128,-1,9
 706 530 706 530 689 499 c 128,-1,10
 672 468 672 468 666 426 c 1,11,-1
 399 426 l 1,12,13
 413 503 413 503 444 560.5 c 128,-1,14
 475 618 475 618 523.5 664.5 c 128,-1,15
 572 711 572 711 690 784 c 0,16,17
 759 827 759 827 804.5 860 c 128,-1,18
 850 893 850 893 877 923.5 c 128,-1,19
 904 954 904 954 915 985 c 128,-1,20
 926 1016 926 1016 926 1055 c 0,21,22
 926 1118 926 1118 878 1159.5 c 128,-1,23
 830 1201 830 1201 729 1201 c 0,24,25
 502 1201 502 1201 450 1008 c 1,26,-1
 184 1048 l 1,27,28
 301 1430 301 1430 745 1430 c 0,0,1
309 0 m 1,29,-1
 361 270 l 1,30,-1
 650 270 l 1,31,-1
 598 0 l 1,32,-1
 309 0 l 1,29,-1
EndSplineSet
Validated: 1
EndChar

StartChar: at
Encoding: 64 64 35
Width: 1997
GlyphClass: 2
Flags: W
LayerCount: 3
Fore
SplineSet
1911 755 m 0,0,1
 1911 573 1911 573 1847.5 423 c 128,-1,2
 1784 273 1784 273 1672 188.5 c 128,-1,3
 1560 104 1560 104 1430 104 c 0,4,5
 1338 104 1338 104 1288.5 149.5 c 128,-1,6
 1239 195 1239 195 1239 276 c 0,7,8
 1239 313 1239 313 1245 343 c 1,9,-1
 1239 343 l 1,10,11
 1189 238 1189 238 1090.5 171 c 128,-1,12
 992 104 992 104 889 104 c 0,13,14
 732 104 732 104 645.5 205.5 c 128,-1,15
 559 307 559 307 559 489 c 0,16,17
 559 652 559 652 623.5 795 c 128,-1,18
 688 938 688 938 802.5 1019.5 c 128,-1,19
 917 1101 917 1101 1059 1101 c 0,20,21
 1254 1101 1254 1101 1323 927 c 1,22,-1
 1329 927 l 1,23,-1
 1368 1079 l 1,24,-1
 1524 1079 l 1,25,-1
 1407 573 l 1,26,27
 1370 401 1370 401 1370 333 c 0,28,29
 1370 283 1370 283 1393.5 262 c 128,-1,30
 1417 241 1417 241 1448 241 c 0,31,32
 1528 241 1528 241 1601 310.5 c 128,-1,33
 1674 380 1674 380 1716.5 496.5 c 128,-1,34
 1759 613 1759 613 1759 753 c 0,35,36
 1759 928 1759 928 1682.5 1062.5 c 128,-1,37
 1606 1197 1606 1197 1462 1270 c 128,-1,38
 1318 1343 1318 1343 1127 1343 c 0,39,40
 887 1343 887 1343 704 1238 c 128,-1,41
 521 1133 521 1133 416.5 935 c 128,-1,42
 312 737 312 737 312 491 c 0,43,44
 312 296 312 296 391.5 148.5 c 128,-1,45
 471 1 471 1 615 -74.5 c 128,-1,46
 759 -150 759 -150 953 -150 c 0,47,48
 1247 -150 1247 -150 1542 5 c 1,49,-1
 1604 -117 l 1,50,51
 1436 -212 1436 -212 1275.5 -253 c 128,-1,52
 1115 -294 1115 -294 946 -294 c 0,53,54
 710 -294 710 -294 530.5 -198.5 c 128,-1,55
 351 -103 351 -103 250.5 77.5 c 128,-1,56
 150 258 150 258 150 491 c 0,57,58
 150 774 150 774 276.5 1003 c 128,-1,59
 403 1232 403 1232 626 1358 c 128,-1,60
 849 1484 849 1484 1125 1484 c 0,61,62
 1368 1484 1368 1484 1546 1393.5 c 128,-1,63
 1724 1303 1724 1303 1817.5 1138 c 128,-1,64
 1911 973 1911 973 1911 755 c 0,0,1
1264 751 m 0,65,66
 1264 846 1264 846 1204.5 906 c 128,-1,67
 1145 966 1145 966 1051 966 c 256,68,69
 957 966 957 966 882.5 903.5 c 128,-1,70
 808 841 808 841 766.5 726.5 c 128,-1,71
 725 612 725 612 725 491 c 0,72,73
 725 377 725 377 773.5 311 c 128,-1,74
 822 245 822 245 922 245 c 0,75,76
 988 245 988 245 1050.5 287 c 128,-1,77
 1113 329 1113 329 1162 408.5 c 128,-1,78
 1211 488 1211 488 1237.5 589.5 c 128,-1,79
 1264 691 1264 691 1264 751 c 0,65,66
EndSplineSet
Validated: 1
EndChar

StartChar: A
Encoding: 65 65 36
Width: 1479
GlyphClass: 2
Flags: W
AnchorPoint: "Anchor21" 1200 0 basechar 0
AnchorPoint: "Anchor20" 730 0 basechar 0
AnchorPoint: "Anchor18" 1479 1840 basechar 0
AnchorPoint: "Anchor19" 0 1840 basechar 0
AnchorPoint: "Anchor16" 1479 1540 basechar 0
AnchorPoint: "Anchor17" 1479 -380 basechar 0
AnchorPoint: "Anchor15" 1080 1300 basechar 0
AnchorPoint: "Anchor14" 1060 1420 basechar 0
AnchorPoint: "Anchor10" 880 1540 basechar 0
AnchorPoint: "Anchor11" 1330 1540 basechar 0
AnchorPoint: "Anchor12" 730 -130 basechar 0
LayerCount: 3
Fore
SplineSet
1039 0 m 1,0,-1
 984 360 l 1,1,-1
 447 360 l 1,2,-1
 252 0 l 1,3,-1
 -42 0 l 1,4,-1
 745 1409 l 1,5,-1
 1093 1409 l 1,6,-1
 1331 0 l 1,7,-1
 1039 0 l 1,0,-1
876 1192 m 1,8,9
 855 1128 855 1128 778 980 c 1,10,-1
 566 582 l 1,11,-1
 961 582 l 1,12,-1
 894 1034 l 1,13,14
 876 1169 876 1169 876 1192 c 1,8,9
EndSplineSet
Validated: 1
EndChar

StartChar: B
Encoding: 66 66 37
Width: 1479
GlyphClass: 2
Flags: W
AnchorPoint: "Anchor21" 760 0 basechar 0
AnchorPoint: "Anchor18" 1479 1840 basechar 0
AnchorPoint: "Anchor19" 0 1840 basechar 0
AnchorPoint: "Anchor16" 1479 1540 basechar 0
AnchorPoint: "Anchor17" 1479 -380 basechar 0
AnchorPoint: "Anchor15" 1230 1300 basechar 0
AnchorPoint: "Anchor14" 1326 1150 basechar 0
AnchorPoint: "Anchor10" 820 1540 basechar 0
AnchorPoint: "Anchor11" 1330 1540 basechar 0
AnchorPoint: "Anchor12" 700 -130 basechar 0
LayerCount: 3
Fore
SplineSet
310 1409 m 1,0,-1
 894 1409 l 2,1,2
 1145 1409 1145 1409 1274 1326.5 c 128,-1,3
 1403 1244 1403 1244 1403 1083 c 0,4,5
 1403 946 1403 946 1320.5 858.5 c 128,-1,6
 1238 771 1238 771 1079 738 c 1,7,8
 1215 715 1215 715 1291.5 632.5 c 128,-1,9
 1368 550 1368 550 1368 431 c 0,10,11
 1368 220 1368 220 1211.5 110 c 128,-1,12
 1055 0 1055 0 741 0 c 2,13,-1
 36 0 l 1,14,-1
 310 1409 l 1,0,-1
494 841 m 1,15,-1
 788 841 l 2,16,17
 963 841 963 841 1036.5 887 c 128,-1,18
 1110 933 1110 933 1110 1038 c 0,19,20
 1110 1118 1110 1118 1053 1154 c 128,-1,21
 996 1190 996 1190 862 1190 c 2,22,-1
 561 1190 l 1,23,-1
 494 841 l 1,15,-1
373 219 m 1,24,-1
 701 219 l 2,25,26
 910 219 910 219 991 269.5 c 128,-1,27
 1072 320 1072 320 1072 437 c 0,28,29
 1072 527 1072 527 1004 575 c 128,-1,30
 936 623 936 623 782 623 c 2,31,-1
 452 623 l 1,32,-1
 373 219 l 1,24,-1
EndSplineSet
Validated: 1
EndChar

StartChar: C
Encoding: 67 67 38
Width: 1479
GlyphClass: 2
Flags: W
AnchorPoint: "Anchor21" 890 0 basechar 0
AnchorPoint: "Anchor20" 800 0 basechar 0
AnchorPoint: "Anchor18" 1479 1840 basechar 0
AnchorPoint: "Anchor19" 0 1840 basechar 0
AnchorPoint: "Anchor16" 1479 1540 basechar 0
AnchorPoint: "Anchor17" 1479 -380 basechar 0
AnchorPoint: "Anchor15" 1230 1300 basechar 0
AnchorPoint: "Anchor14" 1380 1240 basechar 0
AnchorPoint: "Anchor10" 920 1540 basechar 0
AnchorPoint: "Anchor11" 1330 1540 basechar 0
AnchorPoint: "Anchor12" 800 -130 basechar 0
LayerCount: 3
Fore
SplineSet
401 573 m 0,0,1
 401 400 401 400 486.5 305.5 c 128,-1,2
 572 211 572 211 731 211 c 0,3,4
 997 211 997 211 1149 469 c 1,5,-1
 1376 352 l 1,6,7
 1166 -20 1166 -20 711 -20 c 0,8,9
 520 -20 520 -20 381.5 52 c 128,-1,10
 243 124 243 124 171.5 257.5 c 128,-1,11
 100 391 100 391 100 569 c 0,12,13
 100 821 100 821 205 1019.5 c 128,-1,14
 310 1218 310 1218 498.5 1324 c 128,-1,15
 687 1430 687 1430 927 1430 c 0,16,17
 1157 1430 1157 1430 1304.5 1331.5 c 128,-1,18
 1452 1233 1452 1233 1503 1038 c 1,19,-1
 1229 967 l 1,20,21
 1200 1074 1200 1074 1118 1136 c 128,-1,22
 1036 1198 1036 1198 918 1198 c 0,23,24
 676 1198 676 1198 538.5 1030 c 128,-1,25
 401 862 401 862 401 573 c 0,0,1
EndSplineSet
Validated: 1
EndChar

StartChar: D
Encoding: 68 68 39
Width: 1479
GlyphClass: 2
Flags: W
AnchorPoint: "Anchor21" 670 0 basechar 0
AnchorPoint: "Anchor18" 1479 1840 basechar 0
AnchorPoint: "Anchor19" 0 1840 basechar 0
AnchorPoint: "Anchor16" 1479 1540 basechar 0
AnchorPoint: "Anchor17" 1479 -380 basechar 0
AnchorPoint: "Anchor15" 1100 1300 basechar 0
AnchorPoint: "Anchor14" 1340 1150 basechar 0
AnchorPoint: "Anchor10" 820 1540 basechar 0
AnchorPoint: "Anchor11" 1330 1540 basechar 0
AnchorPoint: "Anchor12" 700 -130 basechar 0
LayerCount: 3
Fore
SplineSet
734 1409 m 2,0,1
 1067 1409 1067 1409 1244 1254 c 128,-1,2
 1421 1099 1421 1099 1421 807 c 0,3,4
 1421 571 1421 571 1322 390 c 128,-1,5
 1223 209 1223 209 1035 104.5 c 128,-1,6
 847 0 847 0 614 0 c 2,7,-1
 36 0 l 1,8,-1
 310 1409 l 1,9,-1
 734 1409 l 2,0,1
375 228 m 1,10,-1
 605 228 l 2,11,12
 765 228 765 228 888.5 296.5 c 128,-1,13
 1012 365 1012 365 1078.5 494 c 128,-1,14
 1145 623 1145 623 1145 794 c 0,15,16
 1145 983 1145 983 1039.5 1082 c 128,-1,17
 934 1181 934 1181 736 1181 c 2,18,-1
 560 1181 l 1,19,-1
 375 228 l 1,10,-1
EndSplineSet
Validated: 1
EndChar

StartChar: E
Encoding: 69 69 40
Width: 1366
GlyphClass: 2
Flags: W
AnchorPoint: "Anchor21" 1120 0 basechar 0
AnchorPoint: "Anchor20" 720 0 basechar 0
AnchorPoint: "Anchor18" 1479 1840 basechar 0
AnchorPoint: "Anchor19" 0 1840 basechar 0
AnchorPoint: "Anchor16" 1366 1540 basechar 0
AnchorPoint: "Anchor17" 1366 -380 basechar 0
AnchorPoint: "Anchor15" 1330 1340 basechar 0
AnchorPoint: "Anchor14" 1300 1420 basechar 0
AnchorPoint: "Anchor10" 850 1540 basechar 0
AnchorPoint: "Anchor11" 1240 1540 basechar 0
AnchorPoint: "Anchor12" 740 -130 basechar 0
LayerCount: 3
Fore
SplineSet
36 0 m 1,0,-1
 309 1409 l 1,1,-1
 1417 1409 l 1,2,-1
 1373 1181 l 1,3,-1
 560 1181 l 1,4,-1
 491 827 l 1,5,-1
 1243 827 l 1,6,-1
 1199 599 l 1,7,-1
 447 599 l 1,8,-1
 375 228 l 1,9,-1
 1229 228 l 1,10,-1
 1184 0 l 1,11,-1
 36 0 l 1,0,-1
EndSplineSet
Validated: 1
EndChar

StartChar: F
Encoding: 70 70 41
Width: 1251
GlyphClass: 2
Flags: W
AnchorPoint: "Anchor21" 190 0 basechar 0
AnchorPoint: "Anchor18" 1479 1840 basechar 0
AnchorPoint: "Anchor19" 0 1840 basechar 0
AnchorPoint: "Anchor16" 1251 1540 basechar 0
AnchorPoint: "Anchor17" 1251 -380 basechar 0
AnchorPoint: "Anchor15" 1230 1340 basechar 0
AnchorPoint: "Anchor14" 1260 1420 basechar 0
AnchorPoint: "Anchor10" 780 1540 basechar 0
AnchorPoint: "Anchor11" 1180 1540 basechar 0
AnchorPoint: "Anchor12" 680 -130 basechar 0
LayerCount: 3
Fore
SplineSet
560 1181 m 1,0,-1
 475 745 l 1,1,-1
 1143 745 l 1,2,-1
 1099 517 l 1,3,-1
 431 517 l 1,4,-1
 330 0 l 1,5,-1
 36 0 l 1,6,-1
 309 1409 l 1,7,-1
 1295 1409 l 1,8,-1
 1251 1181 l 1,9,-1
 560 1181 l 1,0,-1
EndSplineSet
Validated: 1
EndChar

StartChar: G
Encoding: 71 71 42
Width: 1593
GlyphClass: 2
Flags: W
AnchorPoint: "Anchor21" 960 0 basechar 0
AnchorPoint: "Anchor20" 800 0 basechar 0
AnchorPoint: "Anchor18" 1479 1840 basechar 0
AnchorPoint: "Anchor19" 0 1840 basechar 0
AnchorPoint: "Anchor16" 1593 1540 basechar 0
AnchorPoint: "Anchor17" 1593 -380 basechar 0
AnchorPoint: "Anchor15" 1280 1300 basechar 0
AnchorPoint: "Anchor14" 1400 1240 basechar 0
AnchorPoint: "Anchor10" 950 1540 basechar 0
AnchorPoint: "Anchor11" 1400 1540 basechar 0
AnchorPoint: "Anchor12" 840 -130 basechar 0
LayerCount: 3
Fore
SplineSet
740 -19 m 0,0,1
 440 -19 440 -19 270 139.5 c 128,-1,2
 100 298 100 298 100 583 c 0,3,4
 100 833 100 833 204.5 1027 c 128,-1,5
 309 1221 309 1221 500.5 1325.5 c 128,-1,6
 692 1430 692 1430 942 1430 c 0,7,8
 1170 1430 1170 1430 1323.5 1327 c 128,-1,9
 1477 1224 1477 1224 1530 1039 c 1,10,-1
 1248 961 l 1,11,12
 1219 1074 1219 1074 1136 1136 c 128,-1,13
 1053 1198 1053 1198 926 1198 c 0,14,15
 767 1198 767 1198 647 1123 c 128,-1,16
 527 1048 527 1048 463 910 c 128,-1,17
 399 772 399 772 399 592 c 0,18,19
 399 414 399 414 494.5 312.5 c 128,-1,20
 590 211 590 211 764 211 c 0,21,22
 872 211 872 211 974 237 c 128,-1,23
 1076 263 1076 263 1148 307 c 1,24,-1
 1194 535 l 1,25,-1
 852 535 l 1,26,-1
 891 743 l 1,27,-1
 1505 743 l 1,28,-1
 1400 175 l 1,29,30
 1244 68 1244 68 1088 24.5 c 128,-1,31
 932 -19 932 -19 740 -19 c 0,0,1
EndSplineSet
Validated: 1
EndChar

StartChar: H
Encoding: 72 72 43
Width: 1479
GlyphClass: 2
Flags: W
AnchorPoint: "Anchor21" 1100 0 basechar 0
AnchorPoint: "Anchor18" 1479 1840 basechar 0
AnchorPoint: "Anchor19" 0 1840 basechar 0
AnchorPoint: "Anchor16" 1479 1540 basechar 0
AnchorPoint: "Anchor17" 1479 -380 basechar 0
AnchorPoint: "Anchor15" 1430 1300 basechar 0
AnchorPoint: "Anchor14" 1420 1420 basechar 0
AnchorPoint: "Anchor10" 880 1540 basechar 0
AnchorPoint: "Anchor11" 1330 1540 basechar 0
AnchorPoint: "Anchor12" 730 -130 basechar 0
LayerCount: 3
Fore
SplineSet
956 0 m 1,0,-1
 1074 604 l 1,1,-1
 448 604 l 1,2,-1
 330 0 l 1,3,-1
 36 0 l 1,4,-1
 309 1409 l 1,5,-1
 604 1409 l 1,6,-1
 495 848 l 1,7,-1
 1121 848 l 1,8,-1
 1230 1409 l 1,9,-1
 1514 1409 l 1,10,-1
 1240 0 l 1,11,-1
 956 0 l 1,0,-1
EndSplineSet
Validated: 1
EndChar

StartChar: I
Encoding: 73 73 44
Width: 569
GlyphClass: 2
Flags: W
AnchorPoint: "Anchor21" 200 0 basechar 0
AnchorPoint: "Anchor20" 280 0 basechar 0
AnchorPoint: "Anchor18" 1479 1840 basechar 0
AnchorPoint: "Anchor19" 0 1840 basechar 0
AnchorPoint: "Anchor16" 569 1540 basechar 0
AnchorPoint: "Anchor17" 569 -380 basechar 0
AnchorPoint: "Anchor15" 530 1300 basechar 0
AnchorPoint: "Anchor14" 512 1420 basechar 0
AnchorPoint: "Anchor10" 440 1540 basechar 0
AnchorPoint: "Anchor11" 440 1540 basechar 0
AnchorPoint: "Anchor12" 280 -130 basechar 0
LayerCount: 3
Fore
SplineSet
36 0 m 1,0,-1
 309 1409 l 1,1,-1
 604 1409 l 1,2,-1
 330 0 l 1,3,-1
 36 0 l 1,0,-1
EndSplineSet
Validated: 1
EndChar

StartChar: J
Encoding: 74 74 45
Width: 1139
GlyphClass: 2
Flags: W
AnchorPoint: "Anchor21" 530 0 basechar 0
AnchorPoint: "Anchor18" 1479 1840 basechar 0
AnchorPoint: "Anchor19" 0 1840 basechar 0
AnchorPoint: "Anchor16" 1139 1540 basechar 0
AnchorPoint: "Anchor17" 1139 -380 basechar 0
AnchorPoint: "Anchor15" 1070 1300 basechar 0
AnchorPoint: "Anchor14" 1081 1420 basechar 0
AnchorPoint: "Anchor10" 860 1540 basechar 0
AnchorPoint: "Anchor11" 1000 1540 basechar 0
AnchorPoint: "Anchor12" 540 -130 basechar 0
LayerCount: 3
Fore
SplineSet
480 -20 m 0,0,1
 290 -20 290 -20 176.5 76 c 128,-1,2
 63 172 63 172 25 379 c 1,3,-1
 292 437 l 1,4,5
 338 211 338 211 499 211 c 0,6,7
 553 211 553 211 590 235 c 128,-1,8
 627 259 627 259 651 303 c 128,-1,9
 675 347 675 347 693 440 c 2,10,-1
 836 1178 l 1,11,-1
 555 1178 l 1,12,-1
 599 1409 l 1,13,-1
 1174 1409 l 1,14,-1
 981 423 l 2,15,16
 936 192 936 192 816 86 c 128,-1,17
 696 -20 696 -20 480 -20 c 0,0,1
EndSplineSet
Validated: 1
EndChar

StartChar: K
Encoding: 75 75 46
Width: 1479
GlyphClass: 2
Flags: W
AnchorPoint: "Anchor21" 1160 0 basechar 0
AnchorPoint: "Anchor20" 700 0 basechar 0
AnchorPoint: "Anchor18" 1479 1840 basechar 0
AnchorPoint: "Anchor19" 0 1840 basechar 0
AnchorPoint: "Anchor16" 1479 1540 basechar 0
AnchorPoint: "Anchor17" 1479 -380 basechar 0
AnchorPoint: "Anchor15" 1360 1340 basechar 0
AnchorPoint: "Anchor14" 1354 1420 basechar 0
AnchorPoint: "Anchor10" 820 1540 basechar 0
AnchorPoint: "Anchor11" 1330 1540 basechar 0
AnchorPoint: "Anchor12" 700 -130 basechar 0
LayerCount: 3
Fore
SplineSet
995 0 m 1,0,-1
 640 640 l 1,1,-1
 429 517 l 1,2,-1
 328 0 l 1,3,-1
 36 0 l 1,4,-1
 309 1409 l 1,5,-1
 604 1409 l 1,6,-1
 474 770 l 1,7,-1
 1234 1409 l 1,8,-1
 1603 1409 l 1,9,-1
 856 793 l 1,10,-1
 1321 0 l 1,11,-1
 995 0 l 1,0,-1
EndSplineSet
Validated: 1
EndChar

StartChar: L
Encoding: 76 76 47
Width: 1251
GlyphClass: 2
Flags: W
AnchorPoint: "Anchor21" 940 0 basechar 0
AnchorPoint: "Anchor20" 650 0 basechar 0
AnchorPoint: "Anchor18" 1479 1840 basechar 0
AnchorPoint: "Anchor19" 0 1840 basechar 0
AnchorPoint: "Anchor16" 1251 1540 basechar 0
AnchorPoint: "Anchor17" 1251 -380 basechar 0
AnchorPoint: "Anchor15" 530 1300 basechar 0
AnchorPoint: "Anchor14" 510 1420 basechar 0
AnchorPoint: "Anchor10" 780 1540 basechar 0
AnchorPoint: "Anchor11" 1100 1540 basechar 0
AnchorPoint: "Anchor12" 650 -130 basechar 0
LayerCount: 3
Fore
SplineSet
36 0 m 1,0,-1
 309 1409 l 1,1,-1
 604 1409 l 1,2,-1
 375 228 l 1,3,-1
 1131 228 l 1,4,-1
 1086 0 l 1,5,-1
 36 0 l 1,0,-1
EndSplineSet
Validated: 1
EndChar

StartChar: M
Encoding: 77 77 48
Width: 1706
GlyphClass: 2
Flags: W
AnchorPoint: "Anchor21" 1380 0 basechar 0
AnchorPoint: "Anchor18" 1479 1840 basechar 0
AnchorPoint: "Anchor19" 0 1840 basechar 0
AnchorPoint: "Anchor16" 1706 1540 basechar 0
AnchorPoint: "Anchor17" 1706 -380 basechar 0
AnchorPoint: "Anchor15" 1670 1300 basechar 0
AnchorPoint: "Anchor14" 1661 1420 basechar 0
AnchorPoint: "Anchor10" 990 1540 basechar 0
AnchorPoint: "Anchor11" 1580 1540 basechar 0
AnchorPoint: "Anchor12" 860 -130 basechar 0
LayerCount: 3
Fore
SplineSet
1206 0 m 1,0,-1
 1378 884 l 2,1,2
 1404 1014 1404 1014 1452 1206 c 1,3,-1
 1383 1055 l 2,4,5
 1304 881 1304 881 1269 816 c 1,6,-1
 857 0 l 1,7,-1
 647 0 l 1,8,-1
 553 819 l 1,9,10
 522 1110 522 1110 513 1206 c 1,11,12
 485 962 485 962 470 887 c 2,13,-1
 298 0 l 1,14,-1
 36 0 l 1,15,-1
 310 1409 l 1,16,-1
 705 1409 l 1,17,-1
 793 621 l 1,18,-1
 818 345 l 1,19,20
 854 425 854 425 885 490 c 128,-1,21
 916 555 916 555 1349 1409 c 1,22,-1
 1742 1409 l 1,23,-1
 1468 0 l 1,24,-1
 1206 0 l 1,0,-1
EndSplineSet
Validated: 1
EndChar

StartChar: N
Encoding: 78 78 49
Width: 1479
GlyphClass: 2
Flags: W
AnchorPoint: "Anchor21" 1080 0 basechar 0
AnchorPoint: "Anchor20" 730 0 basechar 0
AnchorPoint: "Anchor18" 1479 1840 basechar 0
AnchorPoint: "Anchor19" 0 1840 basechar 0
AnchorPoint: "Anchor16" 1479 1540 basechar 0
AnchorPoint: "Anchor17" 1479 -380 basechar 0
AnchorPoint: "Anchor15" 1430 1300 basechar 0
AnchorPoint: "Anchor14" 1421 1420 basechar 0
AnchorPoint: "Anchor10" 880 1540 basechar 0
AnchorPoint: "Anchor11" 1330 1540 basechar 0
AnchorPoint: "Anchor12" 730 -130 basechar 0
LayerCount: 3
Fore
SplineSet
884 0 m 1,0,-1
 510 1131 l 1,1,2
 487 969 487 969 472 892 c 2,3,-1
 298 0 l 1,4,-1
 36 0 l 1,5,-1
 310 1409 l 1,6,-1
 660 1409 l 1,7,-1
 1037 268 l 1,8,-1
 1049 350 l 1,9,10
 1060 433 1060 433 1078 524 c 2,11,-1
 1252 1409 l 1,12,-1
 1514 1409 l 1,13,-1
 1240 0 l 1,14,-1
 884 0 l 1,0,-1
EndSplineSet
Validated: 1
EndChar

StartChar: O
Encoding: 79 79 50
Width: 1593
GlyphClass: 2
Flags: W
AnchorPoint: "Anchor21" 920 0 basechar 0
AnchorPoint: "Anchor20" 800 0 basechar 0
AnchorPoint: "Anchor18" 1479 1840 basechar 0
AnchorPoint: "Anchor19" 0 1840 basechar 0
AnchorPoint: "Anchor16" 1593 1540 basechar 0
AnchorPoint: "Anchor17" 1593 -380 basechar 0
AnchorPoint: "Anchor15" 1240 1300 basechar 0
AnchorPoint: "Anchor14" 1480 1150 basechar 0
AnchorPoint: "Anchor10" 920 1540 basechar 0
AnchorPoint: "Anchor11" 1330 1540 basechar 0
AnchorPoint: "Anchor12" 800 -130 basechar 0
LayerCount: 3
Fore
SplineSet
928 1430 m 0,0,1
 1221 1430 1221 1430 1390 1274.5 c 128,-1,2
 1559 1119 1559 1119 1559 851 c 0,3,4
 1559 604 1559 604 1453.5 400.5 c 128,-1,5
 1348 197 1348 197 1159 88.5 c 128,-1,6
 970 -20 970 -20 727 -20 c 0,7,8
 534 -20 534 -20 391.5 52 c 128,-1,9
 249 124 249 124 174.5 258.5 c 128,-1,10
 100 393 100 393 100 573 c 0,11,12
 100 808 100 808 205.5 1011.5 c 128,-1,13
 311 1215 311 1215 498 1322.5 c 128,-1,14
 685 1430 685 1430 928 1430 c 0,0,1
914 1197 m 0,15,16
 752 1197 752 1197 638 1122 c 128,-1,17
 524 1047 524 1047 462 896 c 128,-1,18
 400 745 400 745 400 581 c 0,19,20
 400 397 400 397 490 304.5 c 128,-1,21
 580 212 580 212 741 212 c 256,22,23
 902 212 902 212 1016 287 c 128,-1,24
 1130 362 1130 362 1192.5 510 c 128,-1,25
 1255 658 1255 658 1255 827 c 0,26,27
 1255 1003 1255 1003 1167.5 1100 c 128,-1,28
 1080 1197 1080 1197 914 1197 c 0,15,16
EndSplineSet
Validated: 1
EndChar

StartChar: P
Encoding: 80 80 51
Width: 1366
GlyphClass: 2
Flags: W
AnchorPoint: "Anchor21" 180 0 basechar 0
AnchorPoint: "Anchor18" 1479 1840 basechar 0
AnchorPoint: "Anchor19" 0 1840 basechar 0
AnchorPoint: "Anchor16" 1366 1540 basechar 0
AnchorPoint: "Anchor17" 1366 -380 basechar 0
AnchorPoint: "Anchor15" 1130 1300 basechar 0
AnchorPoint: "Anchor14" 1293 1150 basechar 0
AnchorPoint: "Anchor10" 780 1540 basechar 0
AnchorPoint: "Anchor11" 1180 1540 basechar 0
AnchorPoint: "Anchor12" 680 -130 basechar 0
LayerCount: 3
Fore
SplineSet
850 1409 m 2,0,1
 1096 1409 1096 1409 1232.5 1297 c 128,-1,2
 1369 1185 1369 1185 1369 987 c 0,3,4
 1369 762 1369 762 1215.5 629 c 128,-1,5
 1062 496 1062 496 805 496 c 2,6,-1
 428 496 l 1,7,-1
 330 0 l 1,8,-1
 36 0 l 1,9,-1
 309 1409 l 1,10,-1
 850 1409 l 2,0,1
471 723 m 1,11,-1
 760 723 l 2,12,13
 915 723 915 723 992.5 781 c 128,-1,14
 1070 839 1070 839 1070 971 c 0,15,16
 1070 1073 1070 1073 1006 1126.5 c 128,-1,17
 942 1180 942 1180 822 1180 c 2,18,-1
 560 1180 l 1,19,-1
 471 723 l 1,11,-1
EndSplineSet
Validated: 1
EndChar

StartChar: Q
Encoding: 81 81 52
Width: 1593
GlyphClass: 2
Flags: W
AnchorPoint: "Anchor21" 640 0 basechar 0
AnchorPoint: "Anchor18" 1479 1840 basechar 0
AnchorPoint: "Anchor19" 0 1840 basechar 0
AnchorPoint: "Anchor16" 1593 1540 basechar 0
AnchorPoint: "Anchor17" 1593 -380 basechar 0
AnchorPoint: "Anchor15" 1240 1300 basechar 0
AnchorPoint: "Anchor14" 1480 1150 basechar 0
AnchorPoint: "Anchor10" 930 1540 basechar 0
AnchorPoint: "Anchor11" 1430 1540 basechar 0
AnchorPoint: "Anchor12" 600 -130 basechar 0
LayerCount: 3
Fore
SplineSet
928 1430 m 0,0,1
 1221 1430 1221 1430 1390 1274.5 c 128,-1,2
 1559 1119 1559 1119 1559 851 c 0,3,4
 1559 745 1559 745 1539 649 c 0,5,6
 1512 514 1512 514 1454.5 402.5 c 128,-1,7
 1397 291 1397 291 1313 206.5 c 128,-1,8
 1229 122 1229 122 1120.5 67.5 c 128,-1,9
 1012 13 1012 13 882 -8 c 1,10,11
 901 -106 901 -106 946.5 -150 c 128,-1,12
 992 -194 992 -194 1081 -194 c 0,13,14
 1161 -194 1161 -194 1231 -180 c 1,15,-1
 1186 -375 l 1,16,17
 1114 -400 1114 -400 1017 -400 c 0,18,19
 820 -400 820 -400 713.5 -306 c 128,-1,20
 607 -212 607 -212 584 -9 c 1,21,22
 466 10 466 10 375.5 60.5 c 128,-1,23
 285 111 285 111 223.5 186.5 c 128,-1,24
 162 262 162 262 131 360 c 128,-1,25
 100 458 100 458 100 573 c 0,26,27
 100 808 100 808 205.5 1011.5 c 128,-1,28
 311 1215 311 1215 498 1322.5 c 128,-1,29
 685 1430 685 1430 928 1430 c 0,0,1
914 1197 m 0,30,31
 752 1197 752 1197 638 1122 c 128,-1,32
 524 1047 524 1047 462 896 c 128,-1,33
 400 745 400 745 400 581 c 0,34,35
 400 397 400 397 490 304.5 c 128,-1,36
 580 212 580 212 741 212 c 256,37,38
 902 212 902 212 1016 287 c 128,-1,39
 1130 362 1130 362 1192.5 510 c 128,-1,40
 1255 658 1255 658 1255 827 c 0,41,42
 1255 1003 1255 1003 1167.5 1100 c 128,-1,43
 1080 1197 1080 1197 914 1197 c 0,30,31
EndSplineSet
Validated: 1
EndChar

StartChar: R
Encoding: 82 82 53
Width: 1479
GlyphClass: 2
Flags: W
AnchorPoint: "Anchor21" 1180 0 basechar 0
AnchorPoint: "Anchor20" 680 0 basechar 0
AnchorPoint: "Anchor18" 1479 1840 basechar 0
AnchorPoint: "Anchor19" 0 1840 basechar 0
AnchorPoint: "Anchor16" 1479 1540 basechar 0
AnchorPoint: "Anchor17" 1479 -380 basechar 0
AnchorPoint: "Anchor15" 1240 1300 basechar 0
AnchorPoint: "Anchor14" 1375 1150 basechar 0
AnchorPoint: "Anchor10" 780 1540 basechar 0
AnchorPoint: "Anchor11" 1180 1540 basechar 0
AnchorPoint: "Anchor12" 680 -130 basechar 0
LayerCount: 3
Fore
SplineSet
1010 0 m 1,0,-1
 780 534 l 1,1,-1
 434 534 l 1,2,-1
 331 0 l 1,3,-1
 36 0 l 1,4,-1
 310 1409 l 1,5,-1
 961 1409 l 2,6,7
 1120 1409 1120 1409 1233.5 1360 c 128,-1,8
 1347 1311 1347 1311 1406 1220 c 128,-1,9
 1465 1129 1465 1129 1465 1006 c 0,10,11
 1465 841 1465 841 1356.5 726 c 128,-1,12
 1248 611 1248 611 1062 583 c 1,13,-1
 1336 0 l 1,14,-1
 1010 0 l 1,0,-1
872 764 m 2,15,16
 1017 764 1017 764 1091.5 822.5 c 128,-1,17
 1166 881 1166 881 1166 989 c 0,18,19
 1166 1082 1166 1082 1102.5 1131 c 128,-1,20
 1039 1180 1039 1180 924 1180 c 2,21,-1
 560 1180 l 1,22,-1
 479 764 l 1,23,-1
 872 764 l 2,15,16
EndSplineSet
Validated: 1
EndChar

StartChar: S
Encoding: 83 83 54
Width: 1366
GlyphClass: 2
Flags: W
AnchorPoint: "Anchor21" 800 0 basechar 0
AnchorPoint: "Anchor20" 700 0 basechar 0
AnchorPoint: "Anchor18" 1479 1840 basechar 0
AnchorPoint: "Anchor19" 0 1840 basechar 0
AnchorPoint: "Anchor16" 1366 1540 basechar 0
AnchorPoint: "Anchor17" 1366 -380 basechar 0
AnchorPoint: "Anchor15" 1160 1300 basechar 0
AnchorPoint: "Anchor14" 1200 1280 basechar 0
AnchorPoint: "Anchor10" 820 1540 basechar 0
AnchorPoint: "Anchor11" 1330 1540 basechar 0
AnchorPoint: "Anchor12" 700 -130 basechar 0
LayerCount: 3
Fore
SplineSet
600 -20 m 0,0,1
 333 -20 333 -20 193 74.5 c 128,-1,2
 53 169 53 169 25 365 c 1,3,-1
 314 414 l 1,4,5
 335 303 335 303 407.5 252 c 128,-1,6
 480 201 480 201 620 201 c 0,7,8
 965 201 965 201 965 400 c 0,9,10
 965 480 965 480 905 526.5 c 128,-1,11
 845 573 845 573 667 618 c 1,12,13
 483 667 483 667 394.5 720 c 128,-1,14
 306 773 306 773 259.5 849.5 c 128,-1,15
 213 926 213 926 213 1037 c 0,16,17
 213 1214 213 1214 370 1322 c 128,-1,18
 527 1430 527 1430 786 1430 c 0,19,20
 1024 1430 1024 1430 1168 1343.5 c 128,-1,21
 1312 1257 1312 1257 1345 1091 c 1,22,-1
 1057 1024 l 1,23,24
 1035 1114 1035 1114 961.5 1167.5 c 128,-1,25
 888 1221 888 1221 770 1221 c 0,26,27
 646 1221 646 1221 575 1174.5 c 128,-1,28
 504 1128 504 1128 504 1047 c 0,29,30
 504 1000 504 1000 530 967 c 128,-1,31
 556 934 556 934 606 909.5 c 128,-1,32
 656 885 656 885 804 845 c 0,33,34
 963 801 963 801 1039 762.5 c 128,-1,35
 1115 724 1115 724 1160.5 676 c 128,-1,36
 1206 628 1206 628 1230 566 c 128,-1,37
 1254 504 1254 504 1254 423 c 0,38,39
 1254 207 1254 207 1088 93.5 c 128,-1,40
 922 -20 922 -20 600 -20 c 0,0,1
EndSplineSet
Validated: 1
EndChar

StartChar: T
Encoding: 84 84 55
Width: 1251
GlyphClass: 2
Flags: W
AnchorPoint: "Anchor21" 550 0 basechar 0
AnchorPoint: "Anchor20" 620 0 basechar 0
AnchorPoint: "Anchor18" 1479 1840 basechar 0
AnchorPoint: "Anchor19" 0 1840 basechar 0
AnchorPoint: "Anchor16" 1251 1540 basechar 0
AnchorPoint: "Anchor17" 1251 -380 basechar 0
AnchorPoint: "Anchor15" 1330 1340 basechar 0
AnchorPoint: "Anchor14" 1280 1420 basechar 0
AnchorPoint: "Anchor10" 750 1540 basechar 0
AnchorPoint: "Anchor11" 1240 1540 basechar 0
AnchorPoint: "Anchor12" 620 -130 basechar 0
LayerCount: 3
Fore
SplineSet
895 1181 m 1,0,-1
 665 0 l 1,1,-1
 370 0 l 1,2,-1
 600 1181 l 1,3,-1
 145 1181 l 1,4,-1
 189 1409 l 1,5,-1
 1395 1409 l 1,6,-1
 1351 1181 l 1,7,-1
 895 1181 l 1,0,-1
EndSplineSet
Validated: 1
EndChar

StartChar: U
Encoding: 85 85 56
Width: 1479
GlyphClass: 2
Flags: W
AnchorPoint: "Anchor21" 830 0 basechar 0
AnchorPoint: "Anchor20" 730 0 basechar 0
AnchorPoint: "Anchor18" 1479 1840 basechar 0
AnchorPoint: "Anchor19" 0 1840 basechar 0
AnchorPoint: "Anchor16" 1479 1540 basechar 0
AnchorPoint: "Anchor17" 1479 -380 basechar 0
AnchorPoint: "Anchor15" 1400 1300 basechar 0
AnchorPoint: "Anchor14" 1430 1420 basechar 0
AnchorPoint: "Anchor10" 880 1540 basechar 0
AnchorPoint: "Anchor11" 1330 1540 basechar 0
AnchorPoint: "Anchor12" 730 -130 basechar 0
LayerCount: 3
Fore
SplineSet
688 211 m 0,0,1
 853 211 853 211 938.5 287 c 128,-1,2
 1024 363 1024 363 1058 541 c 2,3,-1
 1226 1409 l 1,4,-1
 1521 1409 l 1,5,-1
 1350 530 l 2,6,7
 1295 249 1295 249 1130 114.5 c 128,-1,8
 965 -20 965 -20 672 -20 c 0,9,10
 408 -20 408 -20 263.5 97.5 c 128,-1,11
 119 215 119 215 119 431 c 0,12,13
 119 475 119 475 126.5 536.5 c 128,-1,14
 134 598 134 598 142 635 c 2,15,-1
 290 1409 l 1,16,-1
 585 1409 l 1,17,-1
 432 599 l 1,18,19
 414 512 414 512 414 427 c 0,20,21
 414 324 414 324 487 267.5 c 128,-1,22
 560 211 560 211 688 211 c 0,0,1
EndSplineSet
Validated: 1
EndChar

StartChar: V
Encoding: 86 86 57
Width: 1366
GlyphClass: 2
Flags: W
AnchorPoint: "Anchor21" 600 0 basechar 0
AnchorPoint: "Anchor18" 1479 1840 basechar 0
AnchorPoint: "Anchor19" 0 1840 basechar 0
AnchorPoint: "Anchor16" 1366 1540 basechar 0
AnchorPoint: "Anchor17" 1366 -380 basechar 0
AnchorPoint: "Anchor15" 1330 1300 basechar 0
AnchorPoint: "Anchor14" 1328 1420 basechar 0
AnchorPoint: "Anchor10" 780 1540 basechar 0
AnchorPoint: "Anchor11" 1180 1540 basechar 0
AnchorPoint: "Anchor12" 680 -130 basechar 0
LayerCount: 3
Fore
SplineSet
737 0 m 1,0,-1
 398 0 l 1,1,-1
 171 1409 l 1,2,-1
 476 1409 l 1,3,-1
 590 504 l 1,4,5
 606 357 606 357 612 238 c 1,6,7
 659 344 659 344 687.5 405 c 128,-1,8
 716 466 716 466 1201 1409 c 1,9,-1
 1509 1409 l 1,10,-1
 737 0 l 1,0,-1
EndSplineSet
Validated: 1
EndChar

StartChar: W
Encoding: 87 87 58
Width: 1933
GlyphClass: 2
Flags: W
AnchorPoint: "Anchor21" 1300 0 basechar 0
AnchorPoint: "Anchor18" 1479 1840 basechar 0
AnchorPoint: "Anchor19" 0 1840 basechar 0
AnchorPoint: "Anchor16" 1933 1540 basechar 0
AnchorPoint: "Anchor17" 1933 -380 basechar 0
AnchorPoint: "Anchor15" 1920 1300 basechar 0
AnchorPoint: "Anchor14" 1928 1420 basechar 0
AnchorPoint: "Anchor10" 1100 1540 basechar 0
AnchorPoint: "Anchor11" 1900 1540 basechar 0
AnchorPoint: "Anchor12" 970 -130 basechar 0
LayerCount: 3
Fore
SplineSet
1441 0 m 1,0,-1
 1091 0 l 1,1,-1
 1064 812 l 1,2,-1
 1060 1032 l 1,3,-1
 1059 1116 l 1,4,5
 999 956 999 956 967.5 877 c 128,-1,6
 936 798 936 798 594 0 c 1,7,-1
 239 0 l 1,8,-1
 150 1409 l 1,9,-1
 430 1409 l 1,10,-1
 466 594 l 2,11,12
 473 426 473 426 473 248 c 1,13,-1
 530 392 l 1,14,-1
 606 577 l 1,15,-1
 961 1409 l 1,16,-1
 1277 1409 l 1,17,-1
 1319 248 l 1,18,19
 1346 321 1346 321 1397.5 452.5 c 128,-1,20
 1449 584 1449 584 1788 1409 c 1,21,-1
 2079 1409 l 1,22,-1
 1441 0 l 1,0,-1
EndSplineSet
Validated: 1
EndChar

StartChar: X
Encoding: 88 88 59
Width: 1366
GlyphClass: 2
Flags: W
AnchorPoint: "Anchor21" 1100 0 basechar 0
AnchorPoint: "Anchor18" 1479 1840 basechar 0
AnchorPoint: "Anchor19" 0 1840 basechar 0
AnchorPoint: "Anchor16" 1366 1540 basechar 0
AnchorPoint: "Anchor17" 1366 -380 basechar 0
AnchorPoint: "Anchor15" 1260 1300 basechar 0
AnchorPoint: "Anchor14" 1260 1420 basechar 0
AnchorPoint: "Anchor10" 780 1540 basechar 0
AnchorPoint: "Anchor11" 1180 1540 basechar 0
AnchorPoint: "Anchor12" 680 -130 basechar 0
LayerCount: 3
Fore
SplineSet
220 1409 m 1,0,-1
 529 1409 l 1,1,-1
 753 938 l 1,2,-1
 1155 1409 l 1,3,-1
 1468 1409 l 1,4,-1
 868 732 l 1,5,-1
 1235 0 l 1,6,-1
 928 0 l 1,7,-1
 675 532 l 1,8,-1
 220 0 l 1,9,-1
 -94 0 l 1,10,-1
 558 736 l 1,11,-1
 220 1409 l 1,0,-1
EndSplineSet
Validated: 1
EndChar

StartChar: Y
Encoding: 89 89 60
Width: 1366
GlyphClass: 2
Flags: W
AnchorPoint: "Anchor21" 600 0 basechar 0
AnchorPoint: "Anchor18" 1479 1840 basechar 0
AnchorPoint: "Anchor19" 0 1840 basechar 0
AnchorPoint: "Anchor16" 1366 1540 basechar 0
AnchorPoint: "Anchor17" 1366 -380 basechar 0
AnchorPoint: "Anchor15" 1290 1300 basechar 0
AnchorPoint: "Anchor14" 1321 1420 basechar 0
AnchorPoint: "Anchor10" 780 1540 basechar 0
AnchorPoint: "Anchor11" 1180 1540 basechar 0
AnchorPoint: "Anchor12" 680 -130 basechar 0
LayerCount: 3
Fore
SplineSet
724 0 m 1,0,-1
 430 0 l 1,1,-1
 542 578 l 1,2,-1
 172 1409 l 1,3,-1
 464 1409 l 1,4,-1
 723 804 l 1,5,-1
 1197 1409 l 1,6,-1
 1520 1409 l 1,7,-1
 836 578 l 1,8,-1
 724 0 l 1,0,-1
EndSplineSet
Validated: 1
EndChar

StartChar: Z
Encoding: 90 90 61
Width: 1251
GlyphClass: 2
Flags: W
AnchorPoint: "Anchor21" 1030 0 basechar 0
AnchorPoint: "Anchor18" 1479 1840 basechar 0
AnchorPoint: "Anchor19" 0 1840 basechar 0
AnchorPoint: "Anchor16" 1251 1540 basechar 0
AnchorPoint: "Anchor17" 1251 -380 basechar 0
AnchorPoint: "Anchor15" 1230 1300 basechar 0
AnchorPoint: "Anchor14" 1262 1420 basechar 0
AnchorPoint: "Anchor10" 780 1540 basechar 0
AnchorPoint: "Anchor11" 1140 1540 basechar 0
AnchorPoint: "Anchor12" 640 -130 basechar 0
LayerCount: 3
Fore
SplineSet
1082 0 m 1,0,-1
 -48 0 l 1,1,-1
 -8 209 l 1,2,-1
 919 1178 l 1,3,-1
 256 1178 l 1,4,-1
 301 1409 l 1,5,-1
 1315 1409 l 1,6,-1
 1275 1204 l 1,7,-1
 345 231 l 1,8,-1
 1127 231 l 1,9,-1
 1082 0 l 1,0,-1
EndSplineSet
Validated: 1
EndChar

StartChar: bracketleft
Encoding: 91 91 62
Width: 682
GlyphClass: 2
Flags: W
LayerCount: 3
Fore
SplineSet
-54 -425 m 1,0,-1
 316 1484 l 1,1,-1
 858 1484 l 1,2,-1
 821 1294 l 1,3,-1
 545 1294 l 1,4,-1
 248 -234 l 1,5,-1
 524 -234 l 1,6,-1
 487 -425 l 1,7,-1
 -54 -425 l 1,0,-1
EndSplineSet
Validated: 1
EndChar

StartChar: backslash
Encoding: 92 92 63
Width: 569
GlyphClass: 2
Flags: W
LayerCount: 3
Fore
SplineSet
289 -41 m 1,0,-1
 111 1485 l 1,1,-1
 349 1485 l 1,2,-1
 532 -41 l 1,3,-1
 289 -41 l 1,0,-1
EndSplineSet
Validated: 1
EndChar

StartChar: bracketright
Encoding: 93 93 64
Width: 682
GlyphClass: 2
Flags: W
LayerCount: 3
Fore
SplineSet
-174 -425 m 1,0,-1
 -137 -234 l 1,1,-1
 140 -234 l 1,2,-1
 437 1294 l 1,3,-1
 159 1294 l 1,4,-1
 196 1484 l 1,5,-1
 738 1484 l 1,6,-1
 367 -425 l 1,7,-1
 -174 -425 l 1,0,-1
EndSplineSet
Validated: 1
EndChar

StartChar: asciicircum
Encoding: 94 94 65
Width: 1196
GlyphClass: 2
Flags: W
LayerCount: 3
Fore
SplineSet
962 514 m 1,0,-1
 636 1266 l 1,1,-1
 312 514 l 1,2,-1
 85 514 l 1,3,-1
 476 1409 l 1,4,-1
 798 1409 l 1,5,-1
 1191 514 l 1,6,-1
 962 514 l 1,0,-1
EndSplineSet
Validated: 1
EndChar

StartChar: underscore
Encoding: 95 95 66
Width: 1139
GlyphClass: 2
Flags: W
LayerCount: 3
Fore
SplineSet
-120 -250 m 1,0,-1
 -120 -172 l 1,1,-1
 1057 -172 l 1,2,-1
 1057 -250 l 1,3,-1
 -120 -250 l 1,0,-1
EndSplineSet
Validated: 1
EndChar

StartChar: grave
Encoding: 96 96 67
Width: 682
GlyphClass: 2
Flags: W
LayerCount: 3
Fore
SplineSet
596 1183 m 1,0,-1
 289 1459 l 1,1,-1
 297 1502 l 1,2,-1
 555 1502 l 1,3,-1
 750 1214 l 1,4,-1
 744 1183 l 1,5,-1
 596 1183 l 1,0,-1
EndSplineSet
Validated: 1
EndChar

StartChar: a
Encoding: 97 97 68
Width: 1139
GlyphClass: 2
Flags: W
AnchorPoint: "Anchor21" 940 0 basechar 0
AnchorPoint: "Anchor20" 500 0 basechar 0
AnchorPoint: "Anchor18" 1479 1840 basechar 0
AnchorPoint: "Anchor19" 0 1840 basechar 0
AnchorPoint: "Anchor16" 1139 1540 basechar 0
AnchorPoint: "Anchor17" 1139 -380 basechar 0
AnchorPoint: "Anchor15" 920 1000 basechar 0
AnchorPoint: "Anchor14" 950 900 basechar 0
AnchorPoint: "Anchor10" 650 1200 basechar 0
AnchorPoint: "Anchor11" 1000 1200 basechar 0
AnchorPoint: "Anchor12" 560 -130 basechar 0
LayerCount: 3
Fore
SplineSet
892 -10 m 0,0,1
 792 -10 792 -10 738 32 c 128,-1,2
 684 74 684 74 684 143 c 0,3,4
 684 180 684 180 689 207 c 1,5,-1
 683 207 l 1,6,7
 599 77 599 77 517 28.5 c 128,-1,8
 435 -20 435 -20 317 -20 c 0,9,10
 177 -20 177 -20 93.5 63.5 c 128,-1,11
 10 147 10 147 10 278 c 0,12,13
 10 463 10 463 137.5 557.5 c 128,-1,14
 265 652 265 652 551 657 c 2,15,-1
 742 660 l 1,16,17
 763 755 763 755 763 791 c 0,18,19
 763 919 763 919 636 919 c 0,20,21
 542 919 542 919 496 882.5 c 128,-1,22
 450 846 450 846 433 777 c 1,23,-1
 170 808 l 1,24,25
 204 952 204 952 323.5 1027 c 128,-1,26
 443 1102 443 1102 641 1102 c 0,27,28
 848 1102 848 1102 944.5 1029 c 128,-1,29
 1041 956 1041 956 1041 807 c 0,30,31
 1041 770 1041 770 1017 650 c 2,32,-1
 946 297 l 1,33,34
 938 252 938 252 938 225 c 0,35,36
 938 201 938 201 948 188 c 128,-1,37
 958 175 958 175 971 169 c 128,-1,38
 984 163 984 163 997 161.5 c 128,-1,39
 1010 160 1010 160 1017 160 c 0,40,41
 1047 160 1047 160 1079 167 c 1,42,-1
 1065 12 l 1,43,44
 1023 -4 1023 -4 980 -7 c 128,-1,45
 937 -10 937 -10 892 -10 c 0,0,1
711 503 m 1,46,-1
 549 503 l 1,47,48
 432 501 432 501 364.5 455 c 128,-1,49
 297 409 297 409 297 325 c 0,50,51
 297 255 297 255 336.5 215.5 c 128,-1,52
 376 176 376 176 443 176 c 0,53,54
 526 176 526 176 594 240.5 c 128,-1,55
 662 305 662 305 689 411 c 1,56,-1
 711 503 l 1,46,-1
EndSplineSet
Validated: 1
EndChar

StartChar: b
Encoding: 98 98 69
Width: 1251
GlyphClass: 2
Flags: W
AnchorPoint: "Anchor21" 680 0 basechar 0
AnchorPoint: "Anchor18" 1479 1840 basechar 0
AnchorPoint: "Anchor19" 0 1840 basechar 0
AnchorPoint: "Anchor16" 1251 1540 basechar 0
AnchorPoint: "Anchor17" 1251 -380 basechar 0
AnchorPoint: "Anchor15" 1080 1000 basechar 0
AnchorPoint: "Anchor14" 1120 900 basechar 0
AnchorPoint: "Anchor10" 780 1540 basechar 0
AnchorPoint: "Anchor11" 1180 1540 basechar 0
AnchorPoint: "Anchor12" 680 -130 basechar 0
LayerCount: 3
Fore
SplineSet
855 1102 m 0,0,1
 1014 1102 1014 1102 1103 1007.5 c 128,-1,2
 1192 913 1192 913 1192 748 c 2,3,-1
 1192 734 l 2,4,5
 1192 546 1192 546 1130 354.5 c 128,-1,6
 1068 163 1068 163 955.5 71.5 c 128,-1,7
 843 -20 843 -20 669 -20 c 0,8,9
 544 -20 544 -20 466 32 c 128,-1,10
 388 84 388 84 356 178 c 1,11,-1
 354 178 l 1,12,-1
 326 67 l 1,13,-1
 306 0 l 1,14,-1
 35 0 l 1,15,16
 40 15 40 15 54.5 82 c 128,-1,17
 69 149 69 149 84 223 c 2,18,-1
 330 1484 l 1,19,-1
 611 1484 l 1,20,-1
 527 1057 l 2,21,22
 499 913 499 913 495 913 c 2,23,-1
 499 913 l 1,24,25
 555 997 555 997 644.5 1049.5 c 128,-1,26
 734 1102 734 1102 855 1102 c 0,0,1
735 907 m 0,27,28
 609 907 609 907 533.5 819 c 128,-1,29
 458 731 458 731 424 554 c 0,30,31
 407 461 407 461 407 401 c 0,32,33
 407 294 407 294 460 233.5 c 128,-1,34
 513 173 513 173 608 173 c 0,35,36
 709 173 709 173 766 235.5 c 128,-1,37
 823 298 823 298 861 447.5 c 128,-1,38
 899 597 899 597 899 694 c 0,39,40
 899 799 899 799 863.5 853 c 128,-1,41
 828 907 828 907 735 907 c 0,27,28
EndSplineSet
Validated: 1
EndChar

StartChar: c
Encoding: 99 99 70
Width: 1139
GlyphClass: 2
Flags: W
AnchorPoint: "Anchor21" 580 0 basechar 0
AnchorPoint: "Anchor20" 600 0 basechar 0
AnchorPoint: "Anchor18" 1479 1840 basechar 0
AnchorPoint: "Anchor19" 0 1840 basechar 0
AnchorPoint: "Anchor16" 1139 1540 basechar 0
AnchorPoint: "Anchor17" 1139 -380 basechar 0
AnchorPoint: "Anchor15" 900 1000 basechar 0
AnchorPoint: "Anchor14" 900 940 basechar 0
AnchorPoint: "Anchor10" 930 1540 basechar 0
AnchorPoint: "Anchor11" 1430 1540 basechar 0
AnchorPoint: "Anchor12" 600 -130 basechar 0
LayerCount: 3
Fore
SplineSet
536 173 m 0,0,1
 619 173 619 173 673 225.5 c 128,-1,2
 727 278 727 278 759 381 c 1,3,-1
 1030 331 l 1,4,5
 923 -20 923 -20 520 -20 c 0,6,7
 300 -20 300 -20 181.5 92.5 c 128,-1,8
 63 205 63 205 63 405 c 0,9,10
 63 600 63 600 142 771 c 128,-1,11
 221 942 221 942 352.5 1022 c 128,-1,12
 484 1102 484 1102 680 1102 c 0,13,14
 869 1102 869 1102 982 1006.5 c 128,-1,15
 1095 911 1095 911 1109 741 c 1,16,-1
 825 718 l 1,17,18
 814 909 814 909 658 909 c 0,19,20
 551 909 551 909 490.5 835.5 c 128,-1,21
 430 762 430 762 381 575 c 1,22,23
 358 460 358 460 358 407 c 0,24,25
 358 173 358 173 536 173 c 0,0,1
EndSplineSet
Validated: 1
EndChar

StartChar: d
Encoding: 100 100 71
Width: 1251
GlyphClass: 2
Flags: W
AnchorPoint: "Anchor21" 920 0 basechar 0
AnchorPoint: "Anchor18" 1479 1840 basechar 0
AnchorPoint: "Anchor19" 0 1840 basechar 0
AnchorPoint: "Anchor16" 1251 1540 basechar 0
AnchorPoint: "Anchor17" 1251 -380 basechar 0
AnchorPoint: "Anchor15" 1180 1300 basechar 0
AnchorPoint: "Anchor14" 1200 1500 basechar 0
AnchorPoint: "Anchor10" 730 1540 basechar 0
AnchorPoint: "Anchor11" 1120 1540 basechar 0
AnchorPoint: "Anchor12" 580 -130 basechar 0
LayerCount: 3
Fore
SplineSet
749 160 m 1,0,1
 678 67 678 67 595.5 23 c 128,-1,2
 513 -21 513 -21 392 -21 c 0,3,4
 238 -21 238 -21 148 81 c 128,-1,5
 58 183 58 183 58 354 c 0,6,7
 58 545 58 545 122 728 c 128,-1,8
 186 911 186 911 301.5 1006.5 c 128,-1,9
 417 1102 417 1102 580 1102 c 0,10,11
 836 1102 836 1102 894 904 c 1,12,-1
 899 904 l 1,13,14
 901 924 901 924 907 964 c 128,-1,15
 913 1004 913 1004 925 1066 c 2,16,-1
 1009 1484 l 1,17,-1
 1286 1484 l 1,18,-1
 1048 231 l 1,19,20
 1028 119 1028 119 1019 0 c 1,21,-1
 738 0 l 1,22,23
 738 63 738 63 753 160 c 1,24,-1
 749 160 l 1,0,1
515 172 m 0,25,26
 596 172 596 172 654 206.5 c 128,-1,27
 712 241 712 241 753 312.5 c 128,-1,28
 794 384 794 384 818 492 c 128,-1,29
 842 600 842 600 842 681 c 0,30,31
 842 801 842 801 795 855.5 c 128,-1,32
 748 910 748 910 654 910 c 0,33,34
 552 910 552 910 487.5 841 c 128,-1,35
 423 772 423 772 389 639 c 128,-1,36
 355 506 355 506 355 393 c 0,37,38
 355 172 355 172 515 172 c 0,25,26
EndSplineSet
Validated: 1
EndChar

StartChar: e
Encoding: 101 101 72
Width: 1139
GlyphClass: 2
Flags: W
AnchorPoint: "Anchor21" 680 0 basechar 0
AnchorPoint: "Anchor20" 580 0 basechar 0
AnchorPoint: "Anchor18" 1479 1840 basechar 0
AnchorPoint: "Anchor19" 0 1840 basechar 0
AnchorPoint: "Anchor16" 1139 1540 basechar 0
AnchorPoint: "Anchor17" 1139 -380 basechar 0
AnchorPoint: "Anchor15" 900 1000 basechar 0
AnchorPoint: "Anchor14" 1020 900 basechar 0
AnchorPoint: "Anchor10" 730 1540 basechar 0
AnchorPoint: "Anchor11" 1120 1540 basechar 0
AnchorPoint: "Anchor12" 580 -130 basechar 0
LayerCount: 3
Fore
SplineSet
358 476 m 1,0,1
 351 438 351 438 351 387 c 0,2,3
 351 281 351 281 397.5 224.5 c 128,-1,4
 444 168 444 168 535 168 c 0,5,6
 682 168 682 168 748 337 c 1,7,-1
 993 263 l 1,8,9
 918 104 918 104 807 42 c 128,-1,10
 696 -20 696 -20 516 -20 c 0,11,12
 303 -20 303 -20 183 95.5 c 128,-1,13
 63 211 63 211 63 418 c 256,14,15
 63 625 63 625 135 780.5 c 128,-1,16
 207 936 207 936 339.5 1019 c 128,-1,17
 472 1102 472 1102 646 1102 c 0,18,19
 855 1102 855 1102 968.5 994.5 c 128,-1,20
 1082 887 1082 887 1082 691 c 0,21,22
 1082 592 1082 592 1058 476 c 1,23,-1
 358 476 l 1,0,1
822 663 m 1,24,-1
 825 719 l 1,25,26
 825 826 825 826 775.5 875 c 128,-1,27
 726 924 726 924 646 924 c 0,28,29
 550 924 550 924 484.5 857.5 c 128,-1,30
 419 791 419 791 391 663 c 1,31,-1
 822 663 l 1,24,-1
EndSplineSet
Validated: 1
EndChar

StartChar: f
Encoding: 102 102 73
Width: 682
GlyphClass: 2
Flags: W
AnchorPoint: "Anchor21" 280 0 basechar 0
AnchorPoint: "Anchor18" 1479 1840 basechar 0
AnchorPoint: "Anchor19" 0 1840 basechar 0
AnchorPoint: "Anchor16" 682 1540 basechar 0
AnchorPoint: "Anchor17" 682 -380 basechar 0
AnchorPoint: "Anchor15" 810 1440 basechar 0
AnchorPoint: "Anchor14" 780 1500 basechar 0
AnchorPoint: "Anchor10" 600 1580 basechar 0
AnchorPoint: "Anchor11" 700 1540 basechar 0
AnchorPoint: "Anchor12" 340 -130 basechar 0
LayerCount: 3
Fore
SplineSet
528 892 m 1,0,-1
 354 0 l 1,1,-1
 74 0 l 1,2,-1
 248 892 l 1,3,-1
 90 892 l 1,4,-1
 127 1082 l 1,5,-1
 285 1082 l 1,6,-1
 307 1195 l 2,7,8
 337 1350 337 1350 431.5 1417 c 128,-1,9
 526 1484 526 1484 698 1484 c 0,10,11
 771 1484 771 1484 853 1467 c 1,12,-1
 817 1286 l 1,13,14
 806 1288 806 1288 774 1292 c 128,-1,15
 742 1296 742 1296 721 1296 c 0,16,17
 654 1296 654 1296 624 1264 c 128,-1,18
 594 1232 594 1232 581 1167 c 2,19,-1
 565 1082 l 1,20,-1
 778 1082 l 1,21,-1
 741 892 l 1,22,-1
 528 892 l 1,0,-1
EndSplineSet
Validated: 1
EndChar

StartChar: g
Encoding: 103 103 74
Width: 1251
GlyphClass: 2
Flags: W
AnchorPoint: "Anchor21" 660 -400 basechar 0
AnchorPoint: "Anchor20" 600 -420 basechar 0
AnchorPoint: "Anchor18" 1479 1840 basechar 0
AnchorPoint: "Anchor19" 0 1840 basechar 0
AnchorPoint: "Anchor16" 1251 1540 basechar 0
AnchorPoint: "Anchor17" 1251 -380 basechar 0
AnchorPoint: "Anchor15" 1120 1000 basechar 0
AnchorPoint: "Anchor14" 1080 1100 basechar 0
AnchorPoint: "Anchor10" 680 1200 basechar 0
AnchorPoint: "Anchor11" 1120 1200 basechar 0
AnchorPoint: "Anchor12" 580 -540 basechar 0
LayerCount: 3
Fore
SplineSet
431 -425 m 0,0,1
 232 -425 232 -425 125 -356 c 128,-1,2
 18 -287 18 -287 -7 -142 c 1,3,-1
 276 -112 l 1,4,5
 303 -239 303 -239 464 -239 c 0,6,7
 574 -239 574 -239 635 -180 c 128,-1,8
 696 -121 696 -121 730 27 c 1,9,10
 750 123 750 123 761 201 c 1,11,-1
 759 201 l 1,12,13
 696 112 696 112 648.5 73 c 128,-1,14
 601 34 601 34 541.5 13 c 128,-1,15
 482 -8 482 -8 405 -8 c 0,16,17
 250 -8 250 -8 157.5 92 c 128,-1,18
 65 192 65 192 65 356 c 0,19,20
 65 557 65 557 128.5 741.5 c 128,-1,21
 192 926 192 926 303.5 1013.5 c 128,-1,22
 415 1101 415 1101 586 1101 c 0,23,24
 704 1101 704 1101 789 1045 c 128,-1,25
 874 989 874 989 901 893 c 1,26,-1
 903 893 l 1,27,28
 909 922 909 922 927.5 998 c 128,-1,29
 946 1074 946 1074 951 1082 c 1,30,-1
 1216 1082 l 1,31,-1
 1197 999 l 1,32,-1
 1167 853 l 1,33,-1
 1002 10 l 1,34,35
 955 -223 955 -223 820 -324 c 128,-1,36
 685 -425 685 -425 431 -425 c 0,0,1
846 686 m 0,37,38
 846 790 846 790 794 849.5 c 128,-1,39
 742 909 742 909 648 909 c 0,40,41
 572 909 572 909 522.5 877 c 128,-1,42
 473 845 473 845 438.5 773.5 c 128,-1,43
 404 702 404 702 381.5 585.5 c 128,-1,44
 359 469 359 469 359 396 c 0,45,46
 359 197 359 197 532 197 c 0,47,48
 621 197 621 197 694 264 c 128,-1,49
 767 331 767 331 806.5 446.5 c 128,-1,50
 846 562 846 562 846 686 c 0,37,38
EndSplineSet
Validated: 1
EndChar

StartChar: h
Encoding: 104 104 75
Width: 1251
GlyphClass: 2
Flags: W
AnchorPoint: "Anchor21" 920 0 basechar 0
AnchorPoint: "Anchor18" 1479 1840 basechar 0
AnchorPoint: "Anchor19" 0 1840 basechar 0
AnchorPoint: "Anchor16" 1251 1540 basechar 0
AnchorPoint: "Anchor17" 1251 -380 basechar 0
AnchorPoint: "Anchor15" 1040 1000 basechar 0
AnchorPoint: "Anchor14" 1080 900 basechar 0
AnchorPoint: "Anchor10" 780 1540 basechar 0
AnchorPoint: "Anchor11" 1140 1540 basechar 0
AnchorPoint: "Anchor12" 640 -130 basechar 0
LayerCount: 3
Fore
SplineSet
601 1484 m 1,0,-1
 522 1079 l 1,1,-1
 483 897 l 1,2,-1
 486 897 l 1,3,4
 561 1001 561 1001 651.5 1051 c 128,-1,5
 742 1101 742 1101 859 1101 c 0,6,7
 1011 1101 1011 1101 1088 1028 c 128,-1,8
 1165 955 1165 955 1165 817 c 0,9,10
 1165 792 1165 792 1158 737.5 c 128,-1,11
 1151 683 1151 683 1144 653 c 1,12,-1
 1017 0 l 1,13,-1
 738 0 l 1,14,-1
 856 595 l 1,15,16
 882 719 882 719 882 760 c 0,17,18
 882 889 882 889 730 889 c 0,19,20
 629 889 629 889 543 807 c 128,-1,21
 457 725 457 725 435 606 c 1,22,-1
 317 0 l 1,23,-1
 35 0 l 1,24,-1
 321 1484 l 1,25,-1
 601 1484 l 1,0,-1
EndSplineSet
Validated: 1
EndChar

StartChar: i
Encoding: 105 105 76
Width: 569
GlyphClass: 2
Flags: W
AnchorPoint: "Anchor21" 200 0 basechar 0
AnchorPoint: "Anchor20" 280 0 basechar 0
AnchorPoint: "Anchor18" 1479 1840 basechar 0
AnchorPoint: "Anchor19" 0 1840 basechar 0
AnchorPoint: "Anchor16" 569 1540 basechar 0
AnchorPoint: "Anchor17" 569 -380 basechar 0
AnchorPoint: "Anchor15" 480 1000 basechar 0
AnchorPoint: "Anchor14" 410 1100 basechar 0
AnchorPoint: "Anchor10" 440 1540 basechar 0
AnchorPoint: "Anchor11" 440 1540 basechar 0
AnchorPoint: "Anchor12" 280 -130 basechar 0
LayerCount: 3
Fore
SplineSet
282 1277 m 1,0,-1
 323 1484 l 1,1,-1
 604 1484 l 1,2,-1
 563 1277 l 1,3,-1
 282 1277 l 1,0,-1
35 0 m 1,4,-1
 245 1082 l 1,5,-1
 526 1082 l 1,6,-1
 315 0 l 1,7,-1
 35 0 l 1,4,-1
EndSplineSet
Validated: 1
EndChar

StartChar: j
Encoding: 106 106 77
Width: 569
GlyphClass: 2
Flags: W
AnchorPoint: "Anchor21" 130 -400 basechar 0
AnchorPoint: "Anchor18" 1479 1840 basechar 0
AnchorPoint: "Anchor19" 0 1840 basechar 0
AnchorPoint: "Anchor16" 569 1540 basechar 0
AnchorPoint: "Anchor17" 569 -380 basechar 0
AnchorPoint: "Anchor15" 480 1000 basechar 0
AnchorPoint: "Anchor14" 410 1100 basechar 0
AnchorPoint: "Anchor10" 440 1580 basechar 0
AnchorPoint: "Anchor11" 460 1540 basechar 0
AnchorPoint: "Anchor12" 200 -540 basechar 0
LayerCount: 3
Fore
SplineSet
283 1277 m 1,0,-1
 323 1484 l 1,1,-1
 604 1484 l 1,2,-1
 564 1277 l 1,3,-1
 283 1277 l 1,0,-1
-54 -425 m 0,4,5
 -149 -425 -149 -425 -220 -406 c 1,6,-1
 -184 -218 l 1,7,-1
 -126 -222 l 1,8,9
 -59 -222 -59 -222 -27.5 -187.5 c 128,-1,10
 4 -153 4 -153 22 -60 c 2,11,-1
 245 1082 l 1,12,-1
 526 1082 l 1,13,-1
 290 -128 l 2,14,15
 261 -272 261 -272 173.5 -348.5 c 128,-1,16
 86 -425 86 -425 -54 -425 c 0,4,5
EndSplineSet
Validated: 1
EndChar

StartChar: k
Encoding: 107 107 78
Width: 1139
GlyphClass: 2
Flags: W
AnchorPoint: "Anchor21" 900 0 basechar 0
AnchorPoint: "Anchor20" 580 0 basechar 0
AnchorPoint: "Anchor18" 1479 1840 basechar 0
AnchorPoint: "Anchor19" 0 1840 basechar 0
AnchorPoint: "Anchor16" 1139 1540 basechar 0
AnchorPoint: "Anchor17" 1139 -380 basechar 0
AnchorPoint: "Anchor15" 1000 1000 basechar 0
AnchorPoint: "Anchor14" 940 1100 basechar 0
AnchorPoint: "Anchor10" 730 1540 basechar 0
AnchorPoint: "Anchor11" 1120 1540 basechar 0
AnchorPoint: "Anchor12" 580 -130 basechar 0
LayerCount: 3
Fore
SplineSet
728 0 m 1,0,-1
 540 497 l 1,1,-1
 400 422 l 1,2,-1
 315 0 l 1,3,-1
 35 0 l 1,4,-1
 323 1484 l 1,5,-1
 604 1484 l 1,6,-1
 437 634 l 1,7,-1
 902 1082 l 1,8,-1
 1224 1082 l 1,9,-1
 751 660 l 1,10,-1
 1026 0 l 1,11,-1
 728 0 l 1,0,-1
EndSplineSet
Validated: 1
EndChar

StartChar: l
Encoding: 108 108 79
Width: 569
GlyphClass: 2
Flags: W
AnchorPoint: "Anchor21" 200 0 basechar 0
AnchorPoint: "Anchor20" 280 0 basechar 0
AnchorPoint: "Anchor18" 1479 1840 basechar 0
AnchorPoint: "Anchor19" 0 1840 basechar 0
AnchorPoint: "Anchor16" 569 1540 basechar 0
AnchorPoint: "Anchor17" 569 -380 basechar 0
AnchorPoint: "Anchor15" 520 1300 basechar 0
AnchorPoint: "Anchor14" 520 1500 basechar 0
AnchorPoint: "Anchor10" 440 1540 basechar 0
AnchorPoint: "Anchor11" 440 1540 basechar 0
AnchorPoint: "Anchor12" 280 -130 basechar 0
LayerCount: 3
Fore
SplineSet
35 0 m 1,0,-1
 323 1484 l 1,1,-1
 604 1484 l 1,2,-1
 315 0 l 1,3,-1
 35 0 l 1,0,-1
EndSplineSet
Validated: 1
EndChar

StartChar: m
Encoding: 109 109 80
Width: 1821
GlyphClass: 2
Flags: W
AnchorPoint: "Anchor21" 1480 0 basechar 0
AnchorPoint: "Anchor18" 1479 1840 basechar 0
AnchorPoint: "Anchor19" 0 1840 basechar 0
AnchorPoint: "Anchor16" 1821 1540 basechar 0
AnchorPoint: "Anchor17" 1821 -380 basechar 0
AnchorPoint: "Anchor15" 1620 1000 basechar 0
AnchorPoint: "Anchor14" 1680 900 basechar 0
AnchorPoint: "Anchor10" 1020 1200 basechar 0
AnchorPoint: "Anchor11" 1700 1200 basechar 0
AnchorPoint: "Anchor12" 920 -130 basechar 0
LayerCount: 3
Fore
SplineSet
1322 892 m 0,0,1
 1231 892 1231 892 1164 815 c 128,-1,2
 1097 738 1097 738 1071 607 c 2,3,-1
 952 0 l 1,4,-1
 673 0 l 1,5,-1
 796 635 l 2,6,7
 813 726 813 726 813 771 c 0,8,9
 813 892 813 892 687 892 c 0,10,11
 599 892 599 892 530.5 816.5 c 128,-1,12
 462 741 462 741 435 604 c 2,13,-1
 317 0 l 1,14,-1
 35 0 l 1,15,-1
 201 851 l 1,16,17
 221 946 221 946 240 1082 c 1,18,-1
 512 1082 l 1,19,20
 512 1071 512 1071 501.5 1004.5 c 128,-1,21
 491 938 491 938 484 897 c 1,22,-1
 487 897 l 1,23,24
 564 1013 564 1013 638.5 1057 c 128,-1,25
 713 1101 713 1101 815 1101 c 0,26,27
 939 1101 939 1101 1011 1041.5 c 128,-1,28
 1083 982 1083 982 1097 869 c 1,29,30
 1177 994 1177 994 1259.5 1047.5 c 128,-1,31
 1342 1101 1342 1101 1451 1101 c 0,32,33
 1589 1101 1589 1101 1662.5 1028 c 128,-1,34
 1736 955 1736 955 1736 817 c 0,35,36
 1736 753 1736 753 1715 653 c 1,37,-1
 1587 0 l 1,38,-1
 1308 0 l 1,39,-1
 1430 627 l 2,40,41
 1448 717 1448 717 1448 766 c 2,42,-1
 1448 771 l 1,43,44
 1445 892 1445 892 1322 892 c 0,0,1
EndSplineSet
Validated: 1
EndChar

StartChar: n
Encoding: 110 110 81
Width: 1251
GlyphClass: 2
Flags: W
AnchorPoint: "Anchor21" 920 0 basechar 0
AnchorPoint: "Anchor20" 630 0 basechar 0
AnchorPoint: "Anchor18" 1479 1840 basechar 0
AnchorPoint: "Anchor19" 0 1840 basechar 0
AnchorPoint: "Anchor16" 1251 1540 basechar 0
AnchorPoint: "Anchor17" 1251 -380 basechar 0
AnchorPoint: "Anchor15" 1030 1000 basechar 0
AnchorPoint: "Anchor14" 1080 900 basechar 0
AnchorPoint: "Anchor10" 750 1540 basechar 0
AnchorPoint: "Anchor11" 1240 1540 basechar 0
AnchorPoint: "Anchor12" 620 -130 basechar 0
LayerCount: 3
Fore
SplineSet
738 0 m 1,0,-1
 856 595 l 1,1,2
 882 719 882 719 882 760 c 0,3,4
 882 889 882 889 730 889 c 0,5,6
 629 889 629 889 543 807 c 128,-1,7
 457 725 457 725 435 606 c 1,8,-1
 317 0 l 1,9,-1
 35 0 l 1,10,-1
 201 851 l 2,11,12
 217 930 217 930 239 1082 c 1,13,-1
 507 1082 l 1,14,15
 507 1073 507 1073 497.5 998 c 128,-1,16
 488 923 488 923 483 897 c 1,17,-1
 486 897 l 1,18,19
 561 1001 561 1001 651.5 1051 c 128,-1,20
 742 1101 742 1101 859 1101 c 0,21,22
 1011 1101 1011 1101 1088 1028 c 128,-1,23
 1165 955 1165 955 1165 817 c 0,24,25
 1165 792 1165 792 1158 737.5 c 128,-1,26
 1151 683 1151 683 1144 653 c 1,27,-1
 1017 0 l 1,28,-1
 738 0 l 1,0,-1
EndSplineSet
Validated: 1
EndChar

StartChar: o
Encoding: 111 111 82
Width: 1251
GlyphClass: 2
Flags: W
AnchorPoint: "Anchor21" 680 0 basechar 0
AnchorPoint: "Anchor20" 630 0 basechar 0
AnchorPoint: "Anchor18" 1479 1840 basechar 0
AnchorPoint: "Anchor19" 0 1840 basechar 0
AnchorPoint: "Anchor16" 1251 1540 basechar 0
AnchorPoint: "Anchor17" 1251 -380 basechar 0
AnchorPoint: "Anchor15" 980 1000 basechar 0
AnchorPoint: "Anchor14" 1120 900 basechar 0
AnchorPoint: "Anchor10" 720 1200 basechar 0
AnchorPoint: "Anchor11" 1120 1200 basechar 0
AnchorPoint: "Anchor12" 630 -130 basechar 0
LayerCount: 3
Fore
SplineSet
1185 683 m 0,0,1
 1185 476 1185 476 1103.5 315 c 128,-1,2
 1022 154 1022 154 872.5 67 c 128,-1,3
 723 -20 723 -20 535 -20 c 0,4,5
 317 -20 317 -20 190 97.5 c 128,-1,6
 63 215 63 215 63 419 c 0,7,8
 63 620 63 620 142.5 775 c 128,-1,9
 222 930 222 930 369 1015.5 c 128,-1,10
 516 1101 516 1101 704 1101 c 0,11,12
 939 1101 939 1101 1062 991.5 c 128,-1,13
 1185 882 1185 882 1185 683 c 0,0,1
891 662 m 1,14,15
 891 909 891 909 683 909 c 0,16,17
 569 909 569 909 501.5 849 c 128,-1,18
 434 789 434 789 396 666.5 c 128,-1,19
 358 544 358 544 358 431 c 0,20,21
 358 172 358 172 566 172 c 0,22,23
 678 172 678 172 743.5 228.5 c 128,-1,24
 809 285 809 285 846.5 400 c 128,-1,25
 884 515 884 515 891 662 c 1,14,15
EndSplineSet
Validated: 1
EndChar

StartChar: p
Encoding: 112 112 83
Width: 1251
GlyphClass: 2
Flags: W
AnchorPoint: "Anchor21" 160 -400 basechar 0
AnchorPoint: "Anchor18" 1479 1840 basechar 0
AnchorPoint: "Anchor19" 0 1840 basechar 0
AnchorPoint: "Anchor16" 1251 1540 basechar 0
AnchorPoint: "Anchor17" 1251 -380 basechar 0
AnchorPoint: "Anchor15" 1020 1000 basechar 0
AnchorPoint: "Anchor14" 1120 900 basechar 0
AnchorPoint: "Anchor10" 740 1200 basechar 0
AnchorPoint: "Anchor11" 1120 1200 basechar 0
AnchorPoint: "Anchor12" 680 -540 basechar 0
LayerCount: 3
Fore
SplineSet
728 907 m 0,0,1
 602 907 602 907 526.5 819 c 128,-1,2
 451 731 451 731 417 554 c 0,3,4
 400 461 400 461 400 401 c 0,5,6
 400 294 400 294 453 233.5 c 128,-1,7
 506 173 506 173 601 173 c 0,8,9
 703 173 703 173 762 237 c 128,-1,10
 821 301 821 301 855 443 c 128,-1,11
 889 585 889 585 889 694 c 0,12,13
 889 800 889 800 850.5 853.5 c 128,-1,14
 812 907 812 907 728 907 c 0,0,1
493 913 m 1,15,16
 565 1013 565 1013 647.5 1057.5 c 128,-1,17
 730 1102 730 1102 848 1102 c 0,18,19
 1007 1102 1007 1102 1096 1007.5 c 128,-1,20
 1185 913 1185 913 1185 748 c 0,21,22
 1185 546 1185 546 1123 354.5 c 128,-1,23
 1061 163 1061 163 948.5 71.5 c 128,-1,24
 836 -20 836 -20 662 -20 c 0,25,26
 537 -20 537 -20 459 32 c 128,-1,27
 381 84 381 84 349 178 c 1,28,-1
 347 178 l 1,29,30
 340 116 340 116 315 -10 c 2,31,-1
 235 -425 l 1,32,-1
 -45 -425 l 1,33,-1
 198 833 l 1,34,-1
 218 943 l 1,35,-1
 237 1082 l 1,36,-1
 512 1082 l 1,37,38
 512 1068 512 1068 504.5 1004.5 c 128,-1,39
 497 941 497 941 489 913 c 1,40,-1
 493 913 l 1,15,16
EndSplineSet
Validated: 1
EndChar

StartChar: q
Encoding: 113 113 84
Width: 1251
GlyphClass: 2
Flags: W
AnchorPoint: "Anchor21" 860 -400 basechar 0
AnchorPoint: "Anchor18" 1479 1840 basechar 0
AnchorPoint: "Anchor19" 0 1840 basechar 0
AnchorPoint: "Anchor16" 1251 1540 basechar 0
AnchorPoint: "Anchor17" 1251 -380 basechar 0
AnchorPoint: "Anchor15" 1120 1000 basechar 0
AnchorPoint: "Anchor14" 1100 1100 basechar 0
AnchorPoint: "Anchor10" 740 1200 basechar 0
AnchorPoint: "Anchor11" 1120 1200 basechar 0
AnchorPoint: "Anchor12" 560 -540 basechar 0
LayerCount: 3
Fore
SplineSet
898 903 m 1,0,1
 923 1026 923 1026 945 1082 c 1,2,-1
 1215 1082 l 1,3,4
 1207 1055 1207 1055 1185 949 c 128,-1,5
 1163 843 1163 843 918 -425 c 1,6,-1
 637 -425 l 1,7,-1
 722 7 l 1,8,-1
 758 163 l 1,9,-1
 754 163 l 1,10,11
 679 65 679 65 594.5 22 c 128,-1,12
 510 -21 510 -21 394 -21 c 0,13,14
 242 -21 242 -21 150.5 77 c 128,-1,15
 59 175 59 175 59 348 c 0,16,17
 59 544 59 544 123 727 c 128,-1,18
 187 910 187 910 303 1006 c 128,-1,19
 419 1102 419 1102 580 1102 c 0,20,21
 710 1102 710 1102 781 1056.5 c 128,-1,22
 852 1011 852 1011 893 903 c 1,23,-1
 898 903 l 1,0,1
518 172 m 0,24,25
 645 172 645 172 720 260.5 c 128,-1,26
 795 349 795 349 827 527 c 0,27,28
 843 615 843 615 843 680 c 0,29,30
 843 910 843 910 669 910 c 0,31,32
 559 910 559 910 493 845.5 c 128,-1,33
 427 781 427 781 391.5 645 c 128,-1,34
 356 509 356 509 356 386 c 0,35,36
 356 282 356 282 396.5 227 c 128,-1,37
 437 172 437 172 518 172 c 0,24,25
EndSplineSet
Validated: 1
EndChar

StartChar: r
Encoding: 114 114 85
Width: 797
GlyphClass: 2
Flags: W
AnchorPoint: "Anchor21" 200 0 basechar 0
AnchorPoint: "Anchor20" 280 0 basechar 0
AnchorPoint: "Anchor18" 1479 1840 basechar 0
AnchorPoint: "Anchor19" 0 1840 basechar 0
AnchorPoint: "Anchor16" 797 1540 basechar 0
AnchorPoint: "Anchor17" 797 -380 basechar 0
AnchorPoint: "Anchor15" 850 1000 basechar 0
AnchorPoint: "Anchor14" 800 1100 basechar 0
AnchorPoint: "Anchor10" 440 1540 basechar 0
AnchorPoint: "Anchor11" 440 1540 basechar 0
AnchorPoint: "Anchor12" 280 -130 basechar 0
LayerCount: 3
Fore
SplineSet
844 853 m 1,0,1
 775 868 775 868 730 868 c 0,2,3
 607 868 607 868 529.5 781 c 128,-1,4
 452 694 452 694 417 514 c 2,5,-1
 316 0 l 1,6,-1
 35 0 l 1,7,-1
 196 830 l 2,8,9
 220 950 220 950 238 1082 c 1,10,-1
 506 1082 l 1,11,-1
 484 910 l 1,12,-1
 476 861 l 1,13,-1
 480 861 l 1,14,15
 553 995 553 995 624 1048.5 c 128,-1,16
 695 1102 695 1102 787 1102 c 0,17,18
 834 1102 834 1102 890 1088 c 1,19,-1
 844 853 l 1,0,1
EndSplineSet
Validated: 1
EndChar

StartChar: s
Encoding: 115 115 86
Width: 1139
GlyphClass: 2
Flags: W
AnchorPoint: "Anchor21" 550 0 basechar 0
AnchorPoint: "Anchor20" 580 0 basechar 0
AnchorPoint: "Anchor18" 1479 1840 basechar 0
AnchorPoint: "Anchor19" 0 1840 basechar 0
AnchorPoint: "Anchor16" 1139 1540 basechar 0
AnchorPoint: "Anchor17" 1139 -380 basechar 0
AnchorPoint: "Anchor15" 900 1000 basechar 0
AnchorPoint: "Anchor14" 960 1020 basechar 0
AnchorPoint: "Anchor10" 730 1540 basechar 0
AnchorPoint: "Anchor11" 1120 1540 basechar 0
AnchorPoint: "Anchor12" 580 -130 basechar 0
LayerCount: 3
Fore
SplineSet
1000 334 m 0,0,1
 1000 160 1000 160 871.5 70 c 128,-1,2
 743 -20 743 -20 497 -20 c 0,3,4
 296 -20 296 -20 180 51 c 128,-1,5
 64 122 64 122 23 271 c 1,6,-1
 274 307 l 1,7,8
 295 232 295 232 351 199 c 128,-1,9
 407 166 407 166 517 166 c 0,10,11
 626 166 626 166 682.5 201 c 128,-1,12
 739 236 739 236 739 302 c 0,13,14
 739 354 739 354 697.5 381.5 c 128,-1,15
 656 409 656 409 515 439 c 1,16,17
 316 484 316 484 234.5 563.5 c 128,-1,18
 153 643 153 643 153 769 c 0,19,20
 153 929 153 929 278.5 1014 c 128,-1,21
 404 1099 404 1099 637 1099 c 0,22,23
 843 1099 843 1099 944 1028.5 c 128,-1,24
 1045 958 1045 958 1069 811 c 1,25,-1
 818 782 l 1,26,27
 801 851 801 851 752 882 c 128,-1,28
 703 913 703 913 618 913 c 0,29,30
 413 913 413 913 413 793 c 0,31,32
 413 760 413 760 433 738 c 128,-1,33
 453 716 453 716 490 700 c 128,-1,34
 527 684 527 684 668 651 c 1,35,36
 850 610 850 610 925 534 c 128,-1,37
 1000 458 1000 458 1000 334 c 0,0,1
EndSplineSet
Validated: 1
EndChar

StartChar: t
Encoding: 116 116 87
Width: 682
GlyphClass: 2
Flags: W
AnchorPoint: "Anchor21" 380 0 basechar 0
AnchorPoint: "Anchor20" 420 0 basechar 0
AnchorPoint: "Anchor18" 1479 1840 basechar 0
AnchorPoint: "Anchor19" 0 1840 basechar 0
AnchorPoint: "Anchor16" 682 1540 basechar 0
AnchorPoint: "Anchor17" 682 -380 basechar 0
AnchorPoint: "Anchor15" 530 1300 basechar 0
AnchorPoint: "Anchor14" 630 1100 basechar 0
AnchorPoint: "Anchor10" 480 1480 basechar 0
AnchorPoint: "Anchor11" 620 1480 basechar 0
AnchorPoint: "Anchor12" 420 -130 basechar 0
LayerCount: 3
Fore
SplineSet
376 -16 m 0,0,1
 252 -16 252 -16 184 42.5 c 128,-1,2
 116 101 116 101 116 209 c 0,3,4
 116 280 116 280 132 366 c 2,5,-1
 234 892 l 1,6,-1
 86 892 l 1,7,-1
 123 1082 l 1,8,-1
 285 1082 l 1,9,-1
 422 1336 l 1,10,-1
 598 1336 l 1,11,-1
 550 1082 l 1,12,-1
 752 1082 l 1,13,-1
 717 892 l 1,14,-1
 512 892 l 1,15,-1
 408 357 l 2,16,17
 397 301 397 301 397 268 c 0,18,19
 397 222 397 222 420.5 199.5 c 128,-1,20
 444 177 444 177 484 177 c 0,21,22
 516 177 516 177 592 190 c 1,23,-1
 560 8 l 1,24,25
 479 -16 479 -16 376 -16 c 0,0,1
EndSplineSet
Validated: 1
EndChar

StartChar: u
Encoding: 117 117 88
Width: 1251
GlyphClass: 2
Flags: W
AnchorPoint: "Anchor21" 920 0 basechar 0
AnchorPoint: "Anchor20" 580 0 basechar 0
AnchorPoint: "Anchor18" 1479 1840 basechar 0
AnchorPoint: "Anchor19" 0 1840 basechar 0
AnchorPoint: "Anchor16" 1251 1540 basechar 0
AnchorPoint: "Anchor17" 1251 -380 basechar 0
AnchorPoint: "Anchor15" 1100 1000 basechar 0
AnchorPoint: "Anchor14" 1080 1100 basechar 0
AnchorPoint: "Anchor10" 750 1540 basechar 0
AnchorPoint: "Anchor11" 1240 1540 basechar 0
AnchorPoint: "Anchor12" 620 -130 basechar 0
LayerCount: 3
Fore
SplineSet
512 1082 m 1,0,-1
 394 487 l 1,1,2
 368 364 368 364 368 322 c 0,3,4
 368 193 368 193 520 193 c 0,5,6
 621 193 621 193 706.5 274 c 128,-1,7
 792 355 792 355 815 476 c 2,8,-1
 933 1082 l 1,9,-1
 1215 1082 l 1,10,-1
 1049 231 l 2,11,12
 1033 152 1033 152 1011 0 c 1,13,-1
 743 0 l 1,14,15
 743 9 743 9 752.5 84 c 128,-1,16
 762 159 762 159 767 185 c 1,17,-1
 764 185 l 1,18,19
 688 78 688 78 597.5 29.5 c 128,-1,20
 507 -19 507 -19 391 -19 c 0,21,22
 239 -19 239 -19 162 54 c 128,-1,23
 85 127 85 127 85 265 c 0,24,25
 85 290 85 290 92 345.5 c 128,-1,26
 99 401 99 401 106 429 c 1,27,-1
 233 1082 l 1,28,-1
 512 1082 l 1,0,-1
EndSplineSet
Validated: 1
EndChar

StartChar: v
Encoding: 118 118 89
Width: 1139
GlyphClass: 2
Flags: W
AnchorPoint: "Anchor21" 440 0 basechar 0
AnchorPoint: "Anchor18" 1479 1840 basechar 0
AnchorPoint: "Anchor19" 0 1840 basechar 0
AnchorPoint: "Anchor16" 1139 1540 basechar 0
AnchorPoint: "Anchor17" 1139 -380 basechar 0
AnchorPoint: "Anchor15" 1060 1000 basechar 0
AnchorPoint: "Anchor14" 1020 1100 basechar 0
AnchorPoint: "Anchor10" 650 1200 basechar 0
AnchorPoint: "Anchor11" 1000 1200 basechar 0
AnchorPoint: "Anchor12" 560 -130 basechar 0
LayerCount: 3
Fore
SplineSet
622 0 m 1,0,-1
 286 0 l 1,1,-1
 110 1082 l 1,2,-1
 399 1082 l 1,3,-1
 470 477 l 2,4,5
 474 447 474 447 483 339 c 128,-1,6
 492 231 492 231 492 208 c 1,7,8
 553 351 553 351 614 474 c 1,9,-1
 930 1082 l 1,10,-1
 1232 1082 l 1,11,-1
 622 0 l 1,0,-1
EndSplineSet
Validated: 1
EndChar

StartChar: w
Encoding: 119 119 90
Width: 1593
GlyphClass: 2
Flags: W
AnchorPoint: "Anchor21" 1100 0 basechar 0
AnchorPoint: "Anchor18" 1479 1840 basechar 0
AnchorPoint: "Anchor19" 0 1840 basechar 0
AnchorPoint: "Anchor16" 1593 1540 basechar 0
AnchorPoint: "Anchor17" 1593 -380 basechar 0
AnchorPoint: "Anchor15" 1560 1000 basechar 0
AnchorPoint: "Anchor14" 1520 1100 basechar 0
AnchorPoint: "Anchor10" 920 1540 basechar 0
AnchorPoint: "Anchor11" 1330 1540 basechar 0
AnchorPoint: "Anchor12" 800 -130 basechar 0
LayerCount: 3
Fore
SplineSet
1207 0 m 1,0,-1
 910 0 l 1,1,-1
 867 660 l 1,2,-1
 862 890 l 1,3,4
 809 748 809 748 767 658 c 2,5,-1
 465 0 l 1,6,-1
 168 0 l 1,7,-1
 99 1082 l 1,8,-1
 357 1082 l 1,9,-1
 371 386 l 1,10,-1
 371 255 l 1,11,-1
 398 323 l 1,12,-1
 450 446 l 1,13,-1
 744 1082 l 1,14,-1
 1045 1082 l 1,15,-1
 1087 446 l 1,16,-1
 1092 255 l 1,17,-1
 1145 387 l 1,18,-1
 1436 1082 l 1,19,-1
 1702 1082 l 1,20,-1
 1207 0 l 1,0,-1
EndSplineSet
Validated: 1
EndChar

StartChar: x
Encoding: 120 120 91
Width: 1139
GlyphClass: 2
Flags: W
AnchorPoint: "Anchor21" 900 0 basechar 0
AnchorPoint: "Anchor18" 1479 1840 basechar 0
AnchorPoint: "Anchor19" 0 1840 basechar 0
AnchorPoint: "Anchor16" 1139 1540 basechar 0
AnchorPoint: "Anchor17" 1139 -380 basechar 0
AnchorPoint: "Anchor15" 1000 1000 basechar 0
AnchorPoint: "Anchor14" 940 1100 basechar 0
AnchorPoint: "Anchor10" 650 1200 basechar 0
AnchorPoint: "Anchor11" 1000 1200 basechar 0
AnchorPoint: "Anchor12" 560 -130 basechar 0
LayerCount: 3
Fore
SplineSet
724 0 m 1,0,-1
 538 383 l 1,1,-1
 211 0 l 1,2,-1
 -90 0 l 1,3,-1
 418 562 l 1,4,-1
 139 1082 l 1,5,-1
 431 1082 l 1,6,-1
 604 735 l 1,7,-1
 900 1082 l 1,8,-1
 1208 1082 l 1,9,-1
 725 557 l 1,10,-1
 1019 0 l 1,11,-1
 724 0 l 1,0,-1
EndSplineSet
Validated: 1
EndChar

StartChar: y
Encoding: 121 121 92
Width: 1139
GlyphClass: 2
Flags: W
AnchorPoint: "Anchor21" 280 -400 basechar 0
AnchorPoint: "Anchor18" 1479 1840 basechar 0
AnchorPoint: "Anchor19" 0 1840 basechar 0
AnchorPoint: "Anchor16" 1139 1540 basechar 0
AnchorPoint: "Anchor17" 1139 -380 basechar 0
AnchorPoint: "Anchor15" 1080 1000 basechar 0
AnchorPoint: "Anchor14" 1020 1100 basechar 0
AnchorPoint: "Anchor10" 630 1200 basechar 0
AnchorPoint: "Anchor11" 1120 1200 basechar 0
AnchorPoint: "Anchor12" 460 -540 basechar 0
LayerCount: 3
Fore
SplineSet
88 -425 m 0,0,1
 -9 -425 -9 -425 -85 -407 c 1,2,-1
 -47 -211 l 1,3,4
 -7 -220 -7 -220 40 -220 c 0,5,6
 118 -220 118 -220 177.5 -174 c 128,-1,7
 237 -128 237 -128 296 -24 c 1,8,-1
 324 24 l 1,9,-1
 112 1082 l 1,10,-1
 403 1082 l 1,11,-1
 474 585 l 1,12,13
 483 540 483 540 496 407 c 0,14,15
 509 277 509 277 509 255 c 0,16,17
 509 252 509 252 509 251 c 1,18,-1
 526 288 l 1,19,-1
 665 581 l 1,20,-1
 924 1082 l 1,21,-1
 1224 1082 l 1,22,-1
 570 -57 l 1,23,24
 463 -224 463 -224 395.5 -292 c 128,-1,25
 328 -360 328 -360 254.5 -392.5 c 128,-1,26
 181 -425 181 -425 88 -425 c 0,0,1
EndSplineSet
Validated: 1
EndChar

StartChar: z
Encoding: 122 122 93
Width: 1024
GlyphClass: 2
Flags: W
AnchorPoint: "Anchor21" 740 0 basechar 0
AnchorPoint: "Anchor18" 1479 1840 basechar 0
AnchorPoint: "Anchor19" 0 1840 basechar 0
AnchorPoint: "Anchor16" 1024 1540 basechar 0
AnchorPoint: "Anchor17" 1024 -380 basechar 0
AnchorPoint: "Anchor15" 960 1000 basechar 0
AnchorPoint: "Anchor14" 880 1100 basechar 0
AnchorPoint: "Anchor10" 600 1200 basechar 0
AnchorPoint: "Anchor11" 900 1200 basechar 0
AnchorPoint: "Anchor12" 500 -130 basechar 0
LayerCount: 3
Fore
SplineSet
-10 0 m 1,0,-1
 28 199 l 1,1,-1
 641 879 l 1,2,-1
 201 879 l 1,3,-1
 241 1082 l 1,4,-1
 1010 1082 l 1,5,-1
 971 881 l 1,6,-1
 361 205 l 1,7,-1
 888 205 l 1,8,-1
 848 0 l 1,9,-1
 -10 0 l 1,0,-1
EndSplineSet
Validated: 1
EndChar

StartChar: braceleft
Encoding: 123 123 94
Width: 797
GlyphClass: 2
Flags: W
LayerCount: 3
Fore
SplineSet
388 -425 m 2,0,1
 269 -425 269 -425 200.5 -364.5 c 128,-1,2
 132 -304 132 -304 132 -202 c 0,3,4
 132 -158 132 -158 143 -101 c 2,5,-1
 204 207 l 2,6,7
 211 242 211 242 211 275 c 0,8,9
 211 429 211 429 19 433 c 1,10,-1
 57 625 l 1,11,12
 288 629 288 629 331 852 c 1,13,-1
 398 1190 l 2,14,15
 427 1336 427 1336 510.5 1410 c 128,-1,16
 594 1484 594 1484 748 1484 c 2,17,-1
 942 1484 l 1,18,-1
 905 1294 l 1,19,-1
 829 1294 l 2,20,21
 747 1294 747 1294 704 1247.5 c 128,-1,22
 661 1201 661 1201 639 1089 c 2,23,-1
 579 779 l 2,24,25
 560 685 560 685 490 618.5 c 128,-1,26
 420 552 420 552 323 532 c 1,27,-1
 322 528 l 1,28,29
 396 509 396 509 440.5 458.5 c 128,-1,30
 485 408 485 408 485 333 c 0,31,32
 485 304 485 304 480 281 c 2,33,-1
 415 -53 l 2,34,35
 406 -95 406 -95 406 -129 c 0,36,37
 406 -182 406 -182 439 -208 c 128,-1,38
 472 -234 472 -234 528 -234 c 2,39,-1
 608 -234 l 1,40,-1
 571 -425 l 1,41,-1
 388 -425 l 2,0,1
EndSplineSet
Validated: 1
EndChar

StartChar: bar
Encoding: 124 124 95
Width: 573
GlyphClass: 2
Flags: W
LayerCount: 3
Fore
SplineSet
191 -425 m 1,0,-1
 191 1484 l 1,1,-1
 453 1484 l 1,2,-1
 453 -425 l 1,3,-1
 191 -425 l 1,0,-1
EndSplineSet
Validated: 1
EndChar

StartChar: braceright
Encoding: 125 125 96
Width: 797
GlyphClass: 2
Flags: W
LayerCount: 3
Fore
SplineSet
399 1485 m 2,0,1
 518 1485 518 1485 586.5 1424.5 c 128,-1,2
 655 1364 655 1364 655 1262 c 0,3,4
 655 1216 655 1216 644 1161 c 2,5,-1
 583 853 l 2,6,7
 576 820 576 820 576 785 c 0,8,9
 576 708 576 708 622.5 668.5 c 128,-1,10
 669 629 669 629 768 627 c 1,11,-1
 730 435 l 1,12,13
 612 433 612 433 545 376.5 c 128,-1,14
 478 320 478 320 456 207 c 2,15,-1
 389 -130 l 2,16,17
 358 -282 358 -282 273.5 -353.5 c 128,-1,18
 189 -425 189 -425 39 -425 c 2,19,-1
 -155 -425 l 1,20,-1
 -118 -235 l 1,21,-1
 -42 -235 l 2,22,23
 40 -235 40 -235 83 -188.5 c 128,-1,24
 126 -142 126 -142 148 -30 c 2,25,-1
 208 280 l 2,26,27
 227 375 227 375 297 441.5 c 128,-1,28
 367 508 367 508 464 528 c 1,29,-1
 465 531 l 1,30,31
 390 550 390 550 346 601.5 c 128,-1,32
 302 653 302 653 302 727 c 0,33,34
 302 756 302 756 307 779 c 2,35,-1
 372 1112 l 2,36,37
 381 1157 381 1157 381 1189 c 0,38,39
 381 1242 381 1242 348 1268 c 128,-1,40
 315 1294 315 1294 259 1294 c 2,41,-1
 179 1294 l 1,42,-1
 216 1485 l 1,43,-1
 399 1485 l 2,0,1
EndSplineSet
Validated: 1
EndChar

StartChar: asciitilde
Encoding: 126 126 97
Width: 1196
GlyphClass: 2
Flags: W
LayerCount: 3
Fore
SplineSet
889 516 m 0,0,1
 814 516 814 516 741.5 537 c 128,-1,2
 669 558 669 558 594 584 c 0,3,4
 459 631 459 631 373 631 c 0,5,6
 302 631 302 631 242.5 609.5 c 128,-1,7
 183 588 183 588 118 543 c 1,8,-1
 118 756 l 1,9,10
 231 840 231 840 389 840 c 0,11,12
 469 840 469 840 545.5 818 c 128,-1,13
 622 796 622 796 696 770 c 0,14,15
 830 723 830 723 908 723 c 0,16,17
 1042 723 1042 723 1156 815 c 1,18,-1
 1156 596 l 1,19,20
 1092 552 1092 552 1033.5 534 c 128,-1,21
 975 516 975 516 889 516 c 0,0,1
EndSplineSet
Validated: 1
EndChar

StartChar: dagger
Encoding: 8224 8224 130
Width: 1139
GlyphClass: 2
Flags: W
LayerCount: 3
Fore
SplineSet
749 960 m 1,0,-1
 514 -138 l 1,1,-1
 359 -138 l 1,2,-1
 550 960 l 1,3,-1
 213 933 l 1,4,-1
 253 1137 l 1,5,-1
 579 1108 l 1,6,-1
 624 1484 l 1,7,-1
 879 1484 l 1,8,-1
 778 1108 l 1,9,-1
 1117 1137 l 1,10,-1
 1077 933 l 1,11,-1
 749 960 l 1,0,-1
EndSplineSet
Validated: 1
EndChar

StartChar: degree
Encoding: 176 176 131
Width: 819
GlyphClass: 2
Flags: W
LayerCount: 3
Fore
SplineSet
830 1110 m 256,0,1
 830 980 830 980 736.5 887.5 c 128,-1,2
 643 795 643 795 509 795 c 0,3,4
 377 795 377 795 283 886 c 128,-1,5
 189 977 189 977 189 1110 c 0,6,7
 189 1196 189 1196 231.5 1269 c 128,-1,8
 274 1342 274 1342 347.5 1383.5 c 128,-1,9
 421 1425 421 1425 509 1425 c 0,10,11
 644 1425 644 1425 737 1332.5 c 128,-1,12
 830 1240 830 1240 830 1110 c 256,0,1
672 1110 m 256,13,14
 672 1180 672 1180 625.5 1228 c 128,-1,15
 579 1276 579 1276 509 1276 c 0,16,17
 438 1276 438 1276 390.5 1227.5 c 128,-1,18
 343 1179 343 1179 343 1110 c 256,19,20
 343 1041 343 1041 392 991.5 c 128,-1,21
 441 942 441 942 509 942 c 0,22,23
 576 942 576 942 624 991 c 128,-1,24
 672 1040 672 1040 672 1110 c 256,13,14
EndSplineSet
Validated: 1
EndChar

StartChar: cent
Encoding: 162 162 132
Width: 1139
GlyphClass: 2
Flags: W
LayerCount: 3
Fore
SplineSet
463 347 m 5,0,-1
 600 1055 l 5,1,2
 542 1038 542 1038 504 990 c 4,3,4
 444 916 444 916 394 730 c 5,5,6
 371 615 371 615 371 562 c 4,7,8
 371 394 371 394 463 347 c 5,0,-1
760 1042 m 5,9,-1
 624 341 l 5,10,11
 659 354 659 354 686 380 c 4,12,13
 740 432 740 432 772 536 c 5,14,-1
 1043 486 l 5,15,16
 991 317 991 317 875.5 232 c 132,-1,17
 760 147 760 147 584 136 c 5,18,-1
 552 -31 l 5,19,-1
 390 -31 l 5,20,-1
 390 -29 l 5,21,-1
 390 -29 l 5,22,-1
 397 7 l 5,23,-1
 422 143 l 5,24,25
 257 169 257 169 166.5 277 c 132,-1,26
 76 385 76 385 76 560 c 4,27,28
 76 665 76 665 94 739 c 4,29,30
 150 983 150 983 284 1113.5 c 132,-1,31
 418 1244 418 1244 638 1255 c 5,32,-1
 669 1409 l 5,33,-1
 831 1409 l 5,34,-1
 800 1248 l 5,35,36
 941 1225 941 1225 1026 1132 c 132,-1,38
 1111 1039 1111 1039 1122 896 c 5,39,-1
 838 873 l 5,40,41
 831 999 831 999 760 1042 c 5,9,-1
EndSplineSet
EndChar

StartChar: sterling
Encoding: 163 163 133
Width: 1139
GlyphClass: 2
Flags: W
LayerCount: 3
Fore
SplineSet
1104 363 m 1,0,1
 1062 184 1062 184 948 92 c 128,-1,2
 834 0 834 0 663 0 c 2,3,-1
 -51 0 l 1,4,-1
 -12 205 l 1,5,6
 82 243 82 243 139 309.5 c 128,-1,7
 196 376 196 376 217 481 c 2,8,-1
 242 604 l 1,9,-1
 55 604 l 1,10,-1
 87 774 l 1,11,-1
 265 774 l 1,12,-1
 316 1034 l 1,13,14
 355 1241 355 1241 465 1335.5 c 128,-1,15
 575 1430 575 1430 772 1430 c 0,16,17
 948 1430 948 1430 1052.5 1350.5 c 128,-1,18
 1157 1271 1157 1271 1174 1130 c 1,19,-1
 929 1082 l 1,20,21
 914 1166 914 1166 872.5 1202.5 c 128,-1,22
 831 1239 831 1239 760 1239 c 0,23,24
 682 1239 682 1239 640 1193 c 128,-1,25
 598 1147 598 1147 578 1042 c 2,26,-1
 525 774 l 1,27,-1
 811 774 l 1,28,-1
 778 604 l 1,29,-1
 492 604 l 1,30,-1
 465 478 l 2,31,32
 423 283 423 283 233 210 c 1,33,-1
 641 210 l 2,34,35
 736 210 736 210 795.5 255 c 128,-1,36
 855 300 855 300 879 402 c 1,37,-1
 1104 363 l 1,0,1
EndSplineSet
Validated: 1
EndChar

StartChar: section
Encoding: 167 167 134
Width: 1139
GlyphClass: 2
Flags: W
LayerCount: 3
Fore
SplineSet
718 1427 m 0,0,1
 922 1427 922 1427 1031.5 1357 c 128,-1,2
 1141 1287 1141 1287 1148 1153 c 1,3,-1
 904 1128 l 1,4,5
 892 1196 892 1196 836 1226.5 c 128,-1,6
 780 1257 780 1257 697 1257 c 0,7,8
 469 1257 469 1257 469 1124 c 0,9,10
 469 1086 469 1086 495 1058 c 128,-1,11
 521 1030 521 1030 567 1009.5 c 128,-1,12
 613 989 613 989 722 963 c 0,13,14
 1079 881 1079 881 1079 668 c 0,15,16
 1079 556 1079 556 1021 483 c 128,-1,17
 963 410 963 410 830 368 c 1,18,19
 893 333 893 333 927.5 275 c 128,-1,20
 962 217 962 217 962 142 c 0,21,22
 962 -40 962 -40 823.5 -134.5 c 128,-1,23
 685 -229 685 -229 425 -229 c 0,24,25
 205 -229 205 -229 91 -159.5 c 128,-1,26
 -23 -90 -23 -90 -42 59 c 1,27,-1
 202 96 l 1,28,29
 216 13 216 13 274 -23 c 128,-1,30
 332 -59 332 -59 438 -59 c 0,31,32
 574 -59 574 -59 645 -19 c 128,-1,33
 716 21 716 21 716 95 c 0,34,35
 716 143 716 143 690.5 174 c 128,-1,36
 665 205 665 205 618.5 226 c 128,-1,37
 572 247 572 247 416 283 c 1,38,39
 95 354 95 354 95 585 c 0,40,41
 95 794 95 794 366 861 c 1,42,43
 295 900 295 900 258 961 c 128,-1,44
 221 1022 221 1022 221 1100 c 0,45,46
 221 1265 221 1265 344 1346 c 128,-1,47
 467 1427 467 1427 718 1427 c 0,0,1
571 780 m 1,48,49
 468 774 468 774 407 735 c 128,-1,50
 346 696 346 696 346 626 c 0,51,52
 346 584 346 584 370.5 554.5 c 128,-1,53
 395 525 395 525 438.5 503.5 c 128,-1,54
 482 482 482 482 600 454 c 1,55,56
 711 463 711 463 770.5 499.5 c 128,-1,57
 830 536 830 536 830 598 c 0,58,59
 830 667 830 667 775.5 706.5 c 128,-1,60
 721 746 721 746 571 780 c 1,48,49
EndSplineSet
Validated: 1
EndChar

StartChar: bullet
Encoding: 8226 8226 135
Width: 717
GlyphClass: 2
Flags: W
LayerCount: 3
Fore
SplineSet
676 676 m 0,0,1
 676 555 676 555 589 468 c 128,-1,2
 502 381 502 381 381 381 c 0,3,4
 262 381 262 381 176 467.5 c 128,-1,5
 90 554 90 554 90 676 c 256,6,7
 90 798 90 798 175.5 883.5 c 128,-1,8
 261 969 261 969 381 969 c 0,9,10
 503 969 503 969 589.5 883.5 c 128,-1,11
 676 798 676 798 676 676 c 0,0,1
EndSplineSet
Validated: 1
EndChar

StartChar: paragraph
Encoding: 182 182 136
Width: 1139
GlyphClass: 2
Flags: W
LayerCount: 3
Fore
SplineSet
975 1266 m 1,0,-1
 975 -264 l 1,1,-1
 819 -264 l 1,2,-1
 819 1266 l 1,3,-1
 624 1266 l 1,4,-1
 624 -264 l 1,5,-1
 469 -264 l 1,6,-1
 469 694 l 1,7,8
 300 694 300 694 203 786.5 c 128,-1,9
 106 879 106 879 106 1049 c 0,10,11
 106 1218 106 1218 204.5 1313.5 c 128,-1,12
 303 1409 303 1409 477 1409 c 2,13,-1
 1106 1409 l 1,14,-1
 1106 1266 l 1,15,-1
 975 1266 l 1,0,-1
EndSplineSet
Validated: 1
EndChar

StartChar: germandbls
Encoding: 223 223 137
Width: 1251
GlyphClass: 2
Flags: W
AnchorPoint: "Anchor21" 830 0 basechar 0
AnchorPoint: "Anchor18" 1479 1840 basechar 0
AnchorPoint: "Anchor19" 0 1840 basechar 0
AnchorPoint: "Anchor16" 1251 1540 basechar 0
AnchorPoint: "Anchor17" 1251 -380 basechar 0
AnchorPoint: "Anchor10" 780 1580 basechar 0
AnchorPoint: "Anchor11" 1200 1260 basechar 0
AnchorPoint: "Anchor12" 660 -130 basechar 0
LayerCount: 3
Fore
SplineSet
35 0 m 1,0,-1
 235 1027 l 1,1,2
 285 1264 285 1264 423.5 1374 c 128,-1,3
 562 1484 562 1484 797 1484 c 0,4,5
 978 1484 978 1484 1082.5 1407 c 128,-1,6
 1187 1330 1187 1330 1187 1196 c 0,7,8
 1187 1031 1187 1031 1044 924 c 0,9,10
 958 860 958 860 929 828 c 128,-1,11
 900 796 900 796 900 759 c 0,12,13
 900 719 900 719 927 686.5 c 128,-1,14
 954 654 954 654 1026 601 c 0,15,16
 1152 507 1152 507 1152 345 c 0,17,18
 1152 178 1152 178 1041.5 79 c 128,-1,19
 931 -20 931 -20 749 -20 c 0,20,21
 546 -20 546 -20 428 37 c 1,22,-1
 496 223 l 1,23,24
 574 187 574 187 622 176.5 c 128,-1,25
 670 166 670 166 720 166 c 0,26,27
 800 166 800 166 841.5 208 c 128,-1,28
 883 250 883 250 883 322 c 0,29,30
 883 373 883 373 855 412.5 c 128,-1,31
 827 452 827 452 761 501 c 1,32,33
 697 547 697 547 667.5 598.5 c 128,-1,34
 638 650 638 650 638 718 c 256,35,36
 638 786 638 786 672.5 840.5 c 128,-1,37
 707 895 707 895 785 953 c 0,38,39
 863 1012 863 1012 897 1061 c 128,-1,40
 931 1110 931 1110 931 1168 c 0,41,42
 931 1221 931 1221 894.5 1251 c 128,-1,43
 858 1281 858 1281 788 1281 c 0,44,45
 672 1281 672 1281 605.5 1217 c 128,-1,46
 539 1153 539 1153 513 1021 c 2,47,-1
 316 0 l 1,48,-1
 35 0 l 1,0,-1
EndSplineSet
Validated: 1
EndChar

StartChar: registered
Encoding: 174 174 138
Width: 1509
GlyphClass: 2
Flags: W
LayerCount: 3
Fore
SplineSet
1508 707 m 0,0,1
 1508 514 1508 514 1411.5 345.5 c 128,-1,2
 1315 177 1315 177 1146.5 80.5 c 128,-1,3
 978 -16 978 -16 785 -16 c 0,4,5
 588 -16 588 -16 418.5 84.5 c 128,-1,6
 249 185 249 185 155.5 351.5 c 128,-1,7
 62 518 62 518 62 707 c 0,8,9
 62 900 62 900 159 1068 c 128,-1,10
 256 1236 256 1236 424 1333 c 128,-1,11
 592 1430 592 1430 785 1430 c 0,12,13
 979 1430 979 1430 1147.5 1332.5 c 128,-1,14
 1316 1235 1316 1235 1412 1068 c 128,-1,15
 1508 901 1508 901 1508 707 c 0,0,1
1396 707 m 256,16,17
 1396 870 1396 870 1314 1010.5 c 128,-1,18
 1232 1151 1232 1151 1090 1233 c 128,-1,19
 948 1315 948 1315 785 1315 c 0,20,21
 628 1315 628 1315 488 1237 c 128,-1,22
 348 1159 348 1159 262.5 1017.5 c 128,-1,23
 177 876 177 876 177 707 c 0,24,25
 177 544 177 544 258.5 402 c 128,-1,26
 340 260 340 260 480.5 178 c 128,-1,27
 621 96 621 96 785 96 c 256,28,29
 949 96 949 96 1091 178 c 128,-1,30
 1233 260 1233 260 1314.5 402 c 128,-1,31
 1396 544 1396 544 1396 707 c 256,16,17
953 297 m 1,32,-1
 775 610 l 1,33,-1
 658 610 l 1,34,-1
 658 297 l 1,35,-1
 480 297 l 1,36,-1
 480 1112 l 1,37,-1
 810 1112 l 2,38,39
 963 1112 963 1112 1039 1047.5 c 128,-1,40
 1115 983 1115 983 1115 870 c 0,41,42
 1115 776 1115 776 1067 717 c 128,-1,43
 1019 658 1019 658 941 633 c 1,44,-1
 1154 297 l 1,45,-1
 953 297 l 1,32,-1
935 868 m 0,46,47
 935 925 935 925 897.5 955 c 128,-1,48
 860 985 860 985 791 985 c 2,49,-1
 658 985 l 1,50,-1
 658 739 l 1,51,-1
 802 739 l 2,52,53
 868 739 868 739 901.5 774.5 c 128,-1,54
 935 810 935 810 935 868 c 0,46,47
EndSplineSet
Validated: 1
EndChar

StartChar: copyright
Encoding: 169 169 139
Width: 1509
GlyphClass: 2
Flags: W
LayerCount: 3
Fore
SplineSet
1508 707 m 0,0,1
 1508 514 1508 514 1411.5 345.5 c 128,-1,2
 1315 177 1315 177 1146.5 80.5 c 128,-1,3
 978 -16 978 -16 785 -16 c 0,4,5
 588 -16 588 -16 418.5 84.5 c 128,-1,6
 249 185 249 185 155.5 351.5 c 128,-1,7
 62 518 62 518 62 707 c 0,8,9
 62 900 62 900 159 1068 c 128,-1,10
 256 1236 256 1236 424 1333 c 128,-1,11
 592 1430 592 1430 785 1430 c 0,12,13
 979 1430 979 1430 1147.5 1332.5 c 128,-1,14
 1316 1235 1316 1235 1412 1068 c 128,-1,15
 1508 901 1508 901 1508 707 c 0,0,1
1396 707 m 256,16,17
 1396 870 1396 870 1314 1010.5 c 128,-1,18
 1232 1151 1232 1151 1090 1233 c 128,-1,19
 948 1315 948 1315 785 1315 c 0,20,21
 628 1315 628 1315 488 1237 c 128,-1,22
 348 1159 348 1159 262.5 1017.5 c 128,-1,23
 177 876 177 876 177 707 c 0,24,25
 177 544 177 544 258.5 402 c 128,-1,26
 340 260 340 260 480.5 178 c 128,-1,27
 621 96 621 96 785 96 c 256,28,29
 949 96 949 96 1091 178 c 128,-1,30
 1233 260 1233 260 1314.5 402 c 128,-1,31
 1396 544 1396 544 1396 707 c 256,16,17
798 285 m 0,32,33
 605 285 605 285 499.5 396 c 128,-1,34
 394 507 394 507 394 709 c 0,35,36
 394 912 394 912 496 1018 c 128,-1,37
 598 1124 598 1124 789 1124 c 0,38,39
 919 1124 919 1124 1006.5 1068 c 128,-1,40
 1094 1012 1094 1012 1142 895 c 1,41,-1
 986 854 l 1,42,43
 960 915 960 915 911.5 949 c 128,-1,44
 863 983 863 983 794 983 c 0,45,46
 685 983 685 983 629.5 913 c 128,-1,47
 574 843 574 843 574 709 c 0,48,49
 574 574 574 574 633 500 c 128,-1,50
 692 426 692 426 798 426 c 0,51,52
 864 426 864 426 915 463 c 128,-1,53
 966 500 966 500 994 569 c 1,54,-1
 1154 522 l 1,55,56
 1096 397 1096 397 1009 341 c 128,-1,57
 922 285 922 285 798 285 c 0,32,33
EndSplineSet
Validated: 1
EndChar

StartChar: trademark
Encoding: 8482 8482 140
Width: 2048
GlyphClass: 2
Flags: W
LayerCount: 3
Fore
SplineSet
1119 768 m 1,0,-1
 953 768 l 1,1,-1
 953 1409 l 1,2,-1
 1201 1409 l 1,3,-1
 1340 1108 l 2,4,5
 1362 1059 1362 1059 1405 948 c 1,6,-1
 1428 1009 l 1,7,-1
 1469 1108 l 1,8,-1
 1613 1409 l 1,9,-1
 1856 1409 l 1,10,-1
 1856 768 l 1,11,-1
 1691 768 l 1,12,-1
 1691 1108 l 2,13,14
 1691 1124 1691 1124 1699 1280 c 1,15,-1
 1669 1205 l 1,16,-1
 1623 1096 l 1,17,-1
 1469 768 l 1,18,-1
 1338 768 l 1,19,-1
 1189 1096 l 1,20,-1
 1112 1280 l 1,21,22
 1119 1137 1119 1137 1119 1108 c 2,23,-1
 1119 768 l 1,0,-1
608 1270 m 1,24,-1
 608 768 l 1,25,-1
 428 768 l 1,26,-1
 428 1270 l 1,27,-1
 185 1270 l 1,28,-1
 185 1409 l 1,29,-1
 859 1409 l 1,30,-1
 859 1270 l 1,31,-1
 608 1270 l 1,24,-1
EndSplineSet
Validated: 1
EndChar

StartChar: acute
Encoding: 180 180 141
Width: 682
GlyphClass: 2
Flags: W
LayerCount: 3
Fore
SplineSet
255 1183 m 1,0,-1
 261 1214 l 1,1,-1
 508 1502 l 1,2,-1
 785 1502 l 1,3,-1
 777 1459 l 1,4,-1
 401 1183 l 1,5,-1
 255 1183 l 1,0,-1
EndSplineSet
Validated: 1
EndChar

StartChar: dieresis
Encoding: 168 168 142
Width: 682
GlyphClass: 2
Flags: W
LayerCount: 3
Fore
SplineSet
568 1199 m 1,0,-1
 611 1418 l 1,1,-1
 828 1418 l 1,2,-1
 785 1199 l 1,3,-1
 568 1199 l 1,0,-1
135 1199 m 1,4,-1
 177 1418 l 1,5,-1
 391 1418 l 1,6,-1
 348 1199 l 1,7,-1
 135 1199 l 1,4,-1
EndSplineSet
Validated: 1
EndChar

StartChar: notequal
Encoding: 8800 8800 143
Width: 1124
GlyphClass: 2
Flags: W
LayerCount: 3
Fore
SplineSet
491 291 m 1,0,-1
 362 37 l 1,1,-1
 149 37 l 1,2,-1
 278 291 l 1,3,-1
 59 291 l 1,4,-1
 59 512 l 1,5,-1
 386 512 l 1,6,-1
 552 842 l 1,7,-1
 59 842 l 1,8,-1
 59 1065 l 1,9,-1
 661 1065 l 1,10,-1
 794 1323 l 1,11,-1
 1005 1323 l 1,12,-1
 874 1065 l 1,13,-1
 1126 1065 l 1,14,-1
 1126 842 l 1,15,-1
 765 842 l 1,16,-1
 599 512 l 1,17,-1
 1126 512 l 1,18,-1
 1126 291 l 1,19,-1
 491 291 l 1,0,-1
EndSplineSet
Validated: 1
EndChar

StartChar: AE
Encoding: 198 198 144
Width: 2048
GlyphClass: 2
Flags: W
AnchorPoint: "Anchor21" 1780 0 basechar 0
AnchorPoint: "Anchor18" 1479 1840 basechar 0
AnchorPoint: "Anchor19" 0 1840 basechar 0
AnchorPoint: "Anchor16" 2048 1840 basechar 0
AnchorPoint: "Anchor17" 2048 -380 basechar 0
AnchorPoint: "Anchor10" 1450 1540 basechar 0
AnchorPoint: "Anchor11" 1920 1540 basechar 0
AnchorPoint: "Anchor12" 1060 -130 basechar 0
LayerCount: 3
Fore
SplineSet
837 0 m 1,0,-1
 907 360 l 1,1,-1
 457 360 l 1,2,-1
 215 0 l 1,3,-1
 -97 0 l 1,4,-1
 868 1409 l 1,5,-1
 2099 1409 l 1,6,-1
 2054 1182 l 1,7,-1
 1353 1182 l 1,8,-1
 1284 827 l 1,9,-1
 1923 827 l 1,10,-1
 1880 606 l 1,11,-1
 1241 606 l 1,12,-1
 1168 227 l 1,13,-1
 1910 227 l 1,14,-1
 1866 0 l 1,15,-1
 837 0 l 1,0,-1
1068 1192 m 1,16,-1
 1007 1192 l 1,17,-1
 871 983 l 1,18,-1
 602 582 l 1,19,-1
 950 582 l 1,20,-1
 1068 1192 l 1,16,-1
EndSplineSet
Validated: 1
EndChar

StartChar: Oslash
Encoding: 216 216 145
Width: 1593
GlyphClass: 2
Flags: W
AnchorPoint: "Anchor21" 920 0 basechar 0
AnchorPoint: "Anchor18" 1479 1840 basechar 0
AnchorPoint: "Anchor19" 0 1840 basechar 0
AnchorPoint: "Anchor16" 1593 1540 basechar 0
AnchorPoint: "Anchor17" 1593 -380 basechar 0
AnchorPoint: "Anchor10" 920 1540 basechar 0
AnchorPoint: "Anchor11" 1330 1540 basechar 0
AnchorPoint: "Anchor12" 800 -130 basechar 0
LayerCount: 3
Fore
SplineSet
928 1430 m 0,0,1
 1165 1430 1165 1430 1324 1326 c 1,2,-1
 1455 1466 l 1,3,-1
 1658 1466 l 1,4,-1
 1435 1227 l 1,5,6
 1559 1079 1559 1079 1559 851 c 0,7,8
 1559 604 1559 604 1453.5 400.5 c 128,-1,9
 1348 197 1348 197 1159 88.5 c 128,-1,10
 970 -20 970 -20 727 -20 c 0,11,12
 505 -20 505 -20 357 71 c 1,13,-1
 242 -53 l 1,14,-1
 35 -53 l 1,15,-1
 240 167 l 1,16,17
 100 325 100 325 100 573 c 0,18,19
 100 808 100 808 205.5 1011.5 c 128,-1,20
 311 1215 311 1215 498 1322.5 c 128,-1,21
 685 1430 685 1430 928 1430 c 0,0,1
914 1197 m 0,22,23
 752 1197 752 1197 638 1122 c 128,-1,24
 524 1047 524 1047 462 896 c 128,-1,25
 400 745 400 745 400 581 c 0,26,27
 400 460 400 460 439 379 c 1,28,-1
 1138 1127 l 1,29,30
 1051 1197 1051 1197 914 1197 c 0,22,23
1255 827 m 0,31,32
 1255 927 1255 927 1226 1002 c 1,33,-1
 538 264 l 1,34,35
 617 212 617 212 741 212 c 0,36,37
 902 212 902 212 1016 287 c 128,-1,38
 1130 362 1130 362 1192.5 510 c 128,-1,39
 1255 658 1255 658 1255 827 c 0,31,32
EndSplineSet
Validated: 1
EndChar

StartChar: infinity
Encoding: 8734 8734 146
Width: 1460
GlyphClass: 2
Flags: W
LayerCount: 3
Fore
SplineSet
1398 583 m 0,0,1
 1398 428 1398 428 1305 322 c 128,-1,2
 1212 216 1212 216 1075 216 c 0,3,4
 861 216 861 216 739 455 c 1,5,6
 608 226 608 226 406 226 c 0,7,8
 261 226 261 226 171 328.5 c 128,-1,9
 81 431 81 431 81 597 c 0,10,11
 81 756 81 756 173.5 860 c 128,-1,12
 266 964 266 964 406 964 c 0,13,14
 509 964 509 964 591.5 908.5 c 128,-1,15
 674 853 674 853 739 725 c 1,16,17
 866 955 866 955 1063 955 c 0,18,19
 1215 955 1215 955 1306.5 853.5 c 128,-1,20
 1398 752 1398 752 1398 583 c 0,0,1
1051 782 m 0,21,22
 931 782 931 782 837 585 c 1,23,24
 881 491 881 491 930.5 440 c 128,-1,25
 980 389 980 389 1050 389 c 0,26,27
 1119 389 1119 389 1163.5 444 c 128,-1,28
 1208 499 1208 499 1208 585 c 0,29,30
 1208 673 1208 673 1165 727.5 c 128,-1,31
 1122 782 1122 782 1051 782 c 0,21,22
640 595 m 1,32,33
 587 708 587 708 542 750.5 c 128,-1,34
 497 793 497 793 437 793 c 0,35,36
 366 793 366 793 318.5 737.5 c 128,-1,37
 271 682 271 682 271 595 c 0,38,39
 271 511 271 511 316 455.5 c 128,-1,40
 361 400 361 400 438 400 c 0,41,42
 497 400 497 400 545 447.5 c 128,-1,43
 593 495 593 495 640 595 c 1,32,33
EndSplineSet
Validated: 1
EndChar

StartChar: plusminus
Encoding: 177 177 147
Width: 1124
GlyphClass: 2
Flags: W
LayerCount: 3
Fore
SplineSet
712 707 m 1,0,-1
 712 366 l 1,1,-1
 488 366 l 1,2,-1
 488 707 l 1,3,-1
 87 707 l 1,4,-1
 87 930 l 1,5,-1
 488 930 l 1,6,-1
 488 1270 l 1,7,-1
 712 1270 l 1,8,-1
 712 930 l 1,9,-1
 1114 930 l 1,10,-1
 1114 707 l 1,11,-1
 712 707 l 1,0,-1
87 0 m 1,12,-1
 87 223 l 1,13,-1
 1114 223 l 1,14,-1
 1114 0 l 1,15,-1
 87 0 l 1,12,-1
EndSplineSet
Validated: 1
EndChar

StartChar: lessequal
Encoding: 8804 8804 148
Width: 1124
GlyphClass: 2
Flags: W
LayerCount: 3
Fore
SplineSet
87 631 m 1,0,-1
 87 952 l 1,1,-1
 1113 1298 l 1,2,-1
 1113 1071 l 1,3,-1
 281 791 l 1,4,-1
 1113 512 l 1,5,-1
 1113 285 l 1,6,-1
 87 631 l 1,0,-1
87 0 m 1,7,-1
 87 223 l 1,8,-1
 1111 223 l 1,9,-1
 1111 0 l 1,10,-1
 87 0 l 1,7,-1
EndSplineSet
Validated: 1
EndChar

StartChar: greaterequal
Encoding: 8805 8805 149
Width: 1124
GlyphClass: 2
Flags: W
LayerCount: 3
Fore
SplineSet
87 285 m 1,0,-1
 87 512 l 1,1,-1
 918 791 l 1,2,-1
 87 1071 l 1,3,-1
 87 1298 l 1,4,-1
 1113 952 l 1,5,-1
 1113 631 l 1,6,-1
 87 285 l 1,0,-1
87 0 m 1,7,-1
 87 223 l 1,8,-1
 1113 223 l 1,9,-1
 1113 0 l 1,10,-1
 87 0 l 1,7,-1
EndSplineSet
Validated: 1
EndChar

StartChar: yen
Encoding: 165 165 150
Width: 1139
GlyphClass: 2
Flags: W
LayerCount: 3
Fore
SplineSet
797 691 m 1,0,-1
 1073 691 l 1,1,-1
 1045 545 l 1,2,-1
 707 545 l 1,3,-1
 675 383 l 1,4,-1
 1013 383 l 1,5,-1
 985 236 l 1,6,-1
 647 236 l 1,7,-1
 601 0 l 1,8,-1
 329 0 l 1,9,-1
 375 236 l 1,10,-1
 39 236 l 1,11,-1
 67 383 l 1,12,-1
 404 383 l 1,13,-1
 436 545 l 1,14,-1
 99 545 l 1,15,-1
 127 691 l 1,16,-1
 403 691 l 1,17,-1
 179 1409 l 1,18,-1
 463 1409 l 1,19,-1
 617 813 l 1,20,-1
 1007 1409 l 1,21,-1
 1301 1409 l 1,22,-1
 797 691 l 1,0,-1
EndSplineSet
Validated: 1
EndChar

StartChar: mu
Encoding: 181 181 151
Width: 1180
GlyphClass: 2
Flags: W
LayerCount: 3
Fore
SplineSet
875 -20 m 0,0,1
 787 -20 787 -20 748.5 12.5 c 128,-1,2
 710 45 710 45 710 122 c 2,3,-1
 710 143 l 1,4,-1
 712 164 l 1,5,-1
 708 164 l 1,6,7
 666 77 666 77 613 28.5 c 128,-1,8
 560 -20 560 -20 479 -20 c 0,9,10
 420 -20 420 -20 381.5 4.5 c 128,-1,11
 343 29 343 29 328 70 c 1,12,-1
 322 70 l 1,13,-1
 306 -45 l 1,14,-1
 233 -425 l 1,15,-1
 -47 -425 l 1,16,-1
 244 1082 l 1,17,-1
 525 1082 l 1,18,-1
 407 477 l 2,19,20
 396 418 396 418 394 358 c 1,21,22
 394 193 394 193 519 193 c 0,23,24
 600 193 600 193 660 273 c 128,-1,25
 720 353 720 353 746 504 c 1,26,-1
 858 1082 l 1,27,-1
 1139 1082 l 1,28,-1
 992 325 l 2,29,30
 983 280 983 280 983 260 c 0,31,32
 983 191 983 191 1033 191 c 0,33,34
 1056 191 1056 191 1079 198 c 1,35,-1
 1063 5 l 1,36,37
 957 -20 957 -20 875 -20 c 0,0,1
EndSplineSet
Validated: 1
EndChar

StartChar: partialdiff
Encoding: 8706 8706 152
Width: 1012
GlyphClass: 2
Flags: W
LayerCount: 3
Fore
SplineSet
955 907 m 0,0,1
 955 707 955 707 915.5 527 c 128,-1,2
 876 347 876 347 804.5 224 c 128,-1,3
 733 101 733 101 632 38 c 128,-1,4
 531 -25 531 -25 403 -25 c 0,5,6
 240 -25 240 -25 151.5 77 c 128,-1,7
 63 179 63 179 63 371 c 0,8,9
 63 533 63 533 122.5 682.5 c 128,-1,10
 182 832 182 832 277.5 907.5 c 128,-1,11
 373 983 373 983 494 983 c 0,12,13
 570 983 570 983 631 940 c 128,-1,14
 692 897 692 897 723 821 c 1,15,-1
 727 821 l 1,16,-1
 728 863 l 1,17,-1
 728 911 l 2,18,19
 728 1084 728 1084 675 1179 c 128,-1,20
 622 1274 622 1274 511 1274 c 0,21,22
 458 1274 458 1274 398.5 1254 c 128,-1,23
 339 1234 339 1234 302 1206 c 1,24,-1
 347 1411 l 1,25,26
 444 1468 444 1468 559 1468 c 0,27,28
 747 1468 747 1468 851 1323.5 c 128,-1,29
 955 1179 955 1179 955 907 c 0,0,1
695 645 m 1,30,31
 680 720 680 720 637 766.5 c 128,-1,32
 594 813 594 813 539 813 c 0,33,34
 475 813 475 813 421 754.5 c 128,-1,35
 367 696 367 696 333.5 588 c 128,-1,36
 300 480 300 480 300 375 c 0,37,38
 300 278 300 278 335.5 224 c 128,-1,39
 371 170 371 170 433 170 c 0,40,41
 527 170 527 170 600 309 c 128,-1,42
 673 448 673 448 695 645 c 1,30,31
EndSplineSet
Validated: 1
EndChar

StartChar: summation
Encoding: 8721 8721 153
Width: 1460
GlyphClass: 2
Flags: W
LayerCount: 3
Fore
SplineSet
164 -425 m 1,0,-1
 164 -265 l 1,1,-1
 768 547 l 1,2,-1
 184 1257 l 1,3,-1
 184 1409 l 1,4,-1
 1321 1409 l 1,5,-1
 1321 1182 l 1,6,-1
 555 1182 l 1,7,-1
 1083 545 l 1,8,-1
 535 -197 l 1,9,-1
 1378 -197 l 1,10,-1
 1378 -425 l 1,11,-1
 164 -425 l 1,0,-1
EndSplineSet
Validated: 1
EndChar

StartChar: product
Encoding: 8719 8719 154
Width: 1686
GlyphClass: 2
Flags: W
LayerCount: 3
Fore
SplineSet
1220 -425 m 1,0,-1
 1220 1165 l 1,1,-1
 519 1165 l 1,2,-1
 519 -425 l 1,3,-1
 224 -425 l 1,4,-1
 224 1409 l 1,5,-1
 1502 1409 l 1,6,-1
 1502 -425 l 1,7,-1
 1220 -425 l 1,0,-1
EndSplineSet
Validated: 1
EndChar

StartChar: integral
Encoding: 8747 8747 155
Width: 561
GlyphClass: 2
Flags: W
LayerCount: 3
Fore
SplineSet
26 -425 m 0,0,1
 -17 -425 -17 -425 -63 -418 c 128,-1,2
 -109 -411 -109 -411 -129 -404 c 1,3,-1
 -129 -187 l 1,4,5
 -63 -212 -63 -212 -10 -212 c 0,6,7
 145 -212 145 -212 145 -15 c 2,8,-1
 145 1106 l 2,9,10
 145 1286 145 1286 251 1386.5 c 128,-1,11
 357 1487 357 1487 547 1487 c 0,12,13
 635 1487 635 1487 702 1468 c 1,14,-1
 702 1249 l 1,15,16
 652 1274 652 1274 583 1274 c 0,17,18
 506 1274 506 1274 466 1223.5 c 128,-1,19
 426 1173 426 1173 426 1079 c 2,20,-1
 426 -44 l 2,21,22
 426 -226 426 -226 320.5 -325.5 c 128,-1,23
 215 -425 215 -425 26 -425 c 0,0,1
EndSplineSet
Validated: 1
EndChar

StartChar: ordfeminine
Encoding: 170 170 156
Width: 758
GlyphClass: 2
Flags: W
LayerCount: 3
Fore
SplineSet
679 697 m 0,0,1
 613 697 613 697 577.5 723 c 128,-1,2
 542 749 542 749 542 795 c 1,3,-1
 545 836 l 1,4,-1
 542 836 l 1,5,6
 486 749 486 749 433 719 c 128,-1,7
 380 689 380 689 304 689 c 0,8,9
 215 689 215 689 159.5 743 c 128,-1,10
 104 797 104 797 104 884 c 0,11,12
 104 1001 104 1001 187 1063 c 128,-1,13
 270 1125 270 1125 457 1128 c 2,14,-1
 580 1130 l 1,15,-1
 585 1156 l 1,16,17
 594 1192 594 1192 594 1217 c 0,18,19
 594 1299 594 1299 512 1299 c 0,20,21
 452 1299 452 1299 422 1276 c 128,-1,22
 392 1253 392 1253 380 1208 c 1,23,-1
 209 1227 l 1,24,25
 229 1315 229 1315 303 1366.5 c 128,-1,26
 377 1418 377 1418 515 1418 c 0,27,28
 650 1418 650 1418 712.5 1371.5 c 128,-1,29
 775 1325 775 1325 775 1227 c 0,30,31
 775 1214 775 1214 773 1198.5 c 128,-1,32
 771 1183 771 1183 712 895 c 1,33,-1
 707 848 l 1,34,35
 707 805 707 805 759 805 c 0,36,37
 776 805 776 805 800 811 c 1,38,-1
 790 709 l 1,39,40
 755 697 755 697 679 697 c 0,0,1
561 1029 m 1,41,-1
 463 1027 l 2,42,43
 386 1025 386 1025 342 996.5 c 128,-1,44
 298 968 298 968 298 914 c 0,45,46
 298 863 298 863 323.5 839.5 c 128,-1,47
 349 816 349 816 387 816 c 0,48,49
 439 816 439 816 483 857 c 128,-1,50
 527 898 527 898 545 969 c 2,51,-1
 561 1029 l 1,41,-1
EndSplineSet
Validated: 1
EndChar

StartChar: ordmasculine
Encoding: 186 186 157
Width: 748
GlyphClass: 2
Flags: W
LayerCount: 3
Fore
SplineSet
828 1142 m 0,0,1
 828 939 828 939 711.5 814 c 128,-1,2
 595 689 595 689 409 689 c 0,3,4
 267 689 267 689 184.5 767.5 c 128,-1,5
 102 846 102 846 102 980 c 0,6,7
 102 1177 102 1177 216 1297.5 c 128,-1,8
 330 1418 330 1418 515 1418 c 0,9,10
 668 1418 668 1418 748 1344.5 c 128,-1,11
 828 1271 828 1271 828 1142 c 0,0,1
625 1128 m 1,12,13
 625 1201 625 1201 593.5 1240.5 c 128,-1,14
 562 1280 562 1280 501 1280 c 0,15,16
 449 1280 449 1280 415 1261 c 128,-1,17
 381 1242 381 1242 356.5 1203 c 128,-1,18
 332 1164 332 1164 319 1101.5 c 128,-1,19
 306 1039 306 1039 306 987 c 0,20,21
 306 908 306 908 337.5 867 c 128,-1,22
 369 826 369 826 429 826 c 0,23,24
 479 826 479 826 505 838 c 128,-1,25
 531 850 531 850 551.5 875 c 128,-1,26
 572 900 572 900 585.5 931.5 c 128,-1,27
 599 963 599 963 609.5 1009 c 128,-1,28
 620 1055 620 1055 625 1128 c 1,12,13
EndSplineSet
Validated: 1
EndChar

StartChar: Ohm
Encoding: 8486 8486 158
Width: 1573
GlyphClass: 2
Flags: W
LayerCount: 3
Fore
SplineSet
795 1430 m 256,0,1
 1110 1430 1110 1430 1289 1269 c 128,-1,2
 1468 1108 1468 1108 1468 828 c 0,3,4
 1468 615 1468 615 1365.5 464.5 c 128,-1,5
 1263 314 1263 314 1057 217 c 1,6,7
 1167 228 1167 228 1228 228 c 2,8,-1
 1496 228 l 1,9,-1
 1496 0 l 1,10,-1
 867 0 l 1,11,-1
 867 309 l 1,12,13
 1025 387 1025 387 1100.5 499 c 128,-1,14
 1176 611 1176 611 1176 774 c 0,15,16
 1176 976 1176 976 1076.5 1087 c 128,-1,17
 977 1198 977 1198 796 1198 c 0,18,19
 616 1198 616 1198 516 1087.5 c 128,-1,20
 416 977 416 977 416 774 c 0,21,22
 416 608 416 608 494.5 496.5 c 128,-1,23
 573 385 573 385 729 309 c 1,24,-1
 729 0 l 1,25,-1
 93 0 l 1,26,-1
 93 228 l 1,27,-1
 363 228 l 2,28,29
 427 228 427 228 537 217 c 1,30,31
 328 313 328 313 224.5 463.5 c 128,-1,32
 121 614 121 614 121 829 c 0,33,34
 121 1110 121 1110 300.5 1270 c 128,-1,35
 480 1430 480 1430 795 1430 c 256,0,1
EndSplineSet
Validated: 1
EndChar

StartChar: ae
Encoding: 230 230 159
Width: 1821
GlyphClass: 2
Flags: W
AnchorPoint: "Anchor21" 1360 0 basechar 0
AnchorPoint: "Anchor18" 1479 1840 basechar 0
AnchorPoint: "Anchor19" 0 1840 basechar 0
AnchorPoint: "Anchor16" 1821 1540 basechar 0
AnchorPoint: "Anchor17" 1821 -380 basechar 0
AnchorPoint: "Anchor14" 1690 900 basechar 0
AnchorPoint: "Anchor10" 990 1540 basechar 0
AnchorPoint: "Anchor11" 1580 1540 basechar 0
AnchorPoint: "Anchor12" 860 -130 basechar 0
LayerCount: 3
Fore
SplineSet
1027 476 m 1,0,1
 1020 438 1020 438 1020 387 c 0,2,3
 1020 281 1020 281 1066.5 224.5 c 128,-1,4
 1113 168 1113 168 1204 168 c 0,5,6
 1351 168 1351 168 1417 337 c 1,7,-1
 1662 263 l 1,8,9
 1587 104 1587 104 1476 42 c 128,-1,10
 1365 -20 1365 -20 1185 -20 c 0,11,12
 888 -20 888 -20 791 199 c 1,13,14
 740 119 740 119 677.5 71.5 c 128,-1,15
 615 24 615 24 541.5 2 c 128,-1,16
 468 -20 468 -20 349 -20 c 0,17,18
 209 -20 209 -20 125.5 63.5 c 128,-1,19
 42 147 42 147 42 278 c 0,20,21
 42 660 42 660 583 660 c 2,22,-1
 774 660 l 1,23,24
 795 755 795 755 795 791 c 0,25,26
 795 919 795 919 668 919 c 0,27,28
 574 919 574 919 528 882.5 c 128,-1,29
 482 846 482 846 465 777 c 1,30,-1
 202 808 l 1,31,32
 236 952 236 952 355.5 1027 c 128,-1,33
 475 1102 475 1102 673 1102 c 0,34,35
 880 1102 880 1102 973 989 c 1,36,37
 1113 1102 1113 1102 1315 1102 c 0,38,39
 1524 1102 1524 1102 1637.5 994.5 c 128,-1,40
 1751 887 1751 887 1751 691 c 0,41,42
 1751 592 1751 592 1727 476 c 1,43,-1
 1027 476 l 1,0,1
743 500 m 1,44,-1
 582 500 l 2,45,46
 469 500 469 500 405 454 c 128,-1,47
 341 408 341 408 341 325 c 0,48,49
 341 253 341 253 375.5 214.5 c 128,-1,50
 410 176 410 176 475 176 c 0,51,52
 558 176 558 176 626 240.5 c 128,-1,53
 694 305 694 305 721 411 c 2,54,-1
 743 500 l 1,44,-1
1491 663 m 1,55,-1
 1494 719 l 1,56,57
 1494 826 1494 826 1444.5 875 c 128,-1,58
 1395 924 1395 924 1315 924 c 0,59,60
 1219 924 1219 924 1153.5 857.5 c 128,-1,61
 1088 791 1088 791 1060 663 c 1,62,-1
 1491 663 l 1,55,-1
EndSplineSet
Validated: 1
EndChar

StartChar: oslash
Encoding: 248 248 160
Width: 1251
GlyphClass: 2
Flags: W
AnchorPoint: "Anchor21" 680 0 basechar 0
AnchorPoint: "Anchor18" 1479 1840 basechar 0
AnchorPoint: "Anchor19" 0 1840 basechar 0
AnchorPoint: "Anchor16" 1251 1540 basechar 0
AnchorPoint: "Anchor17" 1251 -380 basechar 0
AnchorPoint: "Anchor14" 1120 900 basechar 0
AnchorPoint: "Anchor10" 720 1200 basechar 0
AnchorPoint: "Anchor11" 1120 1200 basechar 0
AnchorPoint: "Anchor12" 630 -130 basechar 0
LayerCount: 3
Fore
SplineSet
42 -38 m 1,0,-1
 173 114 l 1,1,2
 63 228 63 228 63 419 c 0,3,4
 63 620 63 620 142.5 775 c 128,-1,5
 222 930 222 930 369 1015.5 c 128,-1,6
 516 1101 516 1101 704 1101 c 0,7,8
 863 1101 863 1101 977 1047 c 1,9,-1
 1037 1116 l 1,10,-1
 1226 1116 l 1,11,-1
 1092 960 l 1,12,13
 1185 855 1185 855 1185 683 c 0,14,15
 1185 476 1185 476 1103.5 315 c 128,-1,16
 1022 154 1022 154 872.5 67 c 128,-1,17
 723 -20 723 -20 535 -20 c 0,18,19
 397 -20 397 -20 291 29 c 1,20,-1
 233 -38 l 1,21,-1
 42 -38 l 1,0,-1
358 431 m 0,22,23
 358 381 358 381 366 338 c 1,24,-1
 821 865 l 1,25,26
 771 909 771 909 683 909 c 0,27,28
 569 909 569 909 501.5 849 c 128,-1,29
 434 789 434 789 396 666.5 c 128,-1,30
 358 544 358 544 358 431 c 0,22,23
891 662 m 1,31,32
 891 694 891 694 887 722 c 1,33,-1
 443 206 l 1,34,35
 492 172 492 172 566 172 c 0,36,37
 678 172 678 172 743.5 228.5 c 128,-1,38
 809 285 809 285 846.5 400 c 128,-1,39
 884 515 884 515 891 662 c 1,31,32
EndSplineSet
Validated: 1
EndChar

StartChar: questiondown
Encoding: 191 191 161
Width: 1251
GlyphClass: 2
Flags: W
LayerCount: 3
Fore
SplineSet
490 -348 m 0,0,1
 276 -348 276 -348 151 -254 c 128,-1,2
 26 -160 26 -160 26 7 c 0,3,4
 26 97 26 97 63.5 168 c 128,-1,5
 101 239 101 239 169 299.5 c 128,-1,6
 237 360 237 360 394 447 c 1,7,8
 477 502 477 502 504 528.5 c 128,-1,9
 531 555 531 555 547.5 585.5 c 128,-1,10
 564 616 564 616 569 656 c 1,11,-1
 836 656 l 1,12,13
 822 579 822 579 791 521.5 c 128,-1,14
 760 464 760 464 711.5 417.5 c 128,-1,15
 663 371 663 371 545 298 c 0,16,17
 476 255 476 255 430.5 222 c 128,-1,18
 385 189 385 189 358 158.5 c 128,-1,19
 331 128 331 128 320 97 c 128,-1,20
 309 66 309 66 309 27 c 0,21,22
 309 -36 309 -36 357 -77.5 c 128,-1,23
 405 -119 405 -119 506 -119 c 0,24,25
 733 -119 733 -119 785 74 c 1,26,-1
 1051 34 l 1,27,28
 934 -348 934 -348 490 -348 c 0,0,1
926 1082 m 1,29,-1
 874 812 l 1,30,-1
 585 812 l 1,31,-1
 637 1082 l 1,32,-1
 926 1082 l 1,29,-1
EndSplineSet
Validated: 1
EndChar

StartChar: exclamdown
Encoding: 161 161 162
Width: 682
GlyphClass: 2
Flags: W
LayerCount: 3
Fore
SplineSet
247 812 m 1,0,-1
 300 1082 l 1,1,-1
 588 1082 l 1,2,-1
 535 812 l 1,3,-1
 247 812 l 1,0,-1
20 -327 m 1,4,-1
 242 654 l 1,5,-1
 472 654 l 1,6,-1
 314 -327 l 1,7,-1
 20 -327 l 1,4,-1
EndSplineSet
Validated: 1
EndChar

StartChar: logicalnot
Encoding: 172 172 163
Width: 1196
GlyphClass: 2
Flags: W
LayerCount: 3
Fore
SplineSet
878 141 m 1,0,-1
 878 569 l 1,1,-1
 75 569 l 1,2,-1
 75 793 l 1,3,-1
 1102 793 l 1,4,-1
 1102 141 l 1,5,-1
 878 141 l 1,0,-1
EndSplineSet
Validated: 1
EndChar

StartChar: radical
Encoding: 8730 8730 164
Width: 1124
GlyphClass: 2
Flags: W
LayerCount: 3
Fore
SplineSet
746 -25 m 1,0,-1
 578 -25 l 1,1,-1
 308 729 l 1,2,-1
 124 729 l 1,3,-1
 124 895 l 1,4,-1
 435 895 l 1,5,-1
 654 260 l 1,6,-1
 1066 1620 l 1,7,-1
 1252 1620 l 1,8,-1
 746 -25 l 1,0,-1
EndSplineSet
Validated: 1
EndChar

StartChar: florin
Encoding: 402 402 165
Width: 1139
GlyphClass: 2
Flags: W
AnchorPoint: "Anchor21" 420 -400 basechar 0
AnchorPoint: "Anchor18" 1479 1840 basechar 0
AnchorPoint: "Anchor19" 0 1840 basechar 0
AnchorPoint: "Anchor16" 1139 1540 basechar 0
AnchorPoint: "Anchor17" 1139 -380 basechar 0
AnchorPoint: "Anchor10" 900 1540 basechar 0
AnchorPoint: "Anchor11" 1100 1540 basechar 0
AnchorPoint: "Anchor12" 430 -540 basechar 0
LayerCount: 3
Fore
SplineSet
756 892 m 1,0,-1
 498 -425 l 1,1,-1
 218 -425 l 1,2,-1
 476 892 l 1,3,-1
 318 892 l 1,4,-1
 355 1082 l 1,5,-1
 513 1082 l 1,6,-1
 535 1195 l 2,7,8
 565 1350 565 1350 659.5 1417 c 128,-1,9
 754 1484 754 1484 926 1484 c 0,10,11
 999 1484 999 1484 1081 1467 c 1,12,-1
 1045 1286 l 1,13,14
 1034 1288 1034 1288 1002 1292 c 128,-1,15
 970 1296 970 1296 949 1296 c 0,16,17
 882 1296 882 1296 852 1264 c 128,-1,18
 822 1232 822 1232 809 1167 c 2,19,-1
 793 1082 l 1,20,-1
 1006 1082 l 1,21,-1
 969 892 l 1,22,-1
 756 892 l 1,0,-1
EndSplineSet
Validated: 1
EndChar

StartChar: approxequal
Encoding: 8776 8776 166
Width: 1124
GlyphClass: 2
Flags: W
LayerCount: 3
Fore
SplineSet
839 756 m 0,0,1
 764 756 764 756 691.5 776.5 c 128,-1,2
 619 797 619 797 544 823 c 0,3,4
 412 870 412 870 323 870 c 0,5,6
 256 870 256 870 197 850.5 c 128,-1,7
 138 831 138 831 68 782 c 1,8,-1
 68 995 l 1,9,10
 178 1079 178 1079 339 1079 c 0,11,12
 419 1079 419 1079 495.5 1057 c 128,-1,13
 572 1035 572 1035 646 1009 c 1,14,15
 784 963 784 963 858 963 c 0,16,17
 992 963 992 963 1106 1055 c 1,18,-1
 1106 836 l 1,19,20
 1043 791 1043 791 983 773.5 c 128,-1,21
 923 756 923 756 839 756 c 0,0,1
839 274 m 0,22,23
 718 274 718 274 544 344 c 1,24,25
 415 389 415 389 323 389 c 0,26,27
 252 389 252 389 192.5 367.5 c 128,-1,28
 133 346 133 346 68 301 c 1,29,-1
 68 514 l 1,30,31
 181 598 181 598 339 598 c 0,32,33
 422 598 422 598 502 575 c 128,-1,34
 582 552 582 552 658 526 c 1,35,36
 760 494 760 494 795 487.5 c 128,-1,37
 830 481 830 481 858 481 c 0,38,39
 992 481 992 481 1106 573 c 1,40,-1
 1106 354 l 1,41,42
 1042 310 1042 310 983.5 292 c 128,-1,43
 925 274 925 274 839 274 c 0,22,23
EndSplineSet
Validated: 1
EndChar

StartChar: Delta
Encoding: 8710 8710 167
Width: 1253
GlyphClass: 2
Flags: W
LayerCount: 3
Fore
SplineSet
43 0 m 1,0,-1
 43 215 l 1,1,-1
 440 1409 l 1,2,-1
 808 1409 l 1,3,-1
 1209 215 l 1,4,-1
 1209 0 l 1,5,-1
 43 0 l 1,0,-1
624 1208 m 1,6,-1
 615 1174 l 1,7,-1
 543 920 l 1,8,-1
 336 231 l 1,9,-1
 916 231 l 1,10,11
 627 1193 627 1193 624 1208 c 1,6,-1
EndSplineSet
Validated: 1
EndChar

StartChar: guillemotleft
Encoding: 171 171 168
Width: 1139
GlyphClass: 2
Flags: W
LayerCount: 3
Fore
SplineSet
722 139 m 1,0,-1
 530 500 l 1,1,-1
 544 571 l 1,2,-1
 867 938 l 1,3,-1
 1106 938 l 1,4,-1
 1100 897 l 1,5,-1
 771 531 l 1,6,-1
 959 178 l 1,7,-1
 954 139 l 1,8,-1
 722 139 l 1,0,-1
264 139 m 1,9,-1
 72 500 l 1,10,-1
 86 571 l 1,11,-1
 409 938 l 1,12,-1
 648 938 l 1,13,-1
 642 897 l 1,14,-1
 313 531 l 1,15,-1
 501 178 l 1,16,-1
 496 139 l 1,17,-1
 264 139 l 1,9,-1
EndSplineSet
Validated: 1
EndChar

StartChar: guillemotright
Encoding: 187 187 169
Width: 1139
GlyphClass: 2
Flags: W
LayerCount: 3
Fore
SplineSet
422 938 m 1,0,-1
 614 577 l 1,1,-1
 600 506 l 1,2,-1
 277 139 l 1,3,-1
 38 139 l 1,4,-1
 44 180 l 1,5,-1
 373 546 l 1,6,-1
 185 899 l 1,7,-1
 190 938 l 1,8,-1
 422 938 l 1,0,-1
880 938 m 1,9,-1
 1072 577 l 1,10,-1
 1058 506 l 1,11,-1
 735 139 l 1,12,-1
 496 139 l 1,13,-1
 502 180 l 1,14,-1
 831 546 l 1,15,-1
 643 899 l 1,16,-1
 648 938 l 1,17,-1
 880 938 l 1,9,-1
EndSplineSet
Validated: 1
EndChar

StartChar: ellipsis
Encoding: 8230 8230 170
Width: 2048
GlyphClass: 2
Flags: W
LayerCount: 3
Fore
SplineSet
133 0 m 1,0,-1
 192 305 l 1,1,-1
 481 305 l 1,2,-1
 422 0 l 1,3,-1
 133 0 l 1,0,-1
787 0 m 1,4,-1
 846 305 l 1,5,-1
 1135 305 l 1,6,-1
 1076 0 l 1,7,-1
 787 0 l 1,4,-1
1437 0 m 1,8,-1
 1496 305 l 1,9,-1
 1785 305 l 1,10,-1
 1726 0 l 1,11,-1
 1437 0 l 1,8,-1
EndSplineSet
Validated: 1
EndChar

StartChar: OE
Encoding: 338 338 174
Width: 2048
GlyphClass: 2
Flags: W
AnchorPoint: "Anchor21" 1800 0 basechar 0
AnchorPoint: "Anchor18" 1479 1840 basechar 0
AnchorPoint: "Anchor19" 0 1840 basechar 0
AnchorPoint: "Anchor16" 2048 1840 basechar 0
AnchorPoint: "Anchor17" 2048 -380 basechar 0
AnchorPoint: "Anchor10" 1250 1540 basechar 0
AnchorPoint: "Anchor11" 1940 1540 basechar 0
AnchorPoint: "Anchor12" 1100 -130 basechar 0
LayerCount: 3
Fore
SplineSet
917 0 m 1,0,1
 854 -10 854 -10 706 -10 c 0,2,3
 420 -10 420 -10 261.5 142.5 c 128,-1,4
 103 295 103 295 103 573 c 0,5,6
 103 743 103 743 161.5 900.5 c 128,-1,7
 220 1058 220 1058 334.5 1176.5 c 128,-1,8
 449 1295 449 1295 607 1357.5 c 128,-1,9
 765 1420 765 1420 949 1420 c 0,10,11
 1028 1420 1028 1420 1087 1415 c 2,12,-1
 1150 1409 l 1,13,-1
 2099 1409 l 1,14,-1
 2055 1182 l 1,15,-1
 1388 1182 l 1,16,-1
 1319 827 l 1,17,-1
 1925 827 l 1,18,-1
 1882 606 l 1,19,-1
 1276 606 l 1,20,-1
 1203 231 l 1,21,-1
 1911 231 l 1,22,-1
 1866 0 l 1,23,-1
 917 0 l 1,0,1
736 222 m 0,24,25
 838 222 838 222 909 242 c 1,26,-1
 1089 1169 l 1,27,28
 1058 1179 1058 1179 1009 1183.5 c 128,-1,29
 960 1188 960 1188 939 1188 c 0,30,31
 812 1188 812 1188 714.5 1146.5 c 128,-1,32
 617 1105 617 1105 547 1020 c 128,-1,33
 477 935 477 935 440 812.5 c 128,-1,34
 403 690 403 690 403 563 c 0,35,36
 403 399 403 399 489 310.5 c 128,-1,37
 575 222 575 222 736 222 c 0,24,25
EndSplineSet
Validated: 1
EndChar

StartChar: oe
Encoding: 339 339 175
Width: 1933
GlyphClass: 2
Flags: W
AnchorPoint: "Anchor21" 1460 0 basechar 0
AnchorPoint: "Anchor18" 1479 1840 basechar 0
AnchorPoint: "Anchor19" 0 1840 basechar 0
AnchorPoint: "Anchor16" 1933 1540 basechar 0
AnchorPoint: "Anchor17" 1933 -380 basechar 0
AnchorPoint: "Anchor14" 1820 900 basechar 0
AnchorPoint: "Anchor10" 1100 1200 basechar 0
AnchorPoint: "Anchor11" 1800 1260 basechar 0
AnchorPoint: "Anchor12" 1020 -130 basechar 0
LayerCount: 3
Fore
SplineSet
1163 476 m 1,0,1
 1156 438 1156 438 1156 387 c 0,2,3
 1156 281 1156 281 1202.5 224.5 c 128,-1,4
 1249 168 1249 168 1340 168 c 0,5,6
 1487 168 1487 168 1553 337 c 1,7,-1
 1798 263 l 1,8,9
 1723 104 1723 104 1612 42 c 128,-1,10
 1501 -20 1501 -20 1321 -20 c 0,11,12
 1074 -20 1074 -20 955 132 c 1,13,14
 887 57 887 57 777.5 18.5 c 128,-1,15
 668 -20 668 -20 530 -20 c 0,16,17
 312 -20 312 -20 185 97.5 c 128,-1,18
 58 215 58 215 58 419 c 0,19,20
 58 620 58 620 137.5 775 c 128,-1,21
 217 930 217 930 364 1015.5 c 128,-1,22
 511 1101 511 1101 699 1101 c 0,23,24
 824 1101 824 1101 911 1067.5 c 128,-1,25
 998 1034 998 1034 1068 960 c 1,26,27
 1220 1102 1220 1102 1451 1102 c 0,28,29
 1660 1102 1660 1102 1773.5 994.5 c 128,-1,30
 1887 887 1887 887 1887 691 c 0,31,32
 1887 592 1887 592 1863 476 c 1,33,-1
 1163 476 l 1,0,1
886 662 m 1,34,35
 886 909 886 909 678 909 c 0,36,37
 564 909 564 909 496.5 849 c 128,-1,38
 429 789 429 789 391 666.5 c 128,-1,39
 353 544 353 544 353 431 c 0,40,41
 353 307 353 307 405 239.5 c 128,-1,42
 457 172 457 172 562 172 c 0,43,44
 676 172 676 172 741 230.5 c 128,-1,45
 806 289 806 289 843 406 c 128,-1,46
 880 523 880 523 886 662 c 1,34,35
1627 663 m 1,47,-1
 1630 719 l 1,48,49
 1630 826 1630 826 1580.5 875 c 128,-1,50
 1531 924 1531 924 1451 924 c 0,51,52
 1355 924 1355 924 1289.5 857.5 c 128,-1,53
 1224 791 1224 791 1196 663 c 1,54,-1
 1627 663 l 1,47,-1
EndSplineSet
Validated: 1
EndChar

StartChar: endash
Encoding: 8211 8211 176
Width: 1139
GlyphClass: 2
Flags: W
LayerCount: 3
Fore
SplineSet
44 448 m 1,0,-1
 76 651 l 1,1,-1
 1090 651 l 1,2,-1
 1058 448 l 1,3,-1
 44 448 l 1,0,-1
EndSplineSet
Validated: 1
EndChar

StartChar: emdash
Encoding: 8212 8212 177
Width: 2048
GlyphClass: 2
Flags: W
LayerCount: 3
Fore
SplineSet
-19 448 m 1,0,-1
 19 651 l 1,1,-1
 2067 651 l 1,2,-1
 2028 448 l 1,3,-1
 -19 448 l 1,0,-1
EndSplineSet
Validated: 1
EndChar

StartChar: quotedblleft
Encoding: 8220 8220 178
Width: 1024
GlyphClass: 2
Flags: W
LayerCount: 3
Fore
SplineSet
617 831 m 1,0,-1
 655 1026 l 2,1,2
 678 1143 678 1143 721.5 1235.5 c 128,-1,3
 765 1328 765 1328 841 1409 c 1,4,-1
 1023 1409 l 1,5,6
 947 1333 947 1333 896 1249.5 c 128,-1,7
 845 1166 845 1166 830 1092 c 1,8,-1
 957 1092 l 1,9,-1
 906 831 l 1,10,-1
 617 831 l 1,0,-1
189 831 m 1,11,-1
 227 1026 l 2,12,13
 251 1149 251 1149 295 1240.5 c 128,-1,14
 339 1332 339 1332 410 1409 c 1,15,-1
 593 1409 l 1,16,17
 517 1333 517 1333 466 1249.5 c 128,-1,18
 415 1166 415 1166 400 1092 c 1,19,-1
 527 1092 l 1,20,-1
 476 831 l 1,21,-1
 189 831 l 1,11,-1
EndSplineSet
Validated: 1
EndChar

StartChar: quotedblright
Encoding: 8221 8221 179
Width: 1024
GlyphClass: 2
Flags: W
LayerCount: 3
Fore
SplineSet
801 831 m 1,0,-1
 617 831 l 1,1,2
 781 995 781 995 812 1149 c 1,3,-1
 685 1149 l 1,4,-1
 736 1409 l 1,5,-1
 1023 1409 l 1,6,-1
 985 1217 l 2,7,8
 961 1091 961 1091 916.5 1000 c 128,-1,9
 872 909 872 909 801 831 c 1,0,-1
371 831 m 1,10,-1
 189 831 l 1,11,12
 352 999 352 999 382 1149 c 1,13,-1
 255 1149 l 1,14,-1
 306 1409 l 1,15,-1
 593 1409 l 1,16,-1
 555 1217 l 2,17,18
 532 1096 532 1096 490 1005.5 c 128,-1,19
 448 915 448 915 371 831 c 1,10,-1
EndSplineSet
Validated: 1
EndChar

StartChar: quoteleft
Encoding: 8216 8216 180
Width: 569
GlyphClass: 2
Flags: W
LayerCount: 3
Fore
SplineSet
189 831 m 1,0,-1
 227 1026 l 2,1,2
 251 1149 251 1149 295 1240.5 c 128,-1,3
 339 1332 339 1332 410 1409 c 1,4,-1
 593 1409 l 1,5,6
 517 1333 517 1333 466 1249.5 c 128,-1,7
 415 1166 415 1166 400 1092 c 1,8,-1
 527 1092 l 1,9,-1
 476 831 l 1,10,-1
 189 831 l 1,0,-1
EndSplineSet
Validated: 1
EndChar

StartChar: quoteright
Encoding: 8217 8217 181
Width: 569
GlyphClass: 2
Flags: W
LayerCount: 3
Fore
SplineSet
371 831 m 1,0,-1
 189 831 l 1,1,2
 352 999 352 999 382 1149 c 1,3,-1
 255 1149 l 1,4,-1
 306 1409 l 1,5,-1
 593 1409 l 1,6,-1
 555 1214 l 2,7,8
 532 1097 532 1097 489.5 1006 c 128,-1,9
 447 915 447 915 371 831 c 1,0,-1
EndSplineSet
Validated: 1
EndChar

StartChar: divide
Encoding: 247 247 182
Width: 1124
GlyphClass: 2
Flags: W
LayerCount: 3
Fore
SplineSet
462 961 m 1,0,-1
 462 1194 l 1,1,-1
 700 1194 l 1,2,-1
 700 961 l 1,3,-1
 462 961 l 1,0,-1
69 569 m 1,4,-1
 69 793 l 1,5,-1
 1096 793 l 1,6,-1
 1096 569 l 1,7,-1
 69 569 l 1,4,-1
462 170 m 1,8,-1
 462 403 l 1,9,-1
 700 403 l 1,10,-1
 700 170 l 1,11,-1
 462 170 l 1,8,-1
EndSplineSet
Validated: 1
EndChar

StartChar: lozenge
Encoding: 9674 9674 183
Width: 1012
GlyphClass: 2
Flags: W
LayerCount: 3
Fore
SplineSet
598 0 m 1,0,-1
 494 0 l 1,1,-1
 43 721 l 1,2,-1
 494 1446 l 1,3,-1
 598 1446 l 1,4,-1
 1052 723 l 1,5,-1
 598 0 l 1,0,-1
547 1204 m 1,6,-1
 258 723 l 1,7,-1
 547 229 l 1,8,-1
 836 723 l 1,9,-1
 547 1204 l 1,6,-1
EndSplineSet
Validated: 1
EndChar

StartChar: fraction
Encoding: 8260 8260 186
Width: 342
GlyphClass: 2
Flags: W
LayerCount: 3
Fore
SplineSet
-231 0 m 1,0,-1
 -428 0 l 1,1,-1
 658 1409 l 1,2,-1
 857 1409 l 1,3,-1
 -231 0 l 1,0,-1
EndSplineSet
Validated: 1
EndChar

StartChar: Euro
Encoding: 8364 8364 187
Width: 1139
GlyphClass: 2
Flags: W
LayerCount: 3
Fore
SplineSet
803 1210 m 0,0,1
 696 1210 696 1210 633 1136 c 128,-1,2
 570 1062 570 1062 534 915 c 1,3,-1
 830 915 l 1,4,-1
 801 766 l 1,5,-1
 500 766 l 1,6,7
 486 713 486 713 481 659 c 1,8,-1
 791 659 l 1,9,-1
 762 510 l 1,10,-1
 458 510 l 1,11,-1
 455 441 l 1,12,13
 455 316 455 316 499 257.5 c 128,-1,14
 543 199 543 199 619 199 c 0,15,16
 754 199 754 199 811 327 c 1,17,-1
 1054 287 l 1,18,19
 1003 135 1003 135 893 58.5 c 128,-1,20
 783 -18 783 -18 619 -18 c 0,21,22
 393 -18 393 -18 281 116 c 128,-1,23
 169 250 169 250 169 510 c 1,24,-1
 28 510 l 1,25,-1
 59 659 l 1,26,-1
 186 659 l 1,27,28
 195 727 195 727 205 766 c 1,29,-1
 79 766 l 1,30,-1
 111 915 l 1,31,-1
 245 915 l 1,32,33
 319 1176 319 1176 466.5 1303 c 128,-1,34
 614 1430 614 1430 848 1430 c 0,35,36
 1193 1430 1193 1430 1213 1130 c 1,37,-1
 956 1083 l 1,38,39
 945 1148 945 1148 911.5 1179 c 128,-1,40
 878 1210 878 1210 803 1210 c 0,0,1
EndSplineSet
Validated: 1
EndChar

StartChar: guilsinglleft
Encoding: 8249 8249 188
Width: 682
GlyphClass: 2
Flags: W
LayerCount: 3
Fore
SplineSet
265 139 m 1,0,-1
 73 500 l 1,1,-1
 87 571 l 1,2,-1
 410 938 l 1,3,-1
 649 938 l 1,4,-1
 643 897 l 1,5,-1
 314 531 l 1,6,-1
 502 178 l 1,7,-1
 497 139 l 1,8,-1
 265 139 l 1,0,-1
EndSplineSet
Validated: 1
EndChar

StartChar: guilsinglright
Encoding: 8250 8250 189
Width: 682
GlyphClass: 2
Flags: W
LayerCount: 3
Fore
SplineSet
417 938 m 1,0,-1
 609 577 l 1,1,-1
 595 506 l 1,2,-1
 272 139 l 1,3,-1
 33 139 l 1,4,-1
 39 180 l 1,5,-1
 368 546 l 1,6,-1
 180 899 l 1,7,-1
 185 938 l 1,8,-1
 417 938 l 1,0,-1
EndSplineSet
Validated: 1
EndChar

StartChar: daggerdbl
Encoding: 8225 8225 190
Width: 1139
GlyphClass: 2
Flags: W
LayerCount: 3
Fore
SplineSet
545 980 m 1,0,-1
 200 953 l 1,1,-1
 240 1157 l 1,2,-1
 574 1128 l 1,3,-1
 627 1484 l 1,4,-1
 842 1484 l 1,5,-1
 757 1128 l 1,6,-1
 1124 1157 l 1,7,-1
 1084 953 l 1,8,-1
 728 980 l 1,9,-1
 642 670 l 1,10,-1
 608 363 l 1,11,-1
 974 390 l 1,12,-1
 934 186 l 1,13,-1
 580 215 l 1,14,-1
 526 -141 l 1,15,-1
 311 -141 l 1,16,-1
 397 215 l 1,17,-1
 50 186 l 1,18,-1
 90 390 l 1,19,-1
 425 363 l 1,20,-1
 511 670 l 1,21,-1
 545 980 l 1,0,-1
EndSplineSet
Validated: 1
EndChar

StartChar: bulletoperator
Encoding: 8729 8729 191
Width: 569
GlyphClass: 2
Flags: W
LayerCount: 3
Fore
SplineSet
126 531 m 1,0,-1
 185 836 l 1,1,-1
 473 836 l 1,2,-1
 414 531 l 1,3,-1
 126 531 l 1,0,-1
EndSplineSet
Validated: 1
EndChar

StartChar: quotesinglbase
Encoding: 8218 8218 192
Width: 569
GlyphClass: 2
Flags: W
LayerCount: 3
Fore
SplineSet
167 -317 m 1,0,-1
 -18 -317 l 1,1,2
 61 -238 61 -238 112.5 -154 c 128,-1,3
 164 -70 164 -70 177 0 c 1,4,-1
 48 0 l 1,5,-1
 99 260 l 1,6,-1
 387 260 l 1,7,-1
 349 66 l 2,8,9
 326 -54 326 -54 283 -145.5 c 128,-1,10
 240 -237 240 -237 167 -317 c 1,0,-1
EndSplineSet
Validated: 1
EndChar

StartChar: quotedblbase
Encoding: 8222 8222 193
Width: 1024
GlyphClass: 2
Flags: W
LayerCount: 3
Fore
SplineSet
602 -317 m 1,0,-1
 418 -317 l 1,1,2
 499 -236 499 -236 550 -151 c 128,-1,3
 601 -66 601 -66 612 0 c 1,4,-1
 485 0 l 1,5,-1
 536 260 l 1,6,-1
 823 260 l 1,7,-1
 785 66 l 2,8,9
 762 -54 762 -54 719.5 -145 c 128,-1,10
 677 -236 677 -236 602 -317 c 1,0,-1
172 -317 m 1,11,-1
 -10 -317 l 1,12,13
 68 -239 68 -239 119 -154 c 128,-1,14
 170 -69 170 -69 182 0 c 1,15,-1
 55 0 l 1,16,-1
 106 260 l 1,17,-1
 393 260 l 1,18,-1
 355 66 l 2,19,20
 332 -53 332 -53 289 -146 c 128,-1,21
 246 -239 246 -239 172 -317 c 1,11,-1
EndSplineSet
Validated: 1
EndChar

StartChar: perthousand
Encoding: 8240 8240 194
Width: 2048
GlyphClass: 2
Flags: W
LayerCount: 3
Fore
SplineSet
471 1419 m 0,0,1
 590 1419 590 1419 654 1356 c 128,-1,2
 718 1293 718 1293 718 1172 c 0,3,4
 718 1103 718 1103 697 1030 c 1,5,6
 665 876 665 876 576.5 788 c 128,-1,7
 488 700 488 700 359 700 c 0,8,9
 246 700 246 700 184.5 766.5 c 128,-1,10
 123 833 123 833 123 953 c 0,11,12
 123 1024 123 1024 142 1094 c 1,13,14
 210 1419 210 1419 471 1419 c 0,0,1
470 1298 m 0,15,16
 409 1298 409 1298 372.5 1250.5 c 128,-1,17
 336 1203 336 1203 315 1107 c 128,-1,18
 294 1011 294 1011 294 942 c 0,19,20
 294 829 294 829 363 829 c 0,21,22
 427 829 427 829 465.5 882 c 128,-1,23
 504 935 504 935 524 1038 c 1,24,25
 546 1125 546 1125 546 1187 c 0,26,27
 546 1298 546 1298 470 1298 c 0,15,16
1066 712 m 0,28,29
 1185 712 1185 712 1249 649 c 128,-1,30
 1313 586 1313 586 1313 465 c 0,31,32
 1313 396 1313 396 1292 323 c 1,33,34
 1260 169 1260 169 1171.5 81 c 128,-1,35
 1083 -7 1083 -7 954 -7 c 0,36,37
 841 -7 841 -7 779.5 59.5 c 128,-1,38
 718 126 718 126 718 246 c 0,39,40
 718 317 718 317 737 387 c 1,41,42
 805 712 805 712 1066 712 c 0,28,29
1065 591 m 0,43,44
 1004 591 1004 591 967.5 543.5 c 128,-1,45
 931 496 931 496 910 400 c 128,-1,46
 889 304 889 304 889 235 c 0,47,48
 889 122 889 122 958 122 c 0,49,50
 1022 122 1022 122 1060.5 175 c 128,-1,51
 1099 228 1099 228 1119 331 c 1,52,53
 1141 418 1141 418 1141 480 c 0,54,55
 1141 591 1141 591 1065 591 c 0,43,44
1730 712 m 0,56,57
 1849 712 1849 712 1913 649 c 128,-1,58
 1977 586 1977 586 1977 465 c 0,59,60
 1977 396 1977 396 1956 323 c 1,61,62
 1924 169 1924 169 1835.5 81 c 128,-1,63
 1747 -7 1747 -7 1618 -7 c 0,64,65
 1505 -7 1505 -7 1443.5 59.5 c 128,-1,66
 1382 126 1382 126 1382 246 c 0,67,68
 1382 317 1382 317 1401 387 c 1,69,70
 1469 712 1469 712 1730 712 c 0,56,57
1729 591 m 0,71,72
 1668 591 1668 591 1631.5 543.5 c 128,-1,73
 1595 496 1595 496 1574 400 c 128,-1,74
 1553 304 1553 304 1553 235 c 0,75,76
 1553 122 1553 122 1622 122 c 0,77,78
 1686 122 1686 122 1724.5 175 c 128,-1,79
 1763 228 1763 228 1783 331 c 1,80,81
 1805 418 1805 418 1805 480 c 0,82,83
 1805 591 1805 591 1729 591 c 0,71,72
269 0 m 1,84,-1
 72 0 l 1,85,-1
 1158 1409 l 1,86,-1
 1357 1409 l 1,87,-1
 269 0 l 1,84,-1
EndSplineSet
Validated: 1
EndChar

StartChar: dotlessi
Encoding: 305 305 210
Width: 569
GlyphClass: 2
Flags: W
AnchorPoint: "Anchor21" 210 0 basechar 0
AnchorPoint: "Anchor18" 1479 1840 basechar 0
AnchorPoint: "Anchor19" 0 1840 basechar 0
AnchorPoint: "Anchor16" 569 1540 basechar 0
AnchorPoint: "Anchor17" 569 -380 basechar 0
AnchorPoint: "Anchor14" 410 1100 basechar 0
AnchorPoint: "Anchor10" 440 1540 basechar 0
AnchorPoint: "Anchor11" 440 1540 basechar 0
AnchorPoint: "Anchor12" 280 -130 basechar 0
LayerCount: 3
Fore
SplineSet
35 0 m 1,0,-1
 245 1082 l 1,1,-1
 526 1082 l 1,2,-1
 315 0 l 1,3,-1
 35 0 l 1,0,-1
EndSplineSet
Validated: 1
EndChar

StartChar: circumflex
Encoding: 710 710 211
Width: 682
GlyphClass: 2
Flags: W
LayerCount: 3
Fore
SplineSet
818 1211 m 1,0,-1
 813 1183 l 1,1,-1
 663 1183 l 1,2,-1
 497 1375 l 1,3,-1
 493 1375 l 1,4,-1
 245 1183 l 1,5,-1
 76 1183 l 1,6,-1
 81 1211 l 1,7,-1
 401 1529 l 1,8,-1
 630 1529 l 1,9,-1
 818 1211 l 1,0,-1
EndSplineSet
Validated: 1
EndChar

StartChar: tilde
Encoding: 732 732 212
Width: 682
GlyphClass: 2
Flags: W
LayerCount: 3
Fore
SplineSet
624 1183 m 0,0,1
 580 1183 580 1183 539.5 1202 c 128,-1,2
 499 1221 499 1221 461.5 1244.5 c 128,-1,3
 424 1268 424 1268 390 1287 c 128,-1,4
 356 1306 356 1306 326 1306 c 0,5,6
 284 1306 284 1306 256.5 1280.5 c 128,-1,7
 229 1255 229 1255 204 1183 c 1,8,-1
 68 1183 l 1,9,10
 107 1341 107 1341 176.5 1408.5 c 128,-1,11
 246 1476 246 1476 349 1476 c 0,12,13
 394 1476 394 1476 435.5 1457 c 128,-1,14
 477 1438 477 1438 514 1414.5 c 128,-1,15
 551 1391 551 1391 584 1372 c 128,-1,16
 617 1353 617 1353 646 1353 c 0,17,18
 689 1353 689 1353 717 1381 c 128,-1,19
 745 1409 745 1409 769 1476 c 1,20,-1
 904 1476 l 1,21,22
 865 1318 865 1318 795.5 1250.5 c 128,-1,23
 726 1183 726 1183 624 1183 c 0,0,1
EndSplineSet
Validated: 1
EndChar

StartChar: firsttonechinese
Encoding: 713 713 213
Width: 682
GlyphClass: 2
Flags: W
LayerCount: 3
Fore
SplineSet
753 1203 m 5,0,-1
 167 1203 l 5,1,-1
 200 1371 l 5,2,-1
 790 1371 l 5,3,-1
 753 1203 l 5,0,-1
EndSplineSet
Validated: 1
EndChar

StartChar: breve
Encoding: 728 728 214
Width: 682
GlyphClass: 2
Flags: W
LayerCount: 3
Fore
SplineSet
470 1183 m 0,0,1
 330 1183 330 1183 243.5 1261.5 c 128,-1,2
 157 1340 157 1340 157 1468 c 1,3,-1
 159 1506 l 1,4,-1
 322 1506 l 1,5,6
 322 1432 322 1432 367.5 1386 c 128,-1,7
 413 1340 413 1340 486 1340 c 0,8,9
 564 1340 564 1340 621.5 1383.5 c 128,-1,10
 679 1427 679 1427 703 1506 c 1,11,-1
 867 1506 l 1,12,13
 824 1342 824 1342 727 1262.5 c 128,-1,14
 630 1183 630 1183 470 1183 c 0,0,1
EndSplineSet
Validated: 1
EndChar

StartChar: dotaccent
Encoding: 729 729 215
Width: 682
GlyphClass: 2
Flags: W
LayerCount: 3
Fore
SplineSet
330 1277 m 1,0,-1
 371 1484 l 1,1,-1
 652 1484 l 1,2,-1
 611 1277 l 1,3,-1
 330 1277 l 1,0,-1
EndSplineSet
Validated: 1
EndChar

StartChar: ring
Encoding: 730 730 216
Width: 682
GlyphClass: 2
Flags: W
LayerCount: 3
Fore
SplineSet
735 1390 m 256,0,1
 735 1285 735 1285 661.5 1210.5 c 128,-1,2
 588 1136 588 1136 481 1136 c 256,3,4
 374 1136 374 1136 300.5 1210.5 c 128,-1,5
 227 1285 227 1285 227 1390 c 256,6,7
 227 1495 227 1495 301.5 1569.5 c 128,-1,8
 376 1644 376 1644 481 1644 c 256,9,10
 586 1644 586 1644 660.5 1569.5 c 128,-1,11
 735 1495 735 1495 735 1390 c 256,0,1
608 1390 m 0,12,13
 608 1441 608 1441 571.5 1478 c 128,-1,14
 535 1515 535 1515 481 1515 c 0,15,16
 430 1515 430 1515 393 1479 c 128,-1,17
 356 1443 356 1443 356 1390 c 0,18,19
 356 1334 356 1334 393 1298 c 128,-1,20
 430 1262 430 1262 481 1262 c 0,21,22
 534 1262 534 1262 571 1299 c 128,-1,23
 608 1336 608 1336 608 1390 c 0,12,13
EndSplineSet
Validated: 1
EndChar

StartChar: cedilla
Encoding: 184 184 217
Width: 682
GlyphClass: 2
Flags: W
LayerCount: 3
Fore
SplineSet
194 -425 m 0,0,1
 144 -425 144 -425 88 -419 c 1,2,-1
 117 -302 l 1,3,4
 159 -309 159 -309 199 -309 c 0,5,6
 280 -309 280 -309 317 -291.5 c 128,-1,7
 354 -274 354 -274 354 -232 c 0,8,9
 354 -169 354 -169 244 -169 c 2,10,-1
 219 -169 l 1,11,-1
 191 -171 l 1,12,-1
 289 0 l 1,13,-1
 430 0 l 1,14,-1
 382 -83 l 1,15,16
 452 -84 452 -84 495.5 -116.5 c 128,-1,17
 539 -149 539 -149 539 -215 c 0,18,19
 539 -312 539 -312 455 -368.5 c 128,-1,20
 371 -425 371 -425 194 -425 c 0,0,1
EndSplineSet
Validated: 1
EndChar

StartChar: hungarumlaut
Encoding: 733 733 218
Width: 682
GlyphClass: 2
Flags: W
LayerCount: 3
Fore
SplineSet
58 1183 m 1,0,-1
 68 1214 l 1,1,-1
 325 1502 l 1,2,-1
 586 1502 l 1,3,-1
 576 1459 l 1,4,-1
 204 1183 l 1,5,-1
 58 1183 l 1,0,-1
463 1183 m 1,6,-1
 473 1214 l 1,7,-1
 730 1502 l 1,8,-1
 991 1502 l 1,9,-1
 981 1459 l 1,10,-1
 609 1183 l 1,11,-1
 463 1183 l 1,6,-1
EndSplineSet
Validated: 1
EndChar

StartChar: ogonek
Encoding: 731 731 219
Width: 682
GlyphClass: 2
Flags: W
LayerCount: 3
Fore
SplineSet
306 -425 m 0,0,1
 216 -425 216 -425 161 -377 c 128,-1,2
 106 -329 106 -329 106 -246 c 0,3,4
 106 -173 106 -173 151.5 -106.5 c 128,-1,5
 197 -40 197 -40 286 10 c 1,6,-1
 450 10 l 1,7,8
 389 -28 389 -28 346.5 -92 c 128,-1,9
 304 -156 304 -156 304 -211 c 0,10,11
 304 -249 304 -249 326 -268 c 128,-1,12
 348 -287 348 -287 383 -287 c 0,13,14
 432 -287 432 -287 485 -264 c 1,15,-1
 466 -391 l 1,16,17
 387 -425 387 -425 306 -425 c 0,0,1
EndSplineSet
Validated: 1
EndChar

StartChar: caron
Encoding: 711 711 220
Width: 682
GlyphClass: 2
Flags: W
LayerCount: 3
Fore
SplineSet
573 1183 m 1,0,-1
 344 1183 l 1,1,-1
 147 1500 l 1,2,-1
 153 1529 l 1,3,-1
 303 1529 l 1,4,-1
 477 1336 l 1,5,-1
 481 1336 l 1,6,-1
 721 1529 l 1,7,-1
 890 1529 l 1,8,-1
 884 1500 l 1,9,-1
 573 1183 l 1,0,-1
EndSplineSet
Validated: 1
EndChar

StartChar: Lslash
Encoding: 321 321 221
Width: 1251
GlyphClass: 2
Flags: W
AnchorPoint: "Anchor21" 940 0 basechar 0
AnchorPoint: "Anchor18" 1479 1840 basechar 0
AnchorPoint: "Anchor19" 0 1840 basechar 0
AnchorPoint: "Anchor16" 1251 1540 basechar 0
AnchorPoint: "Anchor17" 1251 -380 basechar 0
AnchorPoint: "Anchor10" 750 1540 basechar 0
AnchorPoint: "Anchor11" 1240 1540 basechar 0
AnchorPoint: "Anchor12" 620 -130 basechar 0
LayerCount: 3
Fore
SplineSet
36 0 m 1,0,-1
 129 482 l 1,1,-1
 -19 418 l 1,2,-1
 25 643 l 1,3,-1
 173 708 l 1,4,-1
 309 1409 l 1,5,-1
 604 1409 l 1,6,-1
 495 848 l 1,7,-1
 831 997 l 1,8,-1
 788 774 l 1,9,-1
 452 625 l 1,10,-1
 375 228 l 1,11,-1
 1131 228 l 1,12,-1
 1086 0 l 1,13,-1
 36 0 l 1,0,-1
EndSplineSet
Validated: 1
EndChar

StartChar: lslash
Encoding: 322 322 222
Width: 569
GlyphClass: 2
Flags: W
AnchorPoint: "Anchor21" 220 0 basechar 0
AnchorPoint: "Anchor18" 1479 1840 basechar 0
AnchorPoint: "Anchor19" 0 1840 basechar 0
AnchorPoint: "Anchor16" 569 1540 basechar 0
AnchorPoint: "Anchor17" 569 -380 basechar 0
AnchorPoint: "Anchor10" 440 1540 basechar 0
AnchorPoint: "Anchor11" 440 1540 basechar 0
AnchorPoint: "Anchor12" 280 -130 basechar 0
LayerCount: 3
Fore
SplineSet
315 0 m 1,0,-1
 35 0 l 1,1,-1
 143 561 l 1,2,-1
 6 492 l 1,3,-1
 47 707 l 1,4,-1
 185 776 l 1,5,-1
 323 1484 l 1,6,-1
 604 1484 l 1,7,-1
 496 932 l 1,8,-1
 640 1006 l 1,9,-1
 598 793 l 1,10,-1
 455 717 l 1,11,-1
 315 0 l 1,0,-1
EndSplineSet
Validated: 1
EndChar

StartChar: brokenbar
Encoding: 166 166 227
Width: 573
GlyphClass: 2
Flags: W
LayerCount: 3
Fore
SplineSet
192 736 m 1,0,-1
 192 1484 l 1,1,-1
 454 1484 l 1,2,-1
 454 736 l 1,3,-1
 192 736 l 1,0,-1
192 -425 m 1,4,-1
 192 324 l 1,5,-1
 454 324 l 1,6,-1
 454 -425 l 1,7,-1
 192 -425 l 1,4,-1
EndSplineSet
Validated: 1
EndChar

StartChar: Eth
Encoding: 208 208 228
Width: 1479
GlyphClass: 2
Flags: W
AnchorPoint: "Anchor21" 670 0 basechar 0
AnchorPoint: "Anchor18" 1479 1840 basechar 0
AnchorPoint: "Anchor19" 0 1840 basechar 0
AnchorPoint: "Anchor16" 1479 1540 basechar 0
AnchorPoint: "Anchor17" 1479 -380 basechar 0
AnchorPoint: "Anchor10" 820 1540 basechar 0
AnchorPoint: "Anchor11" 1330 1540 basechar 0
AnchorPoint: "Anchor12" 700 -130 basechar 0
LayerCount: 3
Fore
SplineSet
734 1409 m 2,0,1
 1067 1409 1067 1409 1244 1254 c 128,-1,2
 1421 1099 1421 1099 1421 807 c 0,3,4
 1421 571 1421 571 1322 390 c 128,-1,5
 1223 209 1223 209 1035 104.5 c 128,-1,6
 847 0 847 0 614 0 c 2,7,-1
 36 0 l 1,8,-1
 151 594 l 1,9,-1
 23 594 l 1,10,-1
 65 813 l 1,11,-1
 194 813 l 1,12,-1
 310 1409 l 1,13,-1
 734 1409 l 2,0,1
488 813 m 1,14,-1
 845 813 l 1,15,-1
 801 594 l 1,16,-1
 446 594 l 1,17,-1
 375 228 l 1,18,-1
 605 228 l 2,19,20
 765 228 765 228 888.5 296.5 c 128,-1,21
 1012 365 1012 365 1078.5 494 c 128,-1,22
 1145 623 1145 623 1145 794 c 0,23,24
 1145 983 1145 983 1039.5 1082 c 128,-1,25
 934 1181 934 1181 736 1181 c 2,26,-1
 560 1181 l 1,27,-1
 488 813 l 1,14,-1
EndSplineSet
Validated: 1
EndChar

StartChar: eth
Encoding: 240 240 229
Width: 1251
GlyphClass: 2
Flags: W
AnchorPoint: "Anchor21" 680 0 basechar 0
AnchorPoint: "Anchor18" 1479 1840 basechar 0
AnchorPoint: "Anchor19" 0 1840 basechar 0
AnchorPoint: "Anchor16" 1251 1540 basechar 0
AnchorPoint: "Anchor17" 1251 -380 basechar 0
AnchorPoint: "Anchor10" 750 1540 basechar 0
AnchorPoint: "Anchor11" 1240 1540 basechar 0
AnchorPoint: "Anchor12" 620 -130 basechar 0
LayerCount: 3
Fore
SplineSet
661 1305 m 1,0,1
 537 1426 537 1426 439 1484 c 1,2,-1
 732 1484 l 1,3,4
 804 1446 804 1446 873 1390 c 1,5,-1
 1168 1499 l 1,6,-1
 1136 1323 l 1,7,-1
 991 1269 l 1,8,9
 1086 1146 1086 1146 1129 1017.5 c 128,-1,10
 1172 889 1172 889 1172 728 c 0,11,12
 1172 374 1172 374 1001 177 c 128,-1,13
 830 -20 830 -20 527 -20 c 0,14,15
 308 -20 308 -20 183 95.5 c 128,-1,16
 58 211 58 211 58 410 c 0,17,18
 58 668 58 668 217 823.5 c 128,-1,19
 376 979 376 979 649 979 c 0,20,21
 710 979 710 979 777 960.5 c 128,-1,22
 844 942 844 942 881 916 c 1,23,24
 849 1056 849 1056 756 1180 c 1,25,-1
 479 1069 l 1,26,-1
 512 1248 l 1,27,-1
 661 1305 l 1,0,1
658 787 m 0,28,29
 520 787 520 787 436 679 c 128,-1,30
 352 571 352 571 352 395 c 0,31,32
 352 293 352 293 407 232.5 c 128,-1,33
 462 172 462 172 555 172 c 0,34,35
 642 172 642 172 714.5 229.5 c 128,-1,36
 787 287 787 287 827.5 387.5 c 128,-1,37
 868 488 868 488 868 606 c 0,38,39
 868 691 868 691 815 739 c 128,-1,40
 762 787 762 787 658 787 c 0,28,29
EndSplineSet
Validated: 1
EndChar

StartChar: Thorn
Encoding: 222 222 232
Width: 1366
GlyphClass: 2
Flags: W
AnchorPoint: "Anchor21" 180 0 basechar 0
AnchorPoint: "Anchor18" 1479 1840 basechar 0
AnchorPoint: "Anchor19" 0 1840 basechar 0
AnchorPoint: "Anchor16" 1366 1540 basechar 0
AnchorPoint: "Anchor17" 1366 -380 basechar 0
AnchorPoint: "Anchor10" 780 1540 basechar 0
AnchorPoint: "Anchor11" 1100 1540 basechar 0
AnchorPoint: "Anchor12" 650 -130 basechar 0
LayerCount: 3
Fore
SplineSet
331 0 m 1,0,-1
 36 0 l 1,1,-1
 310 1409 l 1,2,-1
 605 1409 l 1,3,-1
 561 1184 l 1,4,-1
 807 1184 l 2,5,6
 1053 1184 1053 1184 1189.5 1072 c 128,-1,7
 1326 960 1326 960 1326 762 c 0,8,9
 1326 537 1326 537 1172.5 404 c 128,-1,10
 1019 271 1019 271 762 271 c 2,11,-1
 384 271 l 1,12,-1
 331 0 l 1,0,-1
428 498 m 1,13,-1
 717 498 l 2,14,15
 872 498 872 498 949.5 556 c 128,-1,16
 1027 614 1027 614 1027 746 c 0,17,18
 1027 848 1027 848 963 901.5 c 128,-1,19
 899 955 899 955 779 955 c 2,20,-1
 517 955 l 1,21,-1
 428 498 l 1,13,-1
EndSplineSet
Validated: 1
EndChar

StartChar: thorn
Encoding: 254 254 233
Width: 1251
GlyphClass: 2
Flags: W
AnchorPoint: "Anchor21" 160 -400 basechar 0
AnchorPoint: "Anchor18" 1479 1840 basechar 0
AnchorPoint: "Anchor19" 0 1840 basechar 0
AnchorPoint: "Anchor16" 1251 1540 basechar 0
AnchorPoint: "Anchor17" 1251 -380 basechar 0
AnchorPoint: "Anchor10" 680 1200 basechar 0
AnchorPoint: "Anchor11" 1120 1200 basechar 0
AnchorPoint: "Anchor12" 580 -540 basechar 0
LayerCount: 3
Fore
SplineSet
728 907 m 0,0,1
 602 907 602 907 526.5 819 c 128,-1,2
 451 731 451 731 417 554 c 0,3,4
 400 461 400 461 400 401 c 0,5,6
 400 294 400 294 453 233.5 c 128,-1,7
 506 173 506 173 601 173 c 0,8,9
 703 173 703 173 762 237 c 128,-1,10
 821 301 821 301 855 443 c 128,-1,11
 889 585 889 585 889 694 c 0,12,13
 889 800 889 800 850.5 853.5 c 128,-1,14
 812 907 812 907 728 907 c 0,0,1
487 913 m 1,15,-1
 493 913 l 1,16,17
 565 1013 565 1013 647.5 1057.5 c 128,-1,18
 730 1102 730 1102 848 1102 c 0,19,20
 1007 1102 1007 1102 1096 1007.5 c 128,-1,21
 1185 913 1185 913 1185 748 c 0,22,23
 1185 546 1185 546 1123 354.5 c 128,-1,24
 1061 163 1061 163 948.5 71.5 c 128,-1,25
 836 -20 836 -20 662 -20 c 0,26,27
 537 -20 537 -20 459 32 c 128,-1,28
 381 84 381 84 349 178 c 1,29,-1
 347 178 l 1,30,-1
 333 88 l 1,31,-1
 315 -10 l 1,32,-1
 234 -425 l 1,33,-1
 -46 -425 l 1,34,-1
 323 1484 l 1,35,-1
 604 1484 l 1,36,-1
 521 1057 l 2,37,38
 503 965 503 965 487 913 c 1,15,-1
EndSplineSet
Validated: 1
EndChar

StartChar: minus
Encoding: 8722 8722 234
Width: 1196
GlyphClass: 2
Flags: W
LayerCount: 3
Fore
SplineSet
125 569 m 1,0,-1
 125 793 l 1,1,-1
 1152 793 l 1,2,-1
 1152 569 l 1,3,-1
 125 569 l 1,0,-1
EndSplineSet
Validated: 1
EndChar

StartChar: multiply
Encoding: 215 215 235
Width: 1196
GlyphClass: 2
Flags: W
LayerCount: 3
Fore
SplineSet
126 326 m 1,0,-1
 482 684 l 1,1,-1
 130 1036 l 1,2,-1
 288 1192 l 1,3,-1
 640 842 l 1,4,-1
 992 1194 l 1,5,-1
 1150 1036 l 1,6,-1
 798 682 l 1,7,-1
 1150 332 l 1,8,-1
 992 172 l 1,9,-1
 640 526 l 1,10,-1
 284 168 l 1,11,-1
 126 326 l 1,0,-1
EndSplineSet
Validated: 1
EndChar

StartChar: onesuperior
Encoding: 185 185 236
Width: 682
GlyphClass: 2
Flags: W
LayerCount: 3
Fore
SplineSet
98 693 m 1,0,-1
 121 814 l 1,1,-1
 305 814 l 1,2,-1
 396 1282 l 1,3,-1
 202 1174 l 1,4,-1
 226 1296 l 1,5,-1
 428 1413 l 1,6,-1
 603 1413 l 1,7,-1
 487 814 l 1,8,-1
 657 814 l 1,9,-1
 634 693 l 1,10,-1
 98 693 l 1,0,-1
EndSplineSet
Validated: 1
EndChar

StartChar: twosuperior
Encoding: 178 178 237
Width: 682
GlyphClass: 2
Flags: W
LayerCount: 3
Fore
SplineSet
71 696 m 1,0,-1
 95 816 l 1,1,2
 135 879 135 879 199 931 c 128,-1,3
 263 983 263 983 373 1045 c 1,4,5
 465 1095 465 1095 503.5 1137.5 c 128,-1,6
 542 1180 542 1180 542 1231 c 0,7,8
 542 1260 542 1260 520 1279.5 c 128,-1,9
 498 1299 498 1299 463 1299 c 0,10,11
 375 1299 375 1299 349 1202 c 1,12,-1
 187 1236 l 1,13,14
 218 1335 218 1335 287 1380.5 c 128,-1,15
 356 1426 356 1426 479 1426 c 0,16,17
 594 1426 594 1426 660 1375.5 c 128,-1,18
 726 1325 726 1325 726 1239 c 0,19,20
 726 1179 726 1179 701 1134.5 c 128,-1,21
 676 1090 676 1090 637.5 1055.5 c 128,-1,22
 599 1021 599 1021 551 994 c 128,-1,23
 503 967 503 967 457 942.5 c 128,-1,24
 411 918 411 918 372 893.5 c 128,-1,25
 333 869 333 869 311 839 c 1,26,-1
 660 839 l 1,27,-1
 635 696 l 1,28,-1
 71 696 l 1,0,-1
EndSplineSet
Validated: 1
EndChar

StartChar: threesuperior
Encoding: 179 179 238
Width: 682
GlyphClass: 2
Flags: W
LayerCount: 3
Fore
SplineSet
496 915 m 0,0,1
 496 1000 496 1000 385 1000 c 2,2,-1
 317 1000 l 1,3,-1
 341 1126 l 1,4,-1
 401 1126 l 2,5,6
 463 1126 463 1126 501 1151 c 128,-1,7
 539 1176 539 1176 539 1221 c 0,8,9
 539 1304 539 1304 456 1304 c 0,10,11
 366 1304 366 1304 341 1210 c 1,12,-1
 178 1234 l 1,13,14
 204 1332 204 1332 274 1379 c 128,-1,15
 344 1426 344 1426 476 1426 c 0,16,17
 594 1426 594 1426 660 1381.5 c 128,-1,18
 726 1337 726 1337 726 1247 c 0,19,20
 726 1176 726 1176 675.5 1125 c 128,-1,21
 625 1074 625 1074 543 1067 c 1,22,-1
 542 1065 l 1,23,24
 606 1053 606 1053 645 1014.5 c 128,-1,25
 684 976 684 976 684 913 c 0,26,27
 684 812 684 812 599 750 c 128,-1,28
 514 688 514 688 369 688 c 0,29,30
 123 688 123 688 96 885 c 1,31,-1
 277 910 l 1,32,33
 294 811 294 811 385 811 c 0,34,35
 431 811 431 811 463.5 837.5 c 128,-1,36
 496 864 496 864 496 915 c 0,0,1
EndSplineSet
Validated: 1
EndChar

StartChar: franc
Encoding: 8355 8355 242
Width: 1139
GlyphClass: 2
Flags: W
LayerCount: 3
Fore
SplineSet
555 1201 m 1,0,-1
 478 805 l 1,1,-1
 1115 805 l 1,2,-1
 1075 597 l 1,3,-1
 438 597 l 1,4,-1
 401 407 l 1,5,-1
 715 407 l 1,6,-1
 686 258 l 1,7,-1
 372 258 l 1,8,-1
 321 0 l 1,9,-1
 37 0 l 1,10,-1
 87 258 l 1,11,-1
 -42 258 l 1,12,-1
 -13 407 l 1,13,-1
 116 407 l 1,14,-1
 310 1409 l 1,15,-1
 1265 1409 l 1,16,-1
 1225 1201 l 1,17,-1
 555 1201 l 1,0,-1
EndSplineSet
Validated: 1
EndChar

StartChar: dcroat
Encoding: 273 273 252
Width: 1251
GlyphClass: 2
Flags: W
AnchorPoint: "Anchor21" 920 0 basechar 0
AnchorPoint: "Anchor18" 1479 1840 basechar 0
AnchorPoint: "Anchor19" 0 1840 basechar 0
AnchorPoint: "Anchor16" 1251 1540 basechar 0
AnchorPoint: "Anchor17" 1251 -380 basechar 0
AnchorPoint: "Anchor10" 650 1200 basechar 0
AnchorPoint: "Anchor11" 1000 1200 basechar 0
AnchorPoint: "Anchor12" 560 -130 basechar 0
LayerCount: 3
Fore
SplineSet
749 160 m 1,0,1
 678 67 678 67 595.5 23 c 128,-1,2
 513 -21 513 -21 392 -21 c 0,3,4
 238 -21 238 -21 148 77 c 128,-1,5
 58 175 58 175 58 340 c 0,6,7
 58 522 58 522 121 698.5 c 128,-1,8
 184 875 184 875 298.5 968 c 128,-1,9
 413 1061 413 1061 571 1061 c 0,10,11
 698 1061 698 1061 778 1012.5 c 128,-1,12
 858 964 858 964 887 871 c 1,13,-1
 893 871 l 1,14,15
 895 893 895 893 901.5 938.5 c 128,-1,16
 908 984 908 984 922 1053 c 2,17,-1
 947 1175 l 1,18,-1
 658 1175 l 1,19,-1
 691 1345 l 1,20,-1
 981 1345 l 1,21,-1
 1009 1484 l 1,22,-1
 1286 1484 l 1,23,-1
 1259 1345 l 1,24,-1
 1391 1345 l 1,25,-1
 1358 1175 l 1,26,-1
 1227 1175 l 1,27,-1
 1048 231 l 1,28,29
 1028 119 1028 119 1019 0 c 1,30,-1
 738 0 l 1,31,32
 738 63 738 63 753 160 c 1,33,-1
 749 160 l 1,0,1
515 172 m 0,34,35
 621 172 621 172 690 234.5 c 128,-1,36
 759 297 759 297 797.5 423 c 128,-1,37
 836 549 836 549 836 656 c 0,38,39
 836 771 836 771 789 822.5 c 128,-1,40
 742 874 742 874 648 874 c 0,41,42
 551 874 551 874 487 809.5 c 128,-1,43
 423 745 423 745 389 617 c 128,-1,44
 355 489 355 489 355 382 c 0,45,46
 355 172 355 172 515 172 c 0,34,35
EndSplineSet
Validated: 1
EndChar

StartChar: macron
Encoding: 175 175 253
Width: 1131
GlyphClass: 2
Flags: W
LayerCount: 3
Fore
SplineSet
1148 1452 m 1,0,-1
 -17 1452 l 1,1,-1
 -17 1546 l 1,2,-1
 1148 1546 l 1,3,-1
 1148 1452 l 1,0,-1
EndSplineSet
Validated: 1
EndChar

StartChar: periodcentered
Encoding: 183 183 254
Width: 682
GlyphClass: 2
Flags: W
LayerCount: 3
Fore
SplineSet
189 531 m 1,0,-1
 248 836 l 1,1,-1
 536 836 l 1,2,-1
 477 531 l 1,3,-1
 189 531 l 1,0,-1
EndSplineSet
Validated: 1
EndChar

StartChar: Gamma
Encoding: 915 915 296
Width: 1249
GlyphClass: 2
Flags: W
LayerCount: 3
Fore
SplineSet
1330 1409 m 1,0,-1
 1286 1181 l 1,1,-1
 560 1181 l 1,2,-1
 331 1 l 1,3,-1
 36 1 l 1,4,-1
 309 1409 l 1,5,-1
 1330 1409 l 1,0,-1
EndSplineSet
Validated: 1
EndChar

StartChar: Theta
Encoding: 920 920 297
Width: 1593
GlyphClass: 2
Flags: W
LayerCount: 3
Fore
SplineSet
556 827 m 1,0,-1
 1143 827 l 1,1,-1
 1099 599 l 1,2,-1
 512 599 l 1,3,-1
 556 827 l 1,0,-1
928 1430 m 0,4,5
 1221 1430 1221 1430 1390 1274.5 c 128,-1,6
 1559 1119 1559 1119 1559 851 c 0,7,8
 1559 604 1559 604 1453.5 400.5 c 128,-1,9
 1348 197 1348 197 1159 88.5 c 128,-1,10
 970 -20 970 -20 727 -20 c 0,11,12
 534 -20 534 -20 391.5 52 c 128,-1,13
 249 124 249 124 174.5 258.5 c 128,-1,14
 100 393 100 393 100 573 c 0,15,16
 100 808 100 808 205.5 1011.5 c 128,-1,17
 311 1215 311 1215 498 1322.5 c 128,-1,18
 685 1430 685 1430 928 1430 c 0,4,5
914 1197 m 0,19,20
 752 1197 752 1197 638 1122 c 128,-1,21
 524 1047 524 1047 462 896 c 128,-1,22
 400 745 400 745 400 581 c 0,23,24
 400 397 400 397 490 304.5 c 128,-1,25
 580 212 580 212 741 212 c 256,26,27
 902 212 902 212 1016 287 c 128,-1,28
 1130 362 1130 362 1192.5 510 c 128,-1,29
 1255 658 1255 658 1255 827 c 0,30,31
 1255 1003 1255 1003 1167.5 1100 c 128,-1,32
 1080 1197 1080 1197 914 1197 c 0,19,20
EndSplineSet
Validated: 1
EndChar

StartChar: Phi
Encoding: 934 934 298
Width: 1684
GlyphClass: 2
Flags: W
LayerCount: 3
Fore
SplineSet
1071 1052 m 1,0,-1
 944 397 l 1,1,-1
 998 397 l 2,2,3
 1168 397 1168 397 1265.5 503 c 128,-1,4
 1363 609 1363 609 1363 789 c 0,5,6
 1363 911 1363 911 1301.5 981.5 c 128,-1,7
 1240 1052 1240 1052 1133 1052 c 2,8,-1
 1071 1052 l 1,0,-1
595 -11 m 1,9,-1
 633 188 l 1,10,-1
 557 188 l 2,11,12
 350 188 350 188 223 316 c 128,-1,13
 96 444 96 444 96 651 c 0,14,15
 96 943 96 943 272 1102 c 128,-1,16
 448 1261 448 1261 773 1261 c 2,17,-1
 842 1261 l 1,18,-1
 872 1419 l 1,19,-1
 1142 1419 l 1,20,-1
 1112 1261 l 1,21,-1
 1179 1261 l 2,22,23
 1324 1261 1324 1261 1431.5 1203 c 128,-1,24
 1539 1145 1539 1145 1596.5 1039 c 128,-1,25
 1654 933 1654 933 1654 793 c 0,26,27
 1654 507 1654 507 1476 347.5 c 128,-1,28
 1298 188 1298 188 984 188 c 2,29,-1
 903 188 l 1,30,-1
 865 -11 l 1,31,-1
 595 -11 l 1,9,-1
801 1052 m 1,32,-1
 755 1052 l 2,33,34
 580 1052 580 1052 483.5 951 c 128,-1,35
 387 850 387 850 387 662 c 0,36,37
 387 540 387 540 446 468.5 c 128,-1,38
 505 397 505 397 608 397 c 2,39,-1
 674 397 l 1,40,-1
 801 1052 l 1,32,-1
EndSplineSet
Validated: 1
EndChar

StartChar: alpha
Encoding: 945 945 299
Width: 1270
GlyphClass: 2
Flags: W
LayerCount: 3
Fore
SplineSet
612 1101 m 0,0,1
 753 1101 753 1101 840 1033.5 c 128,-1,2
 927 966 927 966 950 847 c 1,3,-1
 952 847 l 1,4,5
 968 890 968 890 1006.5 967.5 c 128,-1,6
 1045 1045 1045 1045 1069 1082 c 1,7,-1
 1341 1082 l 1,8,9
 1273 983 1273 983 1190 812 c 128,-1,10
 1107 641 1107 641 1065 514 c 1,11,12
 1065 409 1065 409 1069.5 327.5 c 128,-1,13
 1074 246 1074 246 1081 183 c 128,-1,14
 1088 120 1088 120 1111 0 c 1,15,-1
 833 0 l 1,16,17
 807 125 807 125 807 225 c 2,18,-1
 807 240 l 1,19,-1
 803 240 l 1,20,21
 710 95 710 95 616 37 c 128,-1,22
 522 -21 522 -21 405 -21 c 0,23,24
 238 -21 238 -21 147.5 84 c 128,-1,25
 57 189 57 189 57 375 c 0,26,27
 57 505 57 505 94 652.5 c 128,-1,28
 131 800 131 800 201 901 c 128,-1,29
 271 1002 271 1002 372 1051.5 c 128,-1,30
 473 1101 473 1101 612 1101 c 0,0,1
616 907 m 0,31,32
 527 907 527 907 470.5 841.5 c 128,-1,33
 414 776 414 776 381.5 640 c 128,-1,34
 349 504 349 504 349 387 c 0,35,36
 349 174 349 174 495 174 c 0,37,38
 580 174 580 174 658.5 272 c 128,-1,39
 737 370 737 370 790 552 c 1,40,-1
 792 616 l 1,41,42
 792 755 792 755 748 831 c 128,-1,43
 704 907 704 907 616 907 c 0,31,32
EndSplineSet
Validated: 1
EndChar

StartChar: delta
Encoding: 948 948 300
Width: 1250
GlyphClass: 2
Flags: W
LayerCount: 3
Fore
SplineSet
557 177 m 0,0,1
 694 177 694 177 774.5 281 c 128,-1,2
 855 385 855 385 855 558 c 0,3,4
 855 653 855 653 824 734.5 c 128,-1,5
 793 816 793 816 719 900 c 1,6,7
 591 852 591 852 528.5 807 c 128,-1,8
 466 762 466 762 426.5 708 c 128,-1,9
 387 654 387 654 366 585.5 c 128,-1,10
 345 517 345 517 345 430 c 0,11,12
 345 315 345 315 402 246 c 128,-1,13
 459 177 459 177 557 177 c 0,0,1
855 1294 m 1,14,-1
 779 1298 l 2,15,16
 756 1299 756 1299 735.5 1300 c 128,-1,17
 715 1301 715 1301 703 1302 c 1,18,-1
 960 992 l 1,19,20
 1068 849 1068 849 1107 746.5 c 128,-1,21
 1146 644 1146 644 1146 537 c 0,22,23
 1146 282 1146 282 979 131.5 c 128,-1,24
 812 -19 812 -19 533 -19 c 0,25,26
 316 -19 316 -19 185.5 100.5 c 128,-1,27
 55 220 55 220 55 415 c 0,28,29
 55 863 55 863 625 1013 c 1,30,-1
 378 1325 l 1,31,-1
 414 1484 l 1,32,-1
 1253 1484 l 1,33,-1
 1225 1294 l 1,34,-1
 855 1294 l 1,14,-1
EndSplineSet
Validated: 1
EndChar

StartChar: epsilon
Encoding: 949 949 301
Width: 980
GlyphClass: 2
Flags: W
LayerCount: 3
Fore
SplineSet
462 170 m 0,0,1
 551 170 551 170 625.5 209.5 c 128,-1,2
 700 249 700 249 769 310 c 1,3,-1
 897 159 l 1,4,5
 795 64 795 64 683 22 c 128,-1,6
 571 -20 571 -20 420 -20 c 0,7,8
 244 -20 244 -20 135 67 c 128,-1,9
 26 154 26 154 26 292 c 0,10,11
 26 414 26 414 108.5 488.5 c 128,-1,12
 191 563 191 563 349 579 c 1,13,-1
 350 581 l 1,14,15
 262 606 262 606 211.5 666 c 128,-1,16
 161 726 161 726 161 806 c 0,17,18
 161 946 161 946 276 1023.5 c 128,-1,19
 391 1101 391 1101 602 1101 c 0,20,21
 749 1101 749 1101 845.5 1048.5 c 128,-1,22
 942 996 942 996 999 888 c 1,23,-1
 807 804 l 1,24,25
 741 923 741 923 603 923 c 0,26,27
 520 923 520 923 472.5 889 c 128,-1,28
 425 855 425 855 425 794 c 0,29,30
 425 725 425 725 501 688.5 c 128,-1,31
 577 652 577 652 723 652 c 1,32,-1
 699 477 l 1,33,34
 536 477 536 477 465 460.5 c 128,-1,35
 394 444 394 444 355.5 407 c 128,-1,36
 317 370 317 370 317 304 c 0,37,38
 317 245 317 245 356.5 207.5 c 128,-1,39
 396 170 396 170 462 170 c 0,0,1
EndSplineSet
Validated: 1
EndChar

StartChar: sigma
Encoding: 963 963 302
Width: 1359
GlyphClass: 2
Flags: W
LayerCount: 3
Fore
SplineSet
532 -20 m 0,0,1
 313 -20 313 -20 188.5 93 c 128,-1,2
 64 206 64 206 64 411 c 0,3,4
 64 550 64 550 112.5 677 c 128,-1,5
 161 804 161 804 260 896.5 c 128,-1,6
 359 989 359 989 504.5 1035.5 c 128,-1,7
 650 1082 650 1082 838 1082 c 2,8,-1
 1424 1082 l 1,9,-1
 1387 892 l 1,10,-1
 1253 892 l 1,11,-1
 1066 898 l 1,12,-1
 1065 894 l 1,13,14
 1160 746 1160 746 1160 592 c 0,15,16
 1160 409 1160 409 1085.5 270.5 c 128,-1,17
 1011 132 1011 132 868.5 56 c 128,-1,18
 726 -20 726 -20 532 -20 c 0,0,1
564 172 m 0,19,20
 722 172 722 172 801 292.5 c 128,-1,21
 880 413 880 413 880 660 c 0,22,23
 880 781 880 781 847 892 c 1,24,-1
 776 892 l 2,25,26
 674 892 674 892 594.5 859 c 128,-1,27
 515 826 515 826 461 760.5 c 128,-1,28
 407 695 407 695 381.5 604 c 128,-1,29
 356 513 356 513 356 426 c 0,30,31
 356 306 356 306 409.5 239 c 128,-1,32
 463 172 463 172 564 172 c 0,19,20
EndSplineSet
Validated: 1
EndChar

StartChar: tau
Encoding: 964 964 303
Width: 837
GlyphClass: 2
Flags: W
LayerCount: 3
Fore
SplineSet
311 892 m 2,0,1
 230 892 230 892 157.5 880.5 c 128,-1,2
 85 869 85 869 57 855 c 1,3,-1
 96 1053 l 1,4,5
 125 1065 125 1065 176 1073.5 c 128,-1,6
 227 1082 227 1082 279 1082 c 2,7,-1
 924 1082 l 1,8,-1
 887 892 l 1,9,-1
 612 892 l 1,10,-1
 503 329 l 2,11,12
 497 296 497 296 497 271 c 0,13,14
 497 177 497 177 588 177 c 0,15,16
 617 177 617 177 670 187 c 1,17,-1
 692 190 l 1,18,-1
 660 7 l 1,19,20
 624 -3 624 -3 565 -11.5 c 128,-1,21
 506 -20 506 -20 455 -20 c 0,22,23
 340 -20 340 -20 277.5 41.5 c 128,-1,24
 215 103 215 103 215 219 c 0,25,26
 215 281 215 281 227 339 c 2,27,-1
 334 892 l 1,28,-1
 311 892 l 2,0,1
EndSplineSet
Validated: 1
EndChar

StartChar: phi
Encoding: 966 966 304
Width: 1441
GlyphClass: 2
Flags: W
LayerCount: 3
Fore
SplineSet
1026 1104 m 0,0,1
 1190 1104 1190 1104 1284.5 998 c 128,-1,2
 1379 892 1379 892 1379 715 c 0,3,4
 1379 370 1379 370 1204.5 178 c 128,-1,5
 1030 -14 1030 -14 719 -18 c 1,6,-1
 640 -425 l 1,7,-1
 402 -425 l 1,8,-1
 480 -20 l 1,9,10
 293 -12 293 -12 178.5 111.5 c 128,-1,11
 64 235 64 235 64 435 c 0,12,13
 64 716 64 716 210 888.5 c 128,-1,14
 356 1061 356 1061 631 1106 c 1,15,-1
 617 927 l 1,16,17
 491 898 491 898 411.5 760.5 c 128,-1,18
 332 623 332 623 332 429 c 0,19,20
 332 311 332 311 379 242 c 128,-1,21
 426 173 426 173 517 167 c 1,22,-1
 621 702 l 1,23,24
 698 1104 698 1104 1026 1104 c 0,0,1
1014 930 m 0,25,26
 954 930 954 930 917.5 874 c 128,-1,27
 881 818 881 818 858 699 c 2,28,-1
 754 166 l 1,29,30
 1113 202 1113 202 1113 709 c 0,31,32
 1113 930 1113 930 1014 930 c 0,25,26
EndSplineSet
Validated: 1
EndChar

StartChar: nsuperior
Encoding: 8319 8319 307
Width: 811
GlyphClass: 2
Flags: W
LayerCount: 3
Fore
SplineSet
511 519 m 1,0,-1
 585 898 l 2,1,2
 595 944 595 944 595 982 c 0,3,4
 595 1057 595 1057 510 1057 c 0,5,6
 449 1057 449 1057 402 1009 c 128,-1,7
 355 961 355 961 338 870 c 2,8,-1
 270 519 l 1,9,-1
 92 519 l 1,10,-1
 191 1030 l 1,11,-1
 215 1169 l 1,12,-1
 381 1169 l 1,13,-1
 367 1058 l 1,14,-1
 370 1058 l 1,15,16
 421 1126 421 1126 475.5 1153.5 c 128,-1,17
 530 1181 530 1181 602 1181 c 0,18,19
 778 1181 778 1181 778 1006 c 0,20,21
 778 964 778 964 769 923 c 2,22,-1
 690 519 l 1,23,-1
 511 519 l 1,0,-1
EndSplineSet
Validated: 1
EndChar

StartChar: peseta
Encoding: 8359 8359 308
Width: 2261
GlyphClass: 2
Flags: W
LayerCount: 3
Fore
SplineSet
1435 646 m 1,0,-1
 1288 646 l 1,1,-1
 1218 283 l 2,2,3
 1211 243 1211 243 1211 221 c 0,4,5
 1211 152 1211 152 1279 152 c 0,6,7
 1316 152 1316 152 1361 166 c 1,8,-1
 1330 8 l 1,9,10
 1260 -16 1260 -16 1186 -16 c 0,11,12
 1080 -16 1080 -16 1028 36 c 128,-1,13
 976 88 976 88 976 175 c 0,14,15
 976 215 976 215 985 260 c 2,16,-1
 1058 646 l 1,17,-1
 964 646 l 1,18,-1
 983 733 l 1,19,20
 909 637 909 637 800.5 593 c 128,-1,21
 692 549 692 549 543 549 c 2,22,-1
 407 549 l 1,23,-1
 300 0 l 1,24,-1
 59 0 l 1,25,-1
 333 1409 l 1,26,-1
 647 1409 l 2,27,28
 861 1409 861 1409 979 1310.5 c 128,-1,29
 1097 1212 1097 1212 1097 1026 c 0,30,31
 1097 899 1097 899 1039 813 c 1,32,-1
 1108 813 l 1,33,-1
 1243 1055 l 1,34,-1
 1368 1055 l 1,35,-1
 1321 813 l 1,36,-1
 1468 813 l 1,37,-1
 1435 646 l 1,0,-1
1715 -20 m 0,38,39
 1545 -20 1545 -20 1459 39.5 c 128,-1,40
 1373 99 1373 99 1358 226 c 1,41,-1
 1562 261 l 1,42,43
 1571 201 1571 201 1611 174 c 128,-1,44
 1651 147 1651 147 1730 147 c 0,45,46
 1768 147 1768 147 1800.5 150 c 128,-1,47
 1833 153 1833 153 1857 162.5 c 128,-1,48
 1881 172 1881 172 1895 189 c 128,-1,49
 1909 206 1909 206 1909 234 c 0,50,51
 1909 256 1909 256 1895 271 c 128,-1,52
 1881 286 1881 286 1852.5 298 c 128,-1,53
 1824 310 1824 310 1697 342 c 1,54,55
 1469 396 1469 396 1469 578 c 0,56,57
 1469 700 1469 700 1565 762 c 128,-1,58
 1661 824 1661 824 1842 824 c 0,59,60
 1991 824 1991 824 2077 763.5 c 128,-1,61
 2163 703 2163 703 2171 578 c 1,62,-1
 1964 556 l 1,63,64
 1954 656 1954 656 1831 656 c 0,65,66
 1748 656 1748 656 1718 640 c 128,-1,67
 1688 624 1688 624 1688 590 c 0,68,69
 1688 540 1688 540 1807 514 c 2,70,-1
 1883 497 l 2,71,72
 2003 471 2003 471 2064.5 413 c 128,-1,73
 2126 355 2126 355 2126 269 c 0,74,75
 2126 128 2126 128 2021.5 54 c 128,-1,76
 1917 -20 1917 -20 1715 -20 c 0,38,39
444 740 m 1,77,-1
 533 740 l 2,78,79
 689 740 689 740 769.5 810 c 128,-1,80
 850 880 850 880 850 1011 c 0,81,82
 850 1216 850 1216 608 1216 c 2,83,-1
 538 1216 l 1,84,-1
 444 740 l 1,77,-1
EndSplineSet
Validated: 1
EndChar

StartChar: arrowleft
Encoding: 8592 8592 309
Width: 2048
GlyphClass: 2
Flags: W
LayerCount: 3
Fore
SplineSet
641 297 m 1,0,1
 698 230 698 230 760 100 c 1,2,-1
 688 100 l 1,3,4
 561 249 561 249 418 322 c 1,5,-1
 418 358 l 1,6,7
 561 431 561 431 688 580 c 1,8,-1
 760 580 l 1,9,10
 698 450 698 450 641 383 c 1,11,-1
 1630 383 l 1,12,-1
 1630 297 l 1,13,-1
 641 297 l 1,0,1
EndSplineSet
Validated: 1
EndChar

StartChar: arrowup
Encoding: 8593 8593 310
Width: 1024
GlyphClass: 2
Flags: W
LayerCount: 3
Fore
SplineSet
469 928 m 1,0,1
 402 871 402 871 272 809 c 1,2,-1
 272 881 l 1,3,4
 421 1008 421 1008 494 1151 c 1,5,-1
 530 1151 l 1,6,7
 603 1008 603 1008 752 881 c 1,8,-1
 752 809 l 1,9,10
 622 871 622 871 555 928 c 1,11,-1
 555 -61 l 1,12,-1
 469 -61 l 1,13,-1
 469 928 l 1,0,1
EndSplineSet
Validated: 1
EndChar

StartChar: arrowright
Encoding: 8594 8594 311
Width: 2048
GlyphClass: 2
Flags: W
LayerCount: 3
Fore
SplineSet
1407 383 m 1,0,1
 1350 450 1350 450 1288 580 c 1,2,-1
 1360 580 l 1,3,4
 1487 431 1487 431 1630 358 c 1,5,-1
 1630 322 l 1,6,7
 1487 249 1487 249 1360 100 c 1,8,-1
 1288 100 l 1,9,10
 1350 230 1350 230 1407 297 c 1,11,-1
 418 297 l 1,12,-1
 418 383 l 1,13,-1
 1407 383 l 1,0,1
EndSplineSet
Validated: 1
EndChar

StartChar: arrowdown
Encoding: 8595 8595 312
Width: 1024
GlyphClass: 2
Flags: W
LayerCount: 3
Fore
SplineSet
555 162 m 1,0,1
 622 219 622 219 752 281 c 1,2,-1
 752 209 l 1,3,4
 603 82 603 82 530 -61 c 1,5,-1
 494 -61 l 1,6,7
 421 82 421 82 272 209 c 1,8,-1
 272 281 l 1,9,10
 402 219 402 219 469 162 c 1,11,-1
 469 1151 l 1,12,-1
 555 1151 l 1,13,-1
 555 162 l 1,0,1
EndSplineSet
Validated: 1
EndChar

StartChar: arrowboth
Encoding: 8596 8596 313
Width: 2048
GlyphClass: 2
Flags: W
LayerCount: 3
Fore
SplineSet
641 297 m 1,0,1
 698 230 698 230 760 100 c 1,2,-1
 688 100 l 1,3,4
 561 249 561 249 418 322 c 1,5,-1
 418 358 l 1,6,7
 561 431 561 431 688 580 c 1,8,-1
 760 580 l 1,9,10
 698 450 698 450 641 383 c 1,11,-1
 1407 383 l 1,12,13
 1350 450 1350 450 1288 580 c 1,14,-1
 1360 580 l 1,15,16
 1487 431 1487 431 1630 358 c 1,17,-1
 1630 322 l 1,18,19
 1487 249 1487 249 1360 100 c 1,20,-1
 1288 100 l 1,21,22
 1350 230 1350 230 1407 297 c 1,23,-1
 641 297 l 1,0,1
EndSplineSet
Validated: 1
EndChar

StartChar: arrowupdn
Encoding: 8597 8597 314
Width: 1024
GlyphClass: 2
Flags: W
LayerCount: 3
Fore
SplineSet
469 928 m 1,0,1
 402 871 402 871 272 809 c 1,2,-1
 272 881 l 1,3,4
 421 1008 421 1008 494 1151 c 1,5,-1
 530 1151 l 1,6,7
 603 1008 603 1008 752 881 c 1,8,-1
 752 809 l 1,9,10
 622 871 622 871 555 928 c 1,11,-1
 555 162 l 1,12,13
 622 219 622 219 752 281 c 1,14,-1
 752 209 l 1,15,16
 603 82 603 82 530 -61 c 1,17,-1
 494 -61 l 1,18,19
 421 82 421 82 272 209 c 1,20,-1
 272 281 l 1,21,22
 402 219 402 219 469 162 c 1,23,-1
 469 928 l 1,0,1
EndSplineSet
Validated: 1
EndChar

StartChar: arrowupdnbse
Encoding: 8616 8616 315
Width: 1024
GlyphClass: 2
Flags: W
LayerCount: 3
Fore
SplineSet
272 -104 m 1,0,-1
 752 -104 l 1,1,-1
 752 -184 l 1,2,-1
 272 -184 l 1,3,-1
 272 -104 l 1,0,-1
469 928 m 1,4,5
 402 871 402 871 272 809 c 1,6,-1
 272 881 l 1,7,8
 421 1008 421 1008 494 1151 c 1,9,-1
 530 1151 l 1,10,11
 603 1008 603 1008 752 881 c 1,12,-1
 752 809 l 1,13,14
 622 871 622 871 555 928 c 1,15,-1
 555 162 l 1,16,17
 622 219 622 219 752 281 c 1,18,-1
 752 209 l 1,19,20
 603 82 603 82 530 -61 c 1,21,-1
 494 -61 l 1,22,23
 421 82 421 82 272 209 c 1,24,-1
 272 281 l 1,25,26
 402 219 402 219 469 162 c 1,27,-1
 469 928 l 1,4,5
EndSplineSet
Validated: 1
EndChar

StartChar: orthogonal
Encoding: 8735 8735 316
Width: 2005
GlyphClass: 2
Flags: W
LayerCount: 3
Fore
SplineSet
408 1223 m 1,0,-1
 502 1223 l 1,1,-1
 502 94 l 1,2,-1
 1632 94 l 1,3,-1
 1632 0 l 1,4,-1
 408 0 l 1,5,-1
 408 1223 l 1,0,-1
EndSplineSet
Validated: 1
EndChar

StartChar: intersection
Encoding: 8745 8745 317
Width: 1479
GlyphClass: 2
Flags: W
LayerCount: 3
Fore
SplineSet
281 -2 m 1,0,-1
 281 510 l 2,1,2
 281 660 281 660 339 779.5 c 128,-1,3
 397 899 397 899 501.5 965.5 c 128,-1,4
 606 1032 606 1032 736 1032 c 0,5,6
 867 1032 867 1032 972.5 966 c 128,-1,7
 1078 900 1078 900 1137.5 779 c 128,-1,8
 1197 658 1197 658 1197 510 c 2,9,-1
 1197 -2 l 1,10,-1
 1094 -2 l 1,11,-1
 1094 512 l 2,12,13
 1094 702 1094 702 996 816 c 128,-1,14
 898 930 898 930 738 930 c 0,15,16
 576 930 576 930 480 817 c 128,-1,17
 384 704 384 704 384 510 c 2,18,-1
 384 -2 l 1,19,-1
 281 -2 l 1,0,-1
EndSplineSet
Validated: 1
EndChar

StartChar: equivalence
Encoding: 8801 8801 318
Width: 1195
GlyphClass: 2
Flags: W
LayerCount: 3
Fore
SplineSet
100 956 m 5,0,-1
 100 1104 l 5,1,-1
 1095 1104 l 5,2,-1
 1095 956 l 5,3,-1
 100 956 l 5,0,-1
100 244 m 5,4,-1
 100 392 l 5,5,-1
 1095 392 l 5,6,-1
 1095 244 l 5,7,-1
 100 244 l 5,4,-1
100 600 m 5,8,-1
 100 748 l 5,9,-1
 1095 748 l 5,10,-1
 1095 600 l 5,11,-1
 100 600 l 5,8,-1
EndSplineSet
Validated: 1
EndChar

StartChar: house
Encoding: 8962 8962 319
Width: 1237
GlyphClass: 2
Flags: W
LayerCount: 3
Fore
SplineSet
157 0 m 1,0,-1
 157 635 l 1,1,-1
 618 1153 l 1,2,-1
 1079 635 l 1,3,-1
 1079 0 l 1,4,-1
 157 0 l 1,0,-1
237 82 m 1,5,-1
 999 82 l 1,6,-1
 999 600 l 1,7,-1
 618 1026 l 1,8,-1
 237 600 l 1,9,-1
 237 82 l 1,5,-1
EndSplineSet
Validated: 1
EndChar

StartChar: revlogicalnot
Encoding: 8976 8976 320
Width: 1196
GlyphClass: 2
Flags: W
LayerCount: 3
Fore
SplineSet
100 180 m 1,0,-1
 100 754 l 1,1,-1
 1095 754 l 1,2,-1
 1095 608 l 1,3,-1
 245 608 l 1,4,-1
 245 180 l 1,5,-1
 100 180 l 1,0,-1
EndSplineSet
Validated: 1
EndChar

StartChar: integraltp
Encoding: 8992 8992 321
Width: 1237
GlyphClass: 2
Flags: W
LayerCount: 3
Fore
SplineSet
693 -614 m 1,0,-1
 546 -614 l 1,1,-1
 546 1264 l 2,2,3
 546 1460 546 1460 630 1583 c 128,-1,4
 714 1706 714 1706 840 1706 c 0,5,6
 903 1706 903 1706 940.5 1674.5 c 128,-1,7
 978 1643 978 1643 978 1595 c 0,8,9
 978 1555 978 1555 952.5 1529 c 128,-1,10
 927 1503 927 1503 890 1503 c 0,11,12
 860 1503 860 1503 847 1513 c 1,13,14
 831 1521 831 1521 793 1563 c 1,15,16
 760 1602 760 1602 744 1602 c 0,17,18
 708 1602 708 1602 699 1563 c 1,19,20
 693 1528 693 1528 693 1423 c 2,21,-1
 693 -614 l 1,0,-1
EndSplineSet
Validated: 1
EndChar

StartChar: integralbt
Encoding: 8993 8993 322
Width: 1237
GlyphClass: 2
Flags: W
LayerCount: 3
Fore
SplineSet
546 1706 m 1,0,-1
 693 1706 l 1,1,-1
 693 -174 l 2,2,3
 693 -369 693 -369 611.5 -491.5 c 128,-1,4
 530 -614 530 -614 398 -614 c 0,5,6
 339 -614 339 -614 300 -583.5 c 128,-1,7
 261 -553 261 -553 261 -506 c 0,8,9
 261 -467 261 -467 286 -440.5 c 128,-1,10
 311 -414 311 -414 347 -414 c 0,11,12
 380 -414 380 -414 406 -430 c 1,13,14
 416 -434 416 -434 447 -475 c 1,15,16
 478 -512 478 -512 494 -512 c 0,17,18
 523 -512 523 -512 534.5 -486.5 c 128,-1,19
 546 -461 546 -461 546 -334 c 2,20,-1
 546 1706 l 1,0,-1
EndSplineSet
Validated: 1
EndChar

StartChar: uni2500
Encoding: 9472 9472 323
Width: 1451
GlyphClass: 2
Flags: W
LayerCount: 3
Fore
SplineSet
-10 549 m 1,0,-1
 -10 694 l 1,1,-1
 1461 694 l 1,2,-1
 1461 549 l 1,3,-1
 -10 549 l 1,0,-1
EndSplineSet
Validated: 1
EndChar

StartChar: uni2502
Encoding: 9474 9474 324
Width: 1280
GlyphClass: 2
Flags: W
LayerCount: 3
Fore
SplineSet
472 1864 m 1,0,-1
 617 1864 l 1,1,-1
 617 -621 l 1,2,-1
 472 -621 l 1,3,-1
 472 1864 l 1,0,-1
EndSplineSet
Validated: 1
EndChar

StartChar: uni250C
Encoding: 9484 9484 325
Width: 1451
GlyphClass: 2
Flags: W
LayerCount: 3
Fore
SplineSet
653 694 m 1,0,-1
 1461 694 l 1,1,-1
 1461 549 l 1,2,-1
 798 549 l 1,3,-1
 798 -621 l 1,4,-1
 653 -621 l 1,5,-1
 653 694 l 1,0,-1
EndSplineSet
Validated: 1
EndChar

StartChar: uni2510
Encoding: 9488 9488 326
Width: 1451
GlyphClass: 2
Flags: W
LayerCount: 3
Fore
SplineSet
-10 549 m 1,0,-1
 -10 694 l 1,1,-1
 798 694 l 1,2,-1
 798 -621 l 1,3,-1
 653 -621 l 1,4,-1
 653 549 l 1,5,-1
 -10 549 l 1,0,-1
EndSplineSet
Validated: 1
EndChar

StartChar: uni2514
Encoding: 9492 9492 327
Width: 1451
GlyphClass: 2
Flags: W
LayerCount: 3
Fore
SplineSet
653 1864 m 1,0,-1
 798 1864 l 1,1,-1
 798 694 l 1,2,-1
 1461 694 l 1,3,-1
 1461 549 l 1,4,-1
 653 549 l 1,5,-1
 653 1864 l 1,0,-1
EndSplineSet
Validated: 1
EndChar

StartChar: uni2518
Encoding: 9496 9496 328
Width: 1451
GlyphClass: 2
Flags: W
LayerCount: 3
Fore
SplineSet
-10 549 m 1,0,-1
 -10 694 l 1,1,-1
 653 694 l 1,2,-1
 653 1864 l 1,3,-1
 798 1864 l 1,4,-1
 798 549 l 1,5,-1
 -10 549 l 1,0,-1
EndSplineSet
Validated: 1
EndChar

StartChar: uni251C
Encoding: 9500 9500 329
Width: 1451
GlyphClass: 2
Flags: W
LayerCount: 3
Fore
SplineSet
653 1864 m 1,0,-1
 798 1864 l 1,1,-1
 798 694 l 1,2,-1
 1461 694 l 1,3,-1
 1461 549 l 1,4,-1
 798 549 l 1,5,-1
 798 -621 l 1,6,-1
 653 -621 l 1,7,-1
 653 1864 l 1,0,-1
EndSplineSet
Validated: 1
EndChar

StartChar: uni2524
Encoding: 9508 9508 330
Width: 1451
GlyphClass: 2
Flags: W
LayerCount: 3
Fore
SplineSet
-10 549 m 1,0,-1
 -10 694 l 1,1,-1
 653 694 l 1,2,-1
 653 1864 l 1,3,-1
 798 1864 l 1,4,-1
 798 -621 l 1,5,-1
 653 -621 l 1,6,-1
 653 549 l 1,7,-1
 -10 549 l 1,0,-1
EndSplineSet
Validated: 1
EndChar

StartChar: uni252C
Encoding: 9516 9516 331
Width: 1451
GlyphClass: 2
Flags: W
LayerCount: 3
Fore
SplineSet
-10 549 m 1,0,-1
 -10 694 l 1,1,-1
 1461 694 l 1,2,-1
 1461 549 l 1,3,-1
 798 549 l 1,4,-1
 798 -621 l 1,5,-1
 653 -621 l 1,6,-1
 653 549 l 1,7,-1
 -10 549 l 1,0,-1
EndSplineSet
Validated: 1
EndChar

StartChar: uni2534
Encoding: 9524 9524 332
Width: 1451
GlyphClass: 2
Flags: W
LayerCount: 3
Fore
SplineSet
-10 549 m 1,0,-1
 -10 694 l 1,1,-1
 653 694 l 1,2,-1
 653 1864 l 1,3,-1
 798 1864 l 1,4,-1
 798 694 l 1,5,-1
 1461 694 l 1,6,-1
 1461 549 l 1,7,-1
 -10 549 l 1,0,-1
EndSplineSet
Validated: 1
EndChar

StartChar: uni253C
Encoding: 9532 9532 333
Width: 1451
GlyphClass: 2
Flags: W
LayerCount: 3
Fore
SplineSet
-10 549 m 1,0,-1
 -10 694 l 1,1,-1
 653 694 l 1,2,-1
 653 1864 l 1,3,-1
 798 1864 l 1,4,-1
 798 694 l 1,5,-1
 1461 694 l 1,6,-1
 1461 549 l 1,7,-1
 798 549 l 1,8,-1
 798 -621 l 1,9,-1
 653 -621 l 1,10,-1
 653 549 l 1,11,-1
 -10 549 l 1,0,-1
EndSplineSet
Validated: 1
EndChar

StartChar: uni2550
Encoding: 9552 9552 334
Width: 1451
GlyphClass: 2
Flags: W
LayerCount: 3
Fore
SplineSet
-10 729 m 1,0,-1
 -10 874 l 1,1,-1
 1461 874 l 1,2,-1
 1461 729 l 1,3,-1
 -10 729 l 1,0,-1
-10 369 m 1,4,-1
 -10 514 l 1,5,-1
 1461 514 l 1,6,-1
 1461 369 l 1,7,-1
 -10 369 l 1,4,-1
EndSplineSet
Validated: 1
EndChar

StartChar: uni2551
Encoding: 9553 9553 335
Width: 1451
GlyphClass: 2
Flags: W
LayerCount: 3
Fore
SplineSet
473 1864 m 1,0,-1
 618 1864 l 1,1,-1
 618 -621 l 1,2,-1
 473 -621 l 1,3,-1
 473 1864 l 1,0,-1
833 1864 m 1,4,-1
 978 1864 l 1,5,-1
 978 -621 l 1,6,-1
 833 -621 l 1,7,-1
 833 1864 l 1,4,-1
EndSplineSet
Validated: 1
EndChar

StartChar: uni2552
Encoding: 9554 9554 336
Width: 1451
GlyphClass: 2
Flags: W
LayerCount: 3
Fore
SplineSet
653 874 m 1,0,-1
 1461 874 l 1,1,-1
 1461 729 l 1,2,-1
 798 729 l 1,3,-1
 798 514 l 1,4,-1
 1461 514 l 1,5,-1
 1461 369 l 1,6,-1
 798 369 l 1,7,-1
 798 -621 l 1,8,-1
 653 -621 l 1,9,-1
 653 874 l 1,0,-1
EndSplineSet
Validated: 1
EndChar

StartChar: uni2553
Encoding: 9555 9555 337
Width: 1451
GlyphClass: 2
Flags: W
LayerCount: 3
Fore
SplineSet
1461 694 m 1,0,-1
 1461 549 l 1,1,-1
 978 549 l 1,2,-1
 978 -621 l 1,3,-1
 833 -621 l 1,4,-1
 833 549 l 1,5,-1
 618 549 l 1,6,-1
 618 -621 l 1,7,-1
 473 -621 l 1,8,-1
 473 694 l 1,9,-1
 1461 694 l 1,0,-1
EndSplineSet
Validated: 1
EndChar

StartChar: uni2554
Encoding: 9556 9556 338
Width: 1451
GlyphClass: 2
Flags: W
LayerCount: 3
Fore
SplineSet
473 874 m 1,0,-1
 1461 874 l 1,1,-1
 1461 729 l 1,2,-1
 618 729 l 1,3,-1
 618 -621 l 1,4,-1
 473 -621 l 1,5,-1
 473 874 l 1,0,-1
833 514 m 1,6,-1
 1461 514 l 1,7,-1
 1461 369 l 1,8,-1
 978 369 l 1,9,-1
 978 -621 l 1,10,-1
 833 -621 l 1,11,-1
 833 514 l 1,6,-1
EndSplineSet
Validated: 1
EndChar

StartChar: uni2555
Encoding: 9557 9557 339
Width: 1451
GlyphClass: 2
Flags: W
LayerCount: 3
Fore
SplineSet
-10 369 m 1,0,-1
 -10 514 l 1,1,-1
 653 514 l 1,2,-1
 653 729 l 1,3,-1
 -10 729 l 1,4,-1
 -10 874 l 1,5,-1
 798 874 l 1,6,-1
 798 -621 l 1,7,-1
 653 -621 l 1,8,-1
 653 369 l 1,9,-1
 -10 369 l 1,0,-1
EndSplineSet
Validated: 1
EndChar

StartChar: uni2556
Encoding: 9558 9558 340
Width: 1451
GlyphClass: 2
Flags: W
LayerCount: 3
Fore
SplineSet
-10 549 m 1,0,-1
 -10 694 l 1,1,-1
 978 694 l 1,2,-1
 978 -621 l 1,3,-1
 833 -621 l 1,4,-1
 833 549 l 1,5,-1
 618 549 l 1,6,-1
 618 -621 l 1,7,-1
 473 -621 l 1,8,-1
 473 549 l 1,9,-1
 -10 549 l 1,0,-1
EndSplineSet
Validated: 1
EndChar

StartChar: uni2557
Encoding: 9559 9559 341
Width: 1451
GlyphClass: 2
Flags: W
LayerCount: 3
Fore
SplineSet
978 874 m 1,0,-1
 978 -621 l 1,1,-1
 833 -621 l 1,2,-1
 833 729 l 1,3,-1
 -10 729 l 1,4,-1
 -10 874 l 1,5,-1
 978 874 l 1,0,-1
618 -621 m 1,6,-1
 473 -621 l 1,7,-1
 473 369 l 1,8,-1
 -10 369 l 1,9,-1
 -10 514 l 1,10,-1
 618 514 l 1,11,-1
 618 -621 l 1,6,-1
EndSplineSet
Validated: 1
EndChar

StartChar: uni2558
Encoding: 9560 9560 342
Width: 1451
GlyphClass: 2
Flags: W
LayerCount: 3
Fore
SplineSet
653 1864 m 1,0,-1
 798 1864 l 1,1,-1
 798 874 l 1,2,-1
 1461 874 l 1,3,-1
 1461 729 l 1,4,-1
 798 729 l 1,5,-1
 798 514 l 1,6,-1
 1461 514 l 1,7,-1
 1461 369 l 1,8,-1
 653 369 l 1,9,-1
 653 1864 l 1,0,-1
EndSplineSet
Validated: 1
EndChar

StartChar: uni2559
Encoding: 9561 9561 343
Width: 1451
GlyphClass: 2
Flags: W
LayerCount: 3
Fore
SplineSet
833 1864 m 1,0,-1
 978 1864 l 1,1,-1
 978 694 l 1,2,-1
 1461 694 l 1,3,-1
 1461 549 l 1,4,-1
 473 549 l 1,5,-1
 473 1864 l 1,6,-1
 618 1864 l 1,7,-1
 618 694 l 1,8,-1
 833 694 l 1,9,-1
 833 1864 l 1,0,-1
EndSplineSet
Validated: 1
EndChar

StartChar: uni255A
Encoding: 9562 9562 344
Width: 1451
GlyphClass: 2
Flags: W
LayerCount: 3
Fore
SplineSet
473 1864 m 1,0,-1
 618 1864 l 1,1,-1
 618 514 l 1,2,-1
 1461 514 l 1,3,-1
 1461 369 l 1,4,-1
 473 369 l 1,5,-1
 473 1864 l 1,0,-1
833 1864 m 1,6,-1
 978 1864 l 1,7,-1
 978 874 l 1,8,-1
 1461 874 l 1,9,-1
 1461 729 l 1,10,-1
 833 729 l 1,11,-1
 833 1864 l 1,6,-1
EndSplineSet
Validated: 1
EndChar

StartChar: uni255B
Encoding: 9563 9563 345
Width: 1451
GlyphClass: 2
Flags: W
LayerCount: 3
Fore
SplineSet
-10 369 m 1,0,-1
 -10 514 l 1,1,-1
 653 514 l 1,2,-1
 653 729 l 1,3,-1
 -10 729 l 1,4,-1
 -10 874 l 1,5,-1
 653 874 l 1,6,-1
 653 1864 l 1,7,-1
 798 1864 l 1,8,-1
 798 369 l 1,9,-1
 -10 369 l 1,0,-1
EndSplineSet
Validated: 1
EndChar

StartChar: uni255C
Encoding: 9564 9564 346
Width: 1451
GlyphClass: 2
Flags: W
LayerCount: 3
Fore
SplineSet
978 549 m 1,0,-1
 -10 549 l 1,1,-1
 -10 694 l 1,2,-1
 473 694 l 1,3,-1
 473 1864 l 1,4,-1
 618 1864 l 1,5,-1
 618 694 l 1,6,-1
 833 694 l 1,7,-1
 833 1864 l 1,8,-1
 978 1864 l 1,9,-1
 978 549 l 1,0,-1
EndSplineSet
Validated: 1
EndChar

StartChar: uni255D
Encoding: 9565 9565 347
Width: 1451
GlyphClass: 2
Flags: W
LayerCount: 3
Fore
SplineSet
978 369 m 1,0,-1
 -10 369 l 1,1,-1
 -10 514 l 1,2,-1
 833 514 l 1,3,-1
 833 1864 l 1,4,-1
 978 1864 l 1,5,-1
 978 369 l 1,0,-1
473 1864 m 1,6,-1
 618 1864 l 1,7,-1
 618 729 l 1,8,-1
 -10 729 l 1,9,-1
 -10 874 l 1,10,-1
 473 874 l 1,11,-1
 473 1864 l 1,6,-1
EndSplineSet
Validated: 1
EndChar

StartChar: uni255E
Encoding: 9566 9566 348
Width: 1451
GlyphClass: 2
Flags: W
LayerCount: 3
Fore
SplineSet
653 1864 m 1,0,-1
 798 1864 l 1,1,-1
 798 874 l 1,2,-1
 1461 874 l 1,3,-1
 1461 729 l 1,4,-1
 798 729 l 1,5,-1
 798 514 l 1,6,-1
 1461 514 l 1,7,-1
 1461 369 l 1,8,-1
 798 369 l 1,9,-1
 798 -621 l 1,10,-1
 653 -621 l 1,11,-1
 653 1864 l 1,0,-1
EndSplineSet
Validated: 1
EndChar

StartChar: uni255F
Encoding: 9567 9567 349
Width: 1451
GlyphClass: 2
Flags: W
LayerCount: 3
Fore
SplineSet
833 1864 m 1,0,-1
 978 1864 l 1,1,-1
 978 694 l 1,2,-1
 1461 694 l 1,3,-1
 1461 549 l 1,4,-1
 978 549 l 1,5,-1
 978 -621 l 1,6,-1
 833 -621 l 1,7,-1
 833 1864 l 1,0,-1
473 1864 m 1,8,-1
 618 1864 l 1,9,-1
 618 -621 l 1,10,-1
 473 -621 l 1,11,-1
 473 1864 l 1,8,-1
EndSplineSet
Validated: 1
EndChar

StartChar: uni2560
Encoding: 9568 9568 350
Width: 1451
GlyphClass: 2
Flags: W
LayerCount: 3
Fore
SplineSet
618 -621 m 1,0,-1
 473 -621 l 1,1,-1
 473 1864 l 1,2,-1
 618 1864 l 1,3,-1
 618 -621 l 1,0,-1
833 514 m 1,4,-1
 1461 514 l 1,5,-1
 1461 369 l 1,6,-1
 978 369 l 1,7,-1
 978 -621 l 1,8,-1
 833 -621 l 1,9,-1
 833 514 l 1,4,-1
833 1864 m 1,10,-1
 978 1864 l 1,11,-1
 978 874 l 1,12,-1
 1461 874 l 1,13,-1
 1461 729 l 1,14,-1
 833 729 l 1,15,-1
 833 1864 l 1,10,-1
EndSplineSet
Validated: 1
EndChar

StartChar: uni2561
Encoding: 9569 9569 351
Width: 1451
GlyphClass: 2
Flags: W
LayerCount: 3
Fore
SplineSet
-10 369 m 1,0,-1
 -10 514 l 1,1,-1
 653 514 l 1,2,-1
 653 729 l 1,3,-1
 -10 729 l 1,4,-1
 -10 874 l 1,5,-1
 653 874 l 1,6,-1
 653 1864 l 1,7,-1
 798 1864 l 1,8,-1
 798 -621 l 1,9,-1
 653 -621 l 1,10,-1
 653 369 l 1,11,-1
 -10 369 l 1,0,-1
EndSplineSet
Validated: 1
EndChar

StartChar: uni2562
Encoding: 9570 9570 352
Width: 1451
GlyphClass: 2
Flags: W
LayerCount: 3
Fore
SplineSet
-10 549 m 1,0,-1
 -10 694 l 1,1,-1
 473 694 l 1,2,-1
 473 1864 l 1,3,-1
 618 1864 l 1,4,-1
 618 -621 l 1,5,-1
 473 -621 l 1,6,-1
 473 549 l 1,7,-1
 -10 549 l 1,0,-1
833 1864 m 1,8,-1
 978 1864 l 1,9,-1
 978 -621 l 1,10,-1
 833 -621 l 1,11,-1
 833 1864 l 1,8,-1
EndSplineSet
Validated: 1
EndChar

StartChar: uni2563
Encoding: 9571 9571 353
Width: 1451
GlyphClass: 2
Flags: W
LayerCount: 3
Fore
SplineSet
833 1864 m 1,0,-1
 978 1864 l 1,1,-1
 978 -621 l 1,2,-1
 833 -621 l 1,3,-1
 833 1864 l 1,0,-1
473 1864 m 1,4,-1
 618 1864 l 1,5,-1
 618 729 l 1,6,-1
 -10 729 l 1,7,-1
 -10 874 l 1,8,-1
 473 874 l 1,9,-1
 473 1864 l 1,4,-1
618 -621 m 1,10,-1
 473 -621 l 1,11,-1
 473 369 l 1,12,-1
 -10 369 l 1,13,-1
 -10 514 l 1,14,-1
 618 514 l 1,15,-1
 618 -621 l 1,10,-1
EndSplineSet
Validated: 1
EndChar

StartChar: uni2564
Encoding: 9572 9572 354
Width: 1451
GlyphClass: 2
Flags: W
LayerCount: 3
Fore
SplineSet
-10 369 m 1,0,-1
 -10 514 l 1,1,-1
 1461 514 l 1,2,-1
 1461 369 l 1,3,-1
 798 369 l 1,4,-1
 798 -621 l 1,5,-1
 653 -621 l 1,6,-1
 653 369 l 1,7,-1
 -10 369 l 1,0,-1
-10 729 m 1,8,-1
 -10 874 l 1,9,-1
 1461 874 l 1,10,-1
 1461 729 l 1,11,-1
 -10 729 l 1,8,-1
EndSplineSet
Validated: 1
EndChar

StartChar: uni2565
Encoding: 9573 9573 355
Width: 1451
GlyphClass: 2
Flags: W
LayerCount: 3
Fore
SplineSet
-10 549 m 1,0,-1
 -10 694 l 1,1,-1
 1461 694 l 1,2,-1
 1461 549 l 1,3,-1
 978 549 l 1,4,-1
 978 -621 l 1,5,-1
 833 -621 l 1,6,-1
 833 549 l 1,7,-1
 618 549 l 1,8,-1
 618 -621 l 1,9,-1
 473 -621 l 1,10,-1
 473 549 l 1,11,-1
 -10 549 l 1,0,-1
EndSplineSet
Validated: 1
EndChar

StartChar: uni2566
Encoding: 9574 9574 356
Width: 1451
GlyphClass: 2
Flags: W
LayerCount: 3
Fore
SplineSet
618 -621 m 1,0,-1
 473 -621 l 1,1,-1
 473 369 l 1,2,-1
 -10 369 l 1,3,-1
 -10 514 l 1,4,-1
 618 514 l 1,5,-1
 618 -621 l 1,0,-1
833 514 m 1,6,-1
 1461 514 l 1,7,-1
 1461 369 l 1,8,-1
 978 369 l 1,9,-1
 978 -621 l 1,10,-1
 833 -621 l 1,11,-1
 833 514 l 1,6,-1
1461 874 m 1,12,-1
 1461 729 l 1,13,-1
 -10 729 l 1,14,-1
 -10 874 l 1,15,-1
 1461 874 l 1,12,-1
EndSplineSet
Validated: 1
EndChar

StartChar: uni2567
Encoding: 9575 9575 357
Width: 1451
GlyphClass: 2
Flags: W
LayerCount: 3
Fore
SplineSet
-10 729 m 1,0,-1
 -10 874 l 1,1,-1
 653 874 l 1,2,-1
 653 1864 l 1,3,-1
 798 1864 l 1,4,-1
 798 874 l 1,5,-1
 1461 874 l 1,6,-1
 1461 729 l 1,7,-1
 -10 729 l 1,0,-1
-10 369 m 1,8,-1
 -10 514 l 1,9,-1
 1461 514 l 1,10,-1
 1461 369 l 1,11,-1
 -10 369 l 1,8,-1
EndSplineSet
Validated: 1
EndChar

StartChar: uni2568
Encoding: 9576 9576 358
Width: 1451
GlyphClass: 2
Flags: W
LayerCount: 3
Fore
SplineSet
-10 549 m 1,0,-1
 -10 694 l 1,1,-1
 473 694 l 1,2,-1
 473 1864 l 1,3,-1
 618 1864 l 1,4,-1
 618 694 l 1,5,-1
 833 694 l 1,6,-1
 833 1864 l 1,7,-1
 978 1864 l 1,8,-1
 978 694 l 1,9,-1
 1461 694 l 1,10,-1
 1461 549 l 1,11,-1
 -10 549 l 1,0,-1
EndSplineSet
Validated: 1
EndChar

StartChar: uni2569
Encoding: 9577 9577 359
Width: 1451
GlyphClass: 2
Flags: W
LayerCount: 3
Fore
SplineSet
833 1864 m 1,0,-1
 978 1864 l 1,1,-1
 978 874 l 1,2,-1
 1461 874 l 1,3,-1
 1461 729 l 1,4,-1
 833 729 l 1,5,-1
 833 1864 l 1,0,-1
473 1864 m 1,6,-1
 618 1864 l 1,7,-1
 618 729 l 1,8,-1
 -10 729 l 1,9,-1
 -10 874 l 1,10,-1
 473 874 l 1,11,-1
 473 1864 l 1,6,-1
-10 369 m 1,12,-1
 -10 514 l 1,13,-1
 1461 514 l 1,14,-1
 1461 369 l 1,15,-1
 -10 369 l 1,12,-1
EndSplineSet
Validated: 1
EndChar

StartChar: uni256A
Encoding: 9578 9578 360
Width: 1451
GlyphClass: 2
Flags: W
LayerCount: 3
Fore
SplineSet
-10 369 m 1,0,-1
 -10 514 l 1,1,-1
 653 514 l 1,2,-1
 653 729 l 1,3,-1
 -10 729 l 1,4,-1
 -10 874 l 1,5,-1
 653 874 l 1,6,-1
 653 1864 l 1,7,-1
 798 1864 l 1,8,-1
 798 874 l 1,9,-1
 1461 874 l 1,10,-1
 1461 729 l 1,11,-1
 798 729 l 1,12,-1
 798 514 l 1,13,-1
 1461 514 l 1,14,-1
 1461 369 l 1,15,-1
 798 369 l 1,16,-1
 798 -621 l 1,17,-1
 653 -621 l 1,18,-1
 653 369 l 1,19,-1
 -10 369 l 1,0,-1
EndSplineSet
Validated: 1
EndChar

StartChar: uni256B
Encoding: 9579 9579 361
Width: 1451
GlyphClass: 2
Flags: W
LayerCount: 3
Fore
SplineSet
833 1864 m 1,0,-1
 978 1864 l 1,1,-1
 978 694 l 1,2,-1
 1461 694 l 1,3,-1
 1461 549 l 1,4,-1
 978 549 l 1,5,-1
 978 -621 l 1,6,-1
 833 -621 l 1,7,-1
 833 549 l 1,8,-1
 618 549 l 1,9,-1
 618 -621 l 1,10,-1
 473 -621 l 1,11,-1
 473 549 l 1,12,-1
 -10 549 l 1,13,-1
 -10 694 l 1,14,-1
 473 694 l 1,15,-1
 473 1864 l 1,16,-1
 618 1864 l 1,17,-1
 618 694 l 1,18,-1
 833 694 l 1,19,-1
 833 1864 l 1,0,-1
EndSplineSet
Validated: 1
EndChar

StartChar: uni256C
Encoding: 9580 9580 362
Width: 1451
GlyphClass: 2
Flags: W
LayerCount: 3
Fore
SplineSet
833 1864 m 1,0,-1
 978 1864 l 1,1,-1
 978 874 l 1,2,-1
 1461 874 l 1,3,-1
 1461 729 l 1,4,-1
 833 729 l 1,5,-1
 833 1864 l 1,0,-1
618 -621 m 1,6,-1
 473 -621 l 1,7,-1
 473 369 l 1,8,-1
 -10 369 l 1,9,-1
 -10 514 l 1,10,-1
 618 514 l 1,11,-1
 618 -621 l 1,6,-1
833 514 m 1,12,-1
 1461 514 l 1,13,-1
 1461 369 l 1,14,-1
 978 369 l 1,15,-1
 978 -621 l 1,16,-1
 833 -621 l 1,17,-1
 833 514 l 1,12,-1
473 1864 m 1,18,-1
 618 1864 l 1,19,-1
 618 729 l 1,20,-1
 -10 729 l 1,21,-1
 -10 874 l 1,22,-1
 473 874 l 1,23,-1
 473 1864 l 1,18,-1
EndSplineSet
Validated: 1
EndChar

StartChar: upblock
Encoding: 9600 9600 363
Width: 1451
GlyphClass: 2
Flags: W
LayerCount: 3
Fore
SplineSet
1451 621 m 1,0,-1
 0 621 l 1,1,-1
 0 1864 l 1,2,-1
 1451 1864 l 1,3,-1
 1451 621 l 1,0,-1
EndSplineSet
Validated: 1
EndChar

StartChar: dnblock
Encoding: 9604 9604 364
Width: 1451
GlyphClass: 2
Flags: W
LayerCount: 3
Fore
SplineSet
1451 -621 m 1,0,-1
 0 -621 l 1,1,-1
 0 621 l 1,2,-1
 1451 621 l 1,3,-1
 1451 -621 l 1,0,-1
EndSplineSet
Validated: 1
EndChar

StartChar: block
Encoding: 9608 9608 365
Width: 1451
GlyphClass: 2
Flags: W
LayerCount: 3
Fore
SplineSet
1451 -621 m 1,0,-1
 0 -621 l 1,1,-1
 0 1864 l 1,2,-1
 1451 1864 l 1,3,-1
 1451 -621 l 1,0,-1
EndSplineSet
Validated: 1
EndChar

StartChar: lfblock
Encoding: 9612 9612 366
Width: 1451
GlyphClass: 2
Flags: W
LayerCount: 3
Fore
SplineSet
726 -621 m 1,0,-1
 0 -621 l 1,1,-1
 0 1864 l 1,2,-1
 726 1864 l 1,3,-1
 726 -621 l 1,0,-1
EndSplineSet
Validated: 1
EndChar

StartChar: rtblock
Encoding: 9616 9616 367
Width: 1451
GlyphClass: 2
Flags: W
LayerCount: 3
Fore
SplineSet
1451 -621 m 1,0,-1
 725 -621 l 1,1,-1
 725 1864 l 1,2,-1
 1451 1864 l 1,3,-1
 1451 -621 l 1,0,-1
EndSplineSet
Validated: 1
EndChar

StartChar: ltshade
Encoding: 9617 9617 368
Width: 1451
GlyphClass: 2
Flags: W
LayerCount: 3
Fore
SplineSet
103 1314 m 1,0,-1
 207 1314 l 1,1,-1
 207 1216 l 1,2,-1
 103 1216 l 1,3,-1
 103 1314 l 1,0,-1
517 1314 m 1,4,-1
 621 1314 l 1,5,-1
 621 1216 l 1,6,-1
 517 1216 l 1,7,-1
 517 1314 l 1,4,-1
933 1314 m 1,8,-1
 1036 1314 l 1,9,-1
 1036 1216 l 1,10,-1
 933 1216 l 1,11,-1
 933 1314 l 1,8,-1
310 1119 m 1,12,-1
 414 1119 l 1,13,-1
 414 1023 l 1,14,-1
 310 1023 l 1,15,-1
 310 1119 l 1,12,-1
725 1119 m 1,16,-1
 829 1119 l 1,17,-1
 829 1023 l 1,18,-1
 725 1023 l 1,19,-1
 725 1119 l 1,16,-1
1140 1119 m 1,20,-1
 1244 1119 l 1,21,-1
 1244 1023 l 1,22,-1
 1140 1023 l 1,23,-1
 1140 1119 l 1,20,-1
933 927 m 1,24,-1
 1036 927 l 1,25,-1
 1036 831 l 1,26,-1
 933 831 l 1,27,-1
 933 927 l 1,24,-1
517 927 m 1,28,-1
 621 927 l 1,29,-1
 621 831 l 1,30,-1
 517 831 l 1,31,-1
 517 927 l 1,28,-1
103 927 m 1,32,-1
 207 927 l 1,33,-1
 207 831 l 1,34,-1
 103 831 l 1,35,-1
 103 927 l 1,32,-1
1140 732 m 1,36,-1
 1244 732 l 1,37,-1
 1244 636 l 1,38,-1
 1140 636 l 1,39,-1
 1140 732 l 1,36,-1
725 732 m 1,40,-1
 829 732 l 1,41,-1
 829 636 l 1,42,-1
 725 636 l 1,43,-1
 725 732 l 1,40,-1
310 732 m 1,44,-1
 414 732 l 1,45,-1
 414 636 l 1,46,-1
 310 636 l 1,47,-1
 310 732 l 1,44,-1
103 540 m 1,48,-1
 207 540 l 1,49,-1
 207 444 l 1,50,-1
 103 444 l 1,51,-1
 103 540 l 1,48,-1
517 540 m 1,52,-1
 621 540 l 1,53,-1
 621 444 l 1,54,-1
 517 444 l 1,55,-1
 517 540 l 1,52,-1
933 540 m 1,56,-1
 1036 540 l 1,57,-1
 1036 444 l 1,58,-1
 933 444 l 1,59,-1
 933 540 l 1,56,-1
1140 345 m 1,60,-1
 1244 345 l 1,61,-1
 1244 249 l 1,62,-1
 1140 249 l 1,63,-1
 1140 345 l 1,60,-1
725 345 m 1,64,-1
 829 345 l 1,65,-1
 829 249 l 1,66,-1
 725 249 l 1,67,-1
 725 345 l 1,64,-1
310 345 m 1,68,-1
 414 345 l 1,69,-1
 414 249 l 1,70,-1
 310 249 l 1,71,-1
 310 345 l 1,68,-1
103 153 m 1,72,-1
 207 153 l 1,73,-1
 207 56 l 1,74,-1
 103 56 l 1,75,-1
 103 153 l 1,72,-1
517 153 m 1,76,-1
 621 153 l 1,77,-1
 621 56 l 1,78,-1
 517 56 l 1,79,-1
 517 153 l 1,76,-1
933 153 m 1,80,-1
 1036 153 l 1,81,-1
 1036 56 l 1,82,-1
 933 56 l 1,83,-1
 933 153 l 1,80,-1
310 -42 m 1,84,-1
 414 -42 l 1,85,-1
 414 -136 l 1,86,-1
 310 -136 l 1,87,-1
 310 -42 l 1,84,-1
725 -42 m 1,88,-1
 829 -42 l 1,89,-1
 829 -136 l 1,90,-1
 725 -136 l 1,91,-1
 725 -42 l 1,88,-1
1140 -42 m 1,92,-1
 1244 -42 l 1,93,-1
 1244 -136 l 1,94,-1
 1140 -136 l 1,95,-1
 1140 -42 l 1,92,-1
933 -234 m 1,96,-1
 1036 -234 l 1,97,-1
 1036 -331 l 1,98,-1
 933 -331 l 1,99,-1
 933 -234 l 1,96,-1
517 -234 m 1,100,-1
 621 -234 l 1,101,-1
 621 -331 l 1,102,-1
 517 -331 l 1,103,-1
 517 -234 l 1,100,-1
103 -234 m 1,104,-1
 207 -234 l 1,105,-1
 207 -331 l 1,106,-1
 103 -331 l 1,107,-1
 103 -234 l 1,104,-1
310 -427 m 1,108,-1
 414 -427 l 1,109,-1
 414 -523 l 1,110,-1
 310 -523 l 1,111,-1
 310 -427 l 1,108,-1
725 -427 m 1,112,-1
 829 -427 l 1,113,-1
 829 -523 l 1,114,-1
 725 -523 l 1,115,-1
 725 -427 l 1,112,-1
1140 -427 m 1,116,-1
 1244 -427 l 1,117,-1
 1244 -523 l 1,118,-1
 1140 -523 l 1,119,-1
 1140 -427 l 1,116,-1
310 1506 m 1,120,-1
 414 1506 l 1,121,-1
 414 1408 l 1,122,-1
 310 1408 l 1,123,-1
 310 1506 l 1,120,-1
725 1506 m 1,124,-1
 829 1506 l 1,125,-1
 829 1408 l 1,126,-1
 725 1408 l 1,127,-1
 725 1506 l 1,124,-1
1140 1506 m 1,128,-1
 1244 1506 l 1,129,-1
 1244 1408 l 1,130,-1
 1140 1408 l 1,131,-1
 1140 1506 l 1,128,-1
103 1699 m 1,132,-1
 207 1699 l 1,133,-1
 207 1603 l 1,134,-1
 103 1603 l 1,135,-1
 103 1699 l 1,132,-1
517 1699 m 1,136,-1
 621 1699 l 1,137,-1
 621 1603 l 1,138,-1
 517 1603 l 1,139,-1
 517 1699 l 1,136,-1
933 1699 m 1,140,-1
 1036 1699 l 1,141,-1
 1036 1603 l 1,142,-1
 933 1603 l 1,143,-1
 933 1699 l 1,140,-1
1347 1314 m 1,144,-1
 1451 1314 l 1,145,-1
 1451 1216 l 1,146,-1
 1347 1216 l 1,147,-1
 1347 1314 l 1,144,-1
1347 927 m 1,148,-1
 1451 927 l 1,149,-1
 1451 831 l 1,150,-1
 1347 831 l 1,151,-1
 1347 927 l 1,148,-1
1347 540 m 1,152,-1
 1451 540 l 1,153,-1
 1451 444 l 1,154,-1
 1347 444 l 1,155,-1
 1347 540 l 1,152,-1
1347 153 m 1,156,-1
 1451 153 l 1,157,-1
 1451 56 l 1,158,-1
 1347 56 l 1,159,-1
 1347 153 l 1,156,-1
1347 -234 m 1,160,-1
 1451 -234 l 1,161,-1
 1451 -331 l 1,162,-1
 1347 -331 l 1,163,-1
 1347 -234 l 1,160,-1
1347 1699 m 1,164,-1
 1451 1699 l 1,165,-1
 1451 1603 l 1,166,-1
 1347 1603 l 1,167,-1
 1347 1699 l 1,164,-1
EndSplineSet
Validated: 1
EndChar

